<?xml version="1.0" standalone="no"?>
<!DOCTYPE svg PUBLIC "-//W3C//DTD SVG 1.1//EN" "http://www.w3.org/Graphics/SVG/1.1/DTD/svg11.dtd" >
<svg xmlns="http://www.w3.org/2000/svg">
<metadata>
This is a custom SVG webfont generated by Font Squirrel.
Copyright   : Made by Richard Mitchell the Underground Grammarian 
</metadata>
<defs>
<font id="webfontpa93Eey2" horiz-adv-x="522" >
<font-face units-per-em="1000" ascent="800" descent="-200" />
<missing-glyph horiz-adv-x="186" />
<glyph unicode=" "  horiz-adv-x="186" />
<glyph unicode="&#x09;" horiz-adv-x="186" />
<glyph unicode="&#xa0;" horiz-adv-x="186" />
<glyph unicode="!" horiz-adv-x="414" d="M43 -8q5 -9 13 -12q35 2 62 21q8 8 12.5 17t13.5 16q11 18 15.5 42.5t-9.5 42.5q-11 17 -27 13.5t-30 -11.5q-14 -11 -25.5 -26t-11.5 -33q-7 -11 -9.5 -25.5t0.5 -29.5q-5 -7 -4 -15zM111 194q6 -8 12 -8.5t12.5 2.5t13 7t12.5 4q12 0 22.5 -5.5t22.5 1.5q7 4 11 17 q-6 32 8.5 58.5t31.5 51.5q11 26 24 51.5t25 51.5q10 17 17.5 34.5t16 34.5t18.5 33.5t24 31.5q6 8 10.5 15.5t1.5 17.5q-5 7 -14 8q-16 -3 -29.5 -12t-29.5 -12q-12 -5 -25 -1.5t-25 1.5q-13 -11 -17 -25.5t-9 -29.5q-7 -33 -21.5 -62l-28.5 -59q-12 -24 -27.5 -46.5 t-18.5 -50.5q-2 -15 -11.5 -26t-16.5 -23q-4 -14 -10 -29.5t0 -30.5z" />
<glyph unicode="&#x22;" horiz-adv-x="295" d="M34 625q2 0 6 -11.5t8.5 -29.5l9.5 -39.5l9.5 -40l7.5 -31.5t4 -14q0 1 3 17t8.5 41.5l10.5 49.5t10 41.5t8 17.5l-7 9.5l-15 20.5l-14.5 19.5t-5.5 6.5q1 0 -6.5 -9l-16 -19.5l-15.5 -19.5t-5 -9zM177 621q2 0 5.5 -11t7.5 -28.5t8 -38l7.5 -38.5l6 -30t3.5 -13l6 25 t14.5 55l16 55t10.5 25q1 0 -6 10l-15 22l-14.5 21t-4.5 7l-7 -10t-16 -21t-16 -20.5t-6 -9.5z" />
<glyph unicode="%" horiz-adv-x="615" d="M-19 -95q3 -6 8.5 -7.5t10.5 -3.5q6 0 11 4t9 9q11 9 25.5 9.5t28.5 2.5q10 1 16 6.5t9 13t4.5 16.5t3.5 16q13 29 24 57t32 53q8 21 18 42t27 38q13 16 21 34t19 35q5 12 14 20t19 14t19.5 13t16.5 18l64.5 93l63.5 92l53.5 85t62.5 77q4 7 11 12t13 10.5t9.5 12.5 t1.5 16l-7 6q-16 2 -31 -3t-29 -12q-11 -4 -24.5 -2t-23.5 -6l-23 -31t-22 -32q-33 -62 -69.5 -120.5l-74.5 -116.5q-20 -35 -42 -68l-44 -66.5l-42.5 -67t-38.5 -68.5l-74 -89.5t-67 -92.5q-6 -11 -3 -19zM30 434q-1 -18 3 -35.5t16 -31.5q14 -13 25.5 -27.5t29.5 -17.5 t36.5 0t35.5 9q20 11 39 24.5t34 32.5q6 13 14 26t14.5 26t11 27t3.5 30l-8 26.5t1 27.5q-2 11 -7.5 22t-16.5 18q-20 10 -43.5 9t-46.5 3q-8 -1 -15 -4.5t-15 -5.5q-29 -11 -56 -36t-39 -54q-6 -15 -10.5 -33t-5.5 -36zM102 413q2 16 7.5 30.5t10.5 29.5q11 18 19 37t22 36 q16 11 35 11.5t37 -1.5q9 -2 11 -11v-33t3 -34q-6 -27 -21 -51t-39 -43q-14 -7 -32 -10.5t-34 6.5q-10 5 -14 13.5t-5 19.5zM321 78.5q8 -26.5 23 -48.5q11 -20 28.5 -28.5t38.5 -8.5q25 -6 44.5 5.5t37.5 24.5q7 6 10.5 13t6 14t6 14t10.5 12q8 27 18 52.5t14 53.5 q-3 9 -1.5 16.5t4 15t3.5 15.5t-3 16q-6 5 -9 13t-6.5 15t-8.5 12.5t-15 5.5q-9 -5 -20 -6t-22 -3q-18 -11 -37.5 -19.5t-37.5 -22.5q-26 -23 -49.5 -49.5t-34.5 -57.5q-8 -28 0 -54.5zM404.5 75.5q-0.5 11.5 1.5 21.5q8 32 24.5 59t26.5 58q2 5 5.5 6.5t7.5 1.5t8.5 0.5 t7.5 3.5q7 4 12 11.5t15 2.5l7 -8q2 -15 -2 -29.5t1 -28.5q-5 -21 -14.5 -40t-14.5 -40q-3 -12 -13.5 -20t-15.5 -19q-11 -8 -23.5 -4t-23.5 7q-9 6 -9.5 17.5z" />
<glyph unicode="&#x26;" horiz-adv-x="537" d="M-30.5 -79.5q1.5 -18.5 15.5 -30.5q28 -23 62.5 -32t72.5 -9q20 -2 38.5 3t35.5 12.5t34 16.5t35 16q17 10 27 25.5t26 23.5q34 20 45 54.5t8 72.5q17 12 29 28l24 32q20 23 29 49t15 53q6 18 3 37t-14 34q-5 3 -9.5 6t-10.5 3q-8 2 -13 -4t-9 -12q-7 -20 7 -35q4 -2 8 0 t6 1q2 -21 -3.5 -40t-12.5 -37q-14 -15 -24.5 -33t-26.5 -33q-9 56 -26 106.5t-31 104.5q17 12 35 22l36 21t34.5 24t29.5 31q15 31 34.5 59.5t27.5 62.5q4 39 -13 74q-5 9 -13.5 13t-17.5 6l-25 -2q-32 9 -62.5 -0.5t-57.5 -22.5q-23 -13 -43.5 -31t-35.5 -40t-23.5 -47 t-7.5 -52q6 -25 6 -51t8 -50q-8 -8 -17 -5.5t-19 -0.5q-29 -9 -56.5 -23.5t-50.5 -39.5q-37 -46 -50 -106.5t3 -117.5q8 -25 30 -42.5t47 -22.5q20 -14 46 -15.5t47 11.5q17 17 38.5 22t42.5 13q5 -27 -8.5 -50.5t-34.5 -43.5q-21 -8 -40.5 -21t-41.5 -19q-32 -5 -64.5 -2.5 t-59.5 14.5l-18 10t-10 16q-1 5 0.5 6.5t4.5 2t6 0t5 1.5q8 0 9.5 5.5t3.5 9.5q2 8 1.5 14t-7.5 11q-8 4 -18.5 3.5t-19.5 -2.5q-8 -4 -11.5 -10.5t-6.5 -13.5q-5 -15 -3.5 -33.5zM147 103q2 37 9.5 72t27.5 67q9 14 19.5 28t27.5 21l2 -7q8 -44 23.5 -84t19.5 -86 q5 -25 5 -48q-21 -9 -44 -14t-40 -19q-8 -3 -17 -4t-17 4q-5 7 -7.5 15.5t-3.5 17.5t-1.5 18.5t-3.5 18.5zM299 379q-5 30 1 57.5t19.5 52t31.5 47t38 43.5l15.5 13t17.5 12.5t19 6.5t21 -6q12 -17 7.5 -39t-11.5 -39l-32 -56.5t-43 -48.5q-20 -14 -40 -25.5t-42 -19.5z" />
<glyph unicode="'" horiz-adv-x="226" d="M66 616q2 1 5.5 -10t7.5 -28.5t8 -37.5l7.5 -38t5.5 -30.5t3 -13.5l6 25t14.5 55t16.5 55t11 25l-7 10l-15 22l-14 21t-4 7l-7.5 -10l-16.5 -21.5l-16 -21t-5 -9.5z" />
<glyph unicode="(" horiz-adv-x="362" d="M35 101.5q2 -34.5 9 -67.5t22 -64q1 -7 0.5 -15t1.5 -16l14 -20t21 -12q4 2 8 3t6 5q9 16 4 31t-12 29q-2 90 13 176.5t37 169.5q3 8 8.5 14t10.5 14q26 80 74 151t111 134q9 6 21 12t22 13t16.5 16.5t5.5 23.5l-7 5q-21 2 -38 -8l-34 -21q-30 -13 -56 -34l-52 -44 l-68.5 -74t-58.5 -79l-33 -57t-28 -59q1 -23 -5.5 -43t-8.5 -43l-4 -70.5t0 -70z" />
<glyph unicode=")" horiz-adv-x="399" d="M-38 -105.5q-1 -3.5 1 -7.5q5 -4 10 -9t13 -3l24.5 17.5t15.5 25.5q20 19 36.5 38.5l33.5 39.5q5 13 17 18t21 13q34 34 62.5 68t54.5 73q36 45 59 96.5t41 105.5q5 19 12 39.5t-2 40.5q8 43 3 90q-5 38 -13 74.5t-30 67.5q-12 7 -20.5 18.5t-22.5 12.5q-5 -1 -7 -8 q2 -14 5.5 -27.5t4.5 -27.5q5 -76 -3 -148.5t-28 -141.5q-3 -8 -8.5 -15.5t-9.5 -15.5q-14 -38 -26 -77.5t-35 -74.5q-20 -26 -34 -53.5t-25 -56.5q-5 -11 -15 -18t-20 -12l-35.5 -42.5t-34.5 -42.5q-12 -12 -20.5 -26.5t-22.5 -23.5q-1 -4 -2 -7.5z" />
<glyph unicode="*" horiz-adv-x="350" d="M38 505q-4 -12 4 -21t13 -19q2 -5 1.5 -11l-1 -12t2 -10t10.5 -5q11 0 17 6q14 23 34.5 37.5t39.5 29.5q-2 -15 -6.5 -29t-9.5 -28q-5 -9 -11.5 -17.5t-8.5 -19.5q3 -9 9 -11t13.5 -1t14.5 3.5t13 2.5q7 1 12.5 -2.5t12.5 -0.5q5 5 10 9t3 12t-10 10t-10 10l-5 55l2 3 l22 -14q9 -5 13.5 -13.5t8 -16.5t9 -15t15.5 -10q5 2 8.5 3t6.5 5q1 11 9 18t16 13q8 11 1 21q-11 6 -25 5t-25 8q-8 4 -17.5 6.5t-17.5 9.5q28 15 64 20q11 0 22 1.5t20 6.5q5 10 -0.5 19t-9.5 17l-1 30q-7 13 -20 11q-6 0 -7.5 -6t-6.5 -9q-11 -25 -33.5 -38t-42.5 -28h-4 q5 16 9.5 32.5t13.5 32.5q3 6 8 10.5l10 9t7.5 9.5t0.5 13l-3 4q-10 2 -20.5 1l-20.5 -2q-10 -2 -19 -0.5t-17 -3.5q-6 -13 -3 -23q10 -14 7.5 -33t-2.5 -35l-2 -4l-25 26q-6 4 -8.5 10.5l-5 13t-5.5 12t-10 9.5q-6 1 -9 -2q-3 -8 -8 -14t-11 -11.5l-12.5 -11t-10.5 -12.5 q-2 -8 2 -12q7 -7 16.5 -7.5t18.5 0.5q15 -7 29.5 -12.5t25.5 -15.5q-10 -7 -22.5 -9t-23.5 -5q-8 -4 -16.5 -3t-16.5 2.5t-16 1.5t-16 -6z" />
<glyph unicode="+" horiz-adv-x="518" d="M41 236q1 -9 7 -13q11 -2 20.5 2l18.5 8q26 4 52 7.5t52 8.5l44 -3q-7 -17 -12 -35t-10.5 -35.5t-13.5 -34t-21 -31.5q-1 -4 -3.5 -7t0.5 -8q3 -6 7.5 -7.5t10 -1t11 2t10.5 1.5q8 -1 17.5 -3t18.5 -3t17 1t14 9q4 8 4 18t-3 18q5 15 4.5 29.5t-1.5 29.5t-1 30t5 30 q20 2 43 5.5t42 -7.5q23 -6 44.5 -4t45.5 0q9 4 9 15q-2 13 2.5 23.5t6.5 21.5l6 10t1 12q-1 5 -4.5 8t-8.5 2q-15 -5 -28.5 -13t-29.5 -13h-32q-23 -1 -43.5 -8t-42.5 -10l-3 2q2 11 4.5 20t10.5 16q8 22 14.5 43.5t17.5 41.5q8 7 15.5 11.5t15.5 13.5q2 5 4.5 12.5 t-1.5 12.5t-15 5q-21 -8 -45 -7t-46 0l-13.5 -2t-10.5 -6q-6 -11 -6 -25q0 -13 5 -24q4 -14 12 -25.5t10 -26.5q-13 -15 -15 -34t-7 -38q-8 0 -13.5 4.5t-10.5 7.5q-29 -3 -59 -2.5t-55 14.5q-2 4 -5 7.5t-10 2.5q-13 -4 -16.5 -15.5t-8.5 -21.5q-7 -11 -15 -21t-13 -21z " />
<glyph unicode="," horiz-adv-x="190" d="M21 28q-1 -13 1.5 -26t15.5 -20q15 -10 31.5 -5t30.5 11l1 -1q-6 -17 -16 -36q-6 -11 -15.5 -19l-19.5 -16t-17 -17.5t-7 -22.5q4 -11 12 -13q7 -2 12.5 0.5t10 7.5t8.5 11t9 11q28 23 48 52.5t34 60.5q11 20 9.5 43t-12.5 41l-13 16q-10 5 -20.5 11t-21.5 -1 q-11 -11 -23.5 -20t-24 -19.5t-20.5 -22t-13 -26.5z" />
<glyph unicode="-" horiz-adv-x="290" d="M35 220q2 -6 6.5 -7t8.5 -1q19 5 36 12.5t35 13.5q28 5 57 3t56 -6q7 -2 12.5 -8.5t13.5 -3.5q10 6 15.5 17t7.5 22q4 6 9.5 11.5t10.5 11.5t7 13t-2 15q-2 7 -8.5 10t-13.5 1q-8 -8 -17 -12.5t-19 -7.5t-20 -5.5t-19 -6.5l-96 -1q-8 3 -12.5 10t-13.5 8q-5 -1 -9 -2 t-6 -6l-14 -38l-25 -33v-10z" />
<glyph unicode="." horiz-adv-x="175" d="M29 46q6 -8 5.5 -17t-0.5 -17q4 -7 11 -12t16 -5q22 0 40 21q11 2 18.5 11.5t15.5 18.5q10 14 15 34.5t-6 37.5l-8 11q-16 7 -33.5 3t-30.5 -16q-17 -14 -30.5 -31t-12.5 -39z" />
<glyph unicode="/" horiz-adv-x="493" d="M1 -101q2 -5 5 -10t9 -6q11 -6 20 1t18 13q14 8 30.5 6t31.5 0q16 8 19 23.5t9 29.5q8 39 26 74t34 71q11 20 23 39.5t20 41.5l86 104.5l87 101.5q27 32 51 65.5l48 67l49.5 66t55.5 61.5q7 8 17.5 15.5t19.5 16t14.5 18.5t2.5 23l-3 4q-17 7 -34 2t-31 -11 q-9 -4 -17.5 -2l-17 4t-17.5 2q-8 0 -16 -7q-10 -16 -13 -35t-16 -34l-148.5 -221l-153.5 -219q-6 -17 -16.5 -33t-22.5 -31q-23 -34 -49 -66l-52 -64l-16.5 -26.5t-19.5 -26.5q-11 -14 -22.5 -26.5t-10.5 -31.5z" />
<glyph unicode="0" d="M25 262q-1 -47 8 -87q-6 -65 36 -113q3 -9 11 -17q8 -5 14.5 -12l12.5 -14t13.5 -11t18.5 -1q14 6 31 3.5t30 4.5q38 17 71 44t59 59q13 14 17.5 29.5t12.5 29.5l33 48t24 52q6 11 8.5 23.5t4 25t4.5 24.5t11 23q9 16 10 35t-2 37l35 22.5l36 23.5l27.5 25.5t16.5 32.5 q0 4 -3 2.5t-5 -0.5q-27 -14 -53 -31.5t-52 -32.5q3 24 -4 46.5t-27 36.5q-2 8 -4.5 14.5t-7.5 11.5q-9 7 -20.5 4t-21.5 0q-13 -4 -26 -4.5t-27 -2.5q-42 -11 -78.5 -33.5t-71.5 -48.5q-11 -12 -24 -23.5t-18 -27.5q-23 -27 -44.5 -55t-35.5 -59q-19 -37 -20 -84zM129 173 q2 13 1 29t10 26q7 29 12.5 58t17.5 55q9 19 17 39t25 36l39 67t54 58q-9 -19 -14 -42t5 -44q4 -7 6 -15l4 -16t6 -15t12 -11q13 -4 25 -2t23.5 6.5t22.5 9.5t22 8q1 -14 -3 -25.5t-9 -23t-8.5 -23.5t-2.5 -25q-8 -37 -27.5 -69.5l-39.5 -64.5q-19 -22 -33 -46t-37 -43 q-18 -18 -39 -30.5t-44 -20.5q-14 -2 -23 5q-18 25 -19.5 56t-2.5 63zM333 482q-3 17 1.5 33t12.5 30q7 8 16.5 10t18.5 1q13 -7 19 -18t11 -22q6 -11 5 -25.5t0 -26.5q-15 -8 -30 -15t-32 -10q-15 3 -16.5 17t-5.5 26z" />
<glyph unicode="1" d="M61 312q0 -3 4 -5q7 -5 17 -4t18 3q10 1 19 5.5t17.5 10t17 9.5t19.5 4q8 2 13.5 4.5t12.5 4.5q19 10 36 23l34 27l6 2q-7 -14 -12.5 -28l-11.5 -29q-7 -17 -16 -32l-17.5 -30.5t-15.5 -32t-8 -35.5q-36 -47 -63.5 -95.5l-54.5 -98.5l-4 -14t0 -15q5 -11 17 -7 q25 16 56 18q17 -3 35.5 -0.5t34.5 -2.5q10 2 14.5 10.5l8.5 16.5q11 42 26.5 82.5t35.5 78.5q11 14 18 29.5t13 31.5l11.5 32t13.5 31q8 28 22 54t26 52q11 18 18.5 38l15.5 40.5t18 39.5t25 36q5 10 12.5 20t2.5 22q-5 8 -13 8.5t-14 -3.5l-61.5 -57l-63.5 -57 q-18 -9 -35 -22t-33 -27l-32 -27.5t-33 -25.5q-20 -12 -41.5 -22t-44.5 -18q-14 -5 -27 -8.5t-24 -16.5q-3 -3 -7 -5t-5 -7q-1 -4 -1 -8z" />
<glyph unicode="2" d="M9.5 31q0.5 -11 8.5 -17q8 0 15 -3.5t14 -7.5t13.5 -8.5t14.5 -5.5q12 -3 22.5 -0.5t20.5 8.5t18.5 14t17.5 15l21.5 17t23.5 16q5 6 11.5 7.5t13.5 0t13.5 -4.5t12.5 -5l9 -14q19 -17 39.5 -31t46.5 -19q12 2 22 8.5t23 7.5q29 9 47.5 36.5t22.5 57.5q0 20 -15 28 q-1 2 -6 -1q-5 -19 -13.5 -35t-20.5 -33q-18 -20 -45 -20q-8 2 -14 5.5t-10 11.5l-26 72l-13 22q-2 11 5 18t12 15q5 1 9 3t9 4l63 46.5t57 55.5q8 8 13 18t15 17q29 24 36.5 60t-1.5 71q-6 19 -21.5 33.5t-25.5 32.5q-5 11 -13.5 16.5t-19 8t-21 4t-20.5 4.5 q-17 0 -33 -4.5t-31 -11.5q-18 -4 -36 -9.5t-34 -16.5q-14 -7 -21.5 -17.5t-13 -22.5t-9 -24.5t-9.5 -23.5q-6 -16 0 -30q1 -6 9 -8q7 0 11 4q9 12 15.5 25l13.5 26t16 24.5t21 20.5q7 5 15.5 7t17.5 3.5t17 4.5t15 9q6 2 13 2.5t12 -1.5q12 -5 11.5 -17t2.5 -22 q-5 -46 -19 -87.5l-28 -84.5q-9 -16 -14 -33t-16 -32q-19 -6 -30.5 -22l-22.5 -31q-3 1 -6 4t-5 6q-12 8 -26.5 11.5t-30.5 3.5q-15 0 -30 -3.5t-27 -10.5q-32 -17 -60.5 -41.5t-51.5 -54.5q-1 -14 -7.5 -26.5t-11.5 -25.5q-2 -9 -1.5 -20zM54 56l13 29.5t22 25.5 q11 5 20.5 13t20.5 13q15 -5 26 -20t22 -28q-17 -11 -34 -27.5t-36 -27.5q-10 1 -21 -1.5t-18 5.5q-4 5 -10 8.5t-5 9.5z" />
<glyph unicode="3" d="M47.5 64.5q2.5 -7.5 7.5 -14.5q10 -24 32.5 -40t46.5 -21q10 -2 18.5 0t16.5 5l16.5 6.5t17.5 3.5q14 2 27 7.5t26 12.5l25.5 13.5t26.5 10.5q40 8 75.5 34t49.5 65q8 10 17 18.5t13 19.5q8 18 7.5 35.5t-6 34t-15 31.5t-19.5 29q-10 13 -23.5 24.5t-15.5 27.5l25 19 q5 5 12 8t13 10q16 34 8.5 73.5t-29.5 67.5q-6 8 -13.5 16.5t-18.5 13.5q-20 10 -43 6.5t-45 -5.5l-47.5 -32l-47.5 -31q-8 -7 -17.5 -13t-18 -13t-14.5 -15.5t-6 -20.5q3 -9 12 -14q8 -4 13.5 0t10.5 8q9 13 21 22.5t24.5 17t25.5 14.5t25 16q14 3 26.5 7.5t26.5 4.5 q5 -1 7.5 -5t4.5 -8q10 -42 -5.5 -80t-47.5 -61q-20 -17 -44 -20t-47 -8q-11 -10 -24 -18t-17 -22q0 -13 10 -17q10 -2 20.5 2t19.5 7q9 6 18 6.5t18 0.5q10 0 19.5 0.5t17.5 6.5q16 4 30 0.5t29 -0.5q9 -5 14 -16q-6 -6 -9 -12.5t-8 -13.5q-11 -29 -18 -58t-16 -58 q-10 -17 -16.5 -35t-25.5 -27q-16 -8 -31.5 -19.5t-31 -21.5t-33 -15.5t-38.5 -0.5q-15 4 -26 17t-15 27q5 15 13 27.5l16 25.5q-6 4 -13.5 7.5t-15.5 -0.5q-15 -10 -25.5 -25t-15.5 -32q-3 -9 -0.5 -16.5z" />
<glyph unicode="4" d="M36 193q5 -11 15 -14q2 -2 4 -1t4 0q11 5 24.5 1t24.5 -2q23 4 45 10.5t46 8.5q9 0 19.5 2t19.5 0l-11 -32q-14 -19 -24 -39.5t-18 -42.5q-11 -19 -24.5 -37l-27.5 -36q-4 -11 4 -18q8 -8 21 -7.5t23 4.5q16 1 31.5 5t29.5 8q11 0 22.5 -1.5t19.5 6.5q12 12 10 31 q1 18 9.5 33t14.5 32q6 7 8 15.5t2.5 17.5t1.5 18t6 16q4 6 5 13.5t6 12.5q15 4 31 1.5t28 -12.5q23 -10 41 1.5t34 26.5q5 9 5 21t-2 22q-8 1 -13.5 -2t-10 -8t-8.5 -10.5t-10 -9.5q-11 -3 -20 2.5l-18 10.5l-45 3q2 8 3.5 17.5t4.5 20.5l38 109.5t36 111.5q3 11 8.5 21.5 t9.5 21.5t5 22.5t-4 23.5q5 9 12.5 16.5t4.5 18.5t-12.5 8t-14.5 -9q-23 -29 -51.5 -54.5t-49.5 -56.5q-38 -32 -71 -69t-70 -70q-18 -19 -37.5 -34.5l-39.5 -30.5l-39.5 -31t-36.5 -37q-7 -12 -14.5 -23t-4.5 -26zM96 224l1 5l26 25t30 17l60.5 56l59.5 55q12 19 28 32.5 l33 27.5q-7 -20 -10.5 -42t-13.5 -40q-12 -29 -28.5 -57t-24.5 -59q-10 -2 -18 -2h-18q-24 -6 -49.5 -8.5t-46.5 -16.5q-8 -2 -16 -0.5t-13 7.5z" />
<glyph unicode="5" d="M31.5 80q0.5 -11 3 -21.5l4.5 -19.5q11 -16 27 -28t30 -24q5 -3 10.5 -3.5t10.5 0.5q20 10 44.5 10.5t47.5 8.5q42 19 82.5 44.5t66.5 68.5q5 16 17 28t18 27q20 38 24 85t-6 90q-5 16 -15.5 29.5t-24.5 23.5t-30.5 16t-32.5 8q-14 -3 -28 -3q-13 0 -27 2 q-11 -1 -20.5 -5.5t-18.5 -9.5l-18.5 -10t-19.5 -7q1 4 3.5 8t4.5 8q23 31 37 65.5t36 66.5q8 6 18.5 6.5t21.5 2.5q38 -7 76.5 -4.5t70.5 22.5q12 8 26.5 9.5t25.5 12.5q4 7 4 16t-3 16l-10.5 11t-13.5 3q-9 -12 -20.5 -17.5t-24 -8.5t-26 -5t-25.5 -6q-17 2 -31.5 10 t-29.5 14q-5 2 -7 6t-7 6t-8.5 0t-8.5 -4q-33 -10 -53.5 -39t-24.5 -62q-11 -16 -20.5 -32.5t-15.5 -35.5q-20 -22 -33 -46t-21 -50q-2 -12 0.5 -23.5t12.5 -18.5q10 -5 18 -2t15 9t13.5 12.5t14.5 8.5q31 21 64 29q6 -6 13 -6h15q18 -7 22.5 -24.5t4.5 -34.5 q-30 -120 -103 -227q-7 -8 -10.5 -17.5t-12.5 -16.5q-15 -11 -31 -15t-33 -11q-12 5 -22.5 15.5t-17.5 21.5q-7 29 -1 56t22 49q0 2 0.5 4.5t-1.5 4.5q-20 -5 -33.5 -22.5t-24.5 -34.5q-7 -8 -9 -18.5t-1.5 -21.5z" />
<glyph unicode="6" d="M35 181q-1 -16 0.5 -31t6.5 -29t17 -25q5 -24 25.5 -40l38.5 -30q37 -24 81 -33l48 9.5t43 19.5q10 2 20 3t19 4q17 5 29.5 16t23.5 25l11.5 8t9.5 9q21 29 33 62.5t17 70.5q1 35 -5 68t-23 61l-19.5 21.5l-19.5 21.5q-8 5 -18 8.5t-19 -2.5q-69 -2 -125 -28l-1 1 q29 57 71 106q17 20 37 34q13 -3 21.5 2.5t17.5 13.5q11 11 26 11q16 0 30 -6q11 -5 15.5 -16.5t6.5 -22.5q0 -2 -1 -4.5t2 -3.5q9 -2 17.5 3.5t14.5 13.5q4 8 2.5 16t-5.5 15q-7 14 -17.5 22t-23.5 12t-27 4.5t-28 -0.5q-29 -1 -56 -10l-53 -17q-33 -17 -62 -42l-58 -51 l-39 -44.5t-32 -48.5q-5 -14 -14.5 -27t-5.5 -30l-18 -43.5t-12 -45.5zM140 107q0 35 7.5 68t16.5 65q9 18 15.5 38t26.5 34q26 19 54.5 30.5t60.5 13.5q5 2 12.5 1.5t10.5 -8.5q15 -38 12.5 -73t-14 -69t-27.5 -67t-28 -65q-8 -6 -15.5 -13t-15 -13t-16 -10t-19.5 -4 q-10 -2 -18.5 1t-17 7.5t-17 8.5t-17.5 5q-9 10 -9 23t-2 27z" />
<glyph unicode="7" d="M39 460q0 -7 4 -12q8 -2 14.5 4t12.5 11q18 17 21 36q8 20 26.5 31t37.5 17q5 -5 11.5 -8t13.5 -7q31 -14 64 -23.5t67 -8.5q4 0 9.5 0.5t9.5 -1.5q-11 -12 -19.5 -24t-16.5 -25q-54 -60 -96 -125.5t-74 -135.5q-5 -26 -16.5 -48.5t-25.5 -45.5l-28 -73q-2 -8 -4 -18 t5 -17q11 -9 24.5 -3t25.5 8q11 1 24 0t22 1q9 10 22 18t13 23q4 35 18.5 64t22.5 61q13 20 21 41t19 41q26 60 55.5 117t67.5 111q17 20 36 38.5t34 38.5q11 10 24 16t17 21q1 9 -3 17q-5 4 -10.5 4.5t-12.5 0.5q-36 -11 -68 -24q-26 -11 -53 -19.5t-56 -10.5 q-30 5 -57.5 16t-53.5 25q-15 9 -29.5 2t-26.5 -15q-11 -8 -24 -12.5t-23 -17.5l-24 -36.5t-19 -38.5q-2 -6 -2 -14z" />
<glyph unicode="8" d="M77 145q-5 -30 1 -59.5t22 -53.5q2 -7 4.5 -13t7.5 -11q7 -3 13 -7.5t12.5 -8.5t13.5 -7t15 -1l87 24q20 17 42 24.5t43 19.5q56 33 84 88q9 15 11.5 31t2.5 33q0 18 -1.5 35.5t-1.5 34.5q-11 26 -32.5 43t-39.5 37l28.5 24t29.5 22q14 16 24.5 34t8.5 40q2 31 -13.5 55 t-33.5 47q2 5 2.5 11t-2.5 11q-1 4 -4.5 5.5t-7.5 2.5q-9 -2 -18.5 -1t-18.5 3t-18 4.5t-18 2.5q-15 -5 -27.5 -14.5t-25.5 -17.5q-19 -14 -37 -30t-25 -38q-8 -29 -14 -61t-1 -64q3 -26 23 -44l39 -34q-27 -14 -53.5 -29.5t-49.5 -40.5q-26 -16 -48 -41t-24 -56zM168 38v10 q14 43 20 88.5l12 91.5q18 22 41 33.5t43 28.5q5 -2 8 -5.5t8 -4.5q11 -8 21.5 -17t8.5 -23q0 -11 2 -21l4 -19.5t2.5 -19.5t-3.5 -20q-10 -23 -23 -46t-31 -43q-25 -14 -50 -26t-54 -15q-5 0 -9 8zM266.5 473q4.5 15 1.5 30q2 20 14.5 36.5t26.5 29.5q7 6 15 6t15.5 -2.5 t15 -6l14.5 -6.5q7 -11 16.5 -21.5t16.5 -21.5t10 -24t-1 -28q-2 -15 -10.5 -26t-20 -20t-23.5 -17.5t-22 -18.5q-17 14 -32.5 30l-32.5 32q-8 13 -3.5 28z" />
<glyph unicode="9" d="M48 12q2 -7 8 -7t11 -2q28 1 51.5 9.5t49.5 14.5q40 17 78 43t69 59q29 23 53.5 54t43.5 63q7 8 11 18t7.5 20l7 20t10.5 18l12.5 32.5t9.5 35.5t1.5 35.5t-10.5 33.5q2 29 -6 57t-32 46q-12 6 -22.5 13.5t-18.5 19.5q-9 4 -18.5 4.5t-17.5 5.5q-11 4 -20.5 -1.5 t-18.5 -8.5q-16 2 -27 -5t-24 -11q-21 -6 -40 -18t-35.5 -28t-31.5 -33.5t-28 -35.5q-10 -17 -12.5 -36t-0.5 -38t8 -38t14 -35q12 -24 32 -44t43 -33q9 -5 18 -5q10 0 19.5 2t19.5 4.5t20 2.5q2 -3 2.5 -8t0.5 -10q-5 -29 -21.5 -56t-40 -49.5t-51 -39t-54.5 -25.5 q-9 -5 -18.5 -9l-19.5 -8.5t-18 -11t-14 -15.5zM218 318q-3 20 1 37t4 36q2 23 7 43.5l10 41.5q10 23 23.5 45.5t36.5 36.5q12 2 23.5 6t24.5 2q8 0 13 -10q0 -11 10 -15t14 -13q-2 -54 -8 -106t-24 -100q-8 -13 -21.5 -19t-25.5 -12q-18 -7 -36.5 -12.5t-37.5 -3.5 q-8 9 -9 20.5t-5 22.5z" />
<glyph unicode=":" horiz-adv-x="253" d="M51 47q5 -14 14 -29.5t26 -17.5q14 4 27.5 3t24.5 10q12 11 10.5 26t0.5 29q0 6 2.5 12.5t4 13t1 12.5t-5.5 11q-8 7 -18.5 5.5t-18.5 -6.5q-10 2 -18.5 -3.5t-16.5 -11.5q-10 -14 -22 -25.5t-11 -28.5zM112 270q1 -16 12 -28q6 -5 15.5 -5.5t18.5 1.5q7 3 14.5 8t16.5 7 q8 11 18.5 21t9.5 24q-3 7 -2 13.5t3 12.5t3.5 12.5t-0.5 13.5q-6 14 -22 17q-15 -2 -28.5 -10t-25.5 -19q-6 -9 -14.5 -18.5t-14.5 -19.5q-5 -14 -4 -30z" />
<glyph unicode=";" horiz-adv-x="268" d="M57 29q1 -12 10 -20t22.5 -9.5t24.5 5.5q6 3 12.5 5.5t11.5 9.5q-5 -14 -6.5 -30t-11.5 -29q-13 -9 -23 -22.5t-26 -14.5q-8 -4 -11 -11.5t-2 -15.5q2 -5 6 -8t8 -5q20 0 36 14q7 10 16 18t19 15q21 18 28 42.5t19 47.5q13 16 15 38t-6 42q-9 7 -17.5 15.5t-19.5 11.5 q-24 4 -44 -5t-34 -28q-3 -13 -12.5 -21.5t-11.5 -21.5q-4 -11 -3 -23zM118 253q3 -10 9.5 -19t16.5 -13q29 -5 52 10t40 35q7 8 9.5 19.5t-2.5 21.5q-2 12 -0.5 26.5t-10.5 24.5q-15 9 -32.5 4.5t-29.5 -13.5q-26 -16 -41 -40t-11 -56z" />
<glyph unicode="&#x3c;" horiz-adv-x="287" d="M32 187q6 -10 14.5 -15.5t18 -10t18.5 -10t16 -15.5q23 -21 47 -36.5l50 -31.5q8 -5 14.5 -15t18.5 -8q8 5 8.5 12.5t0.5 15.5q2 8 3.5 17.5t-1.5 19.5q-1 7 -8 7t-12 -1l-37 19q-15 1 -28 7.5t-25 14t-23.5 16t-24.5 14.5l-1 2q34 21 69 37t66 42l26 8q12 7 11 19 q-4 12 -3 25t1 24q-1 5 -5 5h-8q-13 -7 -22 -19t-22 -20q-29 -9 -52.5 -30.5t-48.5 -41.5q-14 -9 -26.5 -19.5t-29.5 -12.5q-2 -4 -4.5 -8t-0.5 -11z" />
<glyph unicode="=" horiz-adv-x="373" d="M36 207.5q-1 -4.5 3 -6.5q12 -5 23 -0.5t22 9.5q38 11 80 12.5t80 -8.5q8 2 12 9.5l7 13.5q2 5 6.5 9.5l8.5 8.5t6 9t1 11q-3 10 -14 6q-20 -2 -38.5 -6t-39.5 -4q-17 -2 -36.5 0.5t-33.5 -5.5q-6 -2 -11.5 0t-10 5t-9.5 6t-11 3q-11 -2 -15 -9q-7 -14 -15 -27.5 t-13 -28.5q-1 -3 -2 -7.5zM89 323q2 -3 6.5 -3.5t7.5 -2.5q7 -2 12 0t10 5.5t10.5 6t11.5 1.5q28 5 54.5 2.5t53.5 -2.5q5 4 10.5 4.5t11.5 -1l11.5 -3t11.5 -1.5q9 2 13 8q5 13 14 24t7 25q-4 5 -10 6.5t-13 1.5q-38 -11 -82.5 -15t-83.5 10q-6 1 -11.5 3.5t-11.5 0.5 q-10 -7 -13.5 -18t-6.5 -22q-3 -8 -8 -14.5t-5 -15.5z" />
<glyph unicode="&#x3e;" horiz-adv-x="268" d="M34 48q2 -7 7 -9q5 0 10 -0.5t9 4.5q6 10 14 17.5t17.5 13l19 10.5t18.5 12q25 19 49.5 40.5l49.5 41.5q12 10 12 26q-4 6 -11 8.5t-15 1.5q-34 26 -66 57l-64 60l-10 14t-13 9q-3 1 -7.5 1.5t-5.5 -3.5q-2 -5 -1.5 -10.5t1.5 -10.5q2 -8 1 -16t-2.5 -15.5t-1 -15 t5.5 -14.5q5 -4 11 -4t13 -1q16 -6 30.5 -16l29 -20.5l29 -20.5t30.5 -17q-29 -23 -59.5 -42t-62.5 -33q-7 0 -15 4t-14 -4q-8 -4 -6 -14q6 -15 2 -28t-5 -26z" />
<glyph unicode="?" horiz-adv-x="451" d="M41 52q-4 -16 0.5 -29.5t13.5 -25.5q11 -9 21.5 -3t20.5 9q14 -1 24.5 7.5t18.5 20.5q4 9 11 17.5t12 17.5t7 19t-3 22q-8 17 -27.5 19.5t-34.5 -5.5l-38.5 -29t-25.5 -40zM84 199q-2 -11 6 -19q9 -6 18.5 -2t17.5 6q16 0 33.5 -2t31.5 6q14 10 17 25.5t5 31.5 q11 26 33.5 42.5t47.5 25.5l21 1q20 8 38 22t35 30q13 14 22.5 31t15 35t5.5 37q0 20 -7 39q-5 18 -20 35t-35 19q-17 13 -36.5 17t-40 1.5t-40.5 -8.5t-37 -13q-20 -7 -35.5 -22t-30.5 -32t-25 -36.5t-19 -39.5q-2 -10 -1 -20t9 -17q4 -7 11 -5.5t14 0.5q9 2 13.5 10.5 t7.5 16.5q-1 6 -4 12.5t-9 8.5q13 28 35.5 55t51.5 38q13 3 27 7.5t28 6t27 -1t25 -12.5q9 -16 7 -38q-8 -37 -22 -70t-39 -62q-9 -9 -20 -14t-22.5 -9.5t-22 -9.5t-19.5 -15l-35.5 -19.5t-35.5 -24t-29.5 -30t-17.5 -37.5z" />
<glyph unicode="A" horiz-adv-x="664" d="M27.5 86q0.5 -15 5.5 -29t13 -27l16 -25q21 -26 50 -18q27 -4 48.5 10.5t40.5 34.5q54 62 115 118q14 -5 28.5 -7t28.5 -6q13 -12 32 -11t36 -1q5 -1 11 -1t11 -2l-17 -28q-6 -20 -18.5 -35.5t-23.5 -32.5q-4 -8 -7 -18.5t5 -18.5q7 -7 16 -3q15 8 33 8t35.5 1t33 6 t25.5 22q15 9 22.5 22.5t13 28t10 29t12.5 27.5q47 11 77 52q3 3 4 8t5 9q0 5 2 10.5t0 11.5q-17 -11 -33 -23t-35 -19v2l4 13.5t7 14.5q8 25 19 48.5l23 48.5q15 39 35.5 75.5t36.5 75.5q14 22 24.5 46t18.5 49q8 14 20 25t22 24q2 7 1 14t-3 13q-6 5 -18 5 q-20 -2 -38 -10.5t-33 -21.5q-32 -8 -60 -25.5l-57 -34.5q-7 -5 -15 -7.5t-14 -7.5q-42 -35 -84 -65t-80 -71q-44 22 -91 22q-27 0 -48 -13.5l-42 -27.5q-14 -12 -22.5 -29t-5.5 -34q4 -9 6.5 -18t7.5 -19q-1 -11 2 -20t8 -18t10.5 -17t10.5 -17q5 -6 9.5 -12t7.5 -13 l-54.5 -56l-53.5 -56l-23 -23t-28 -13q-8 1 -16 4t-13 11l-13 17.5t-11.5 20t-5.5 21.5t4 22q2 6 6.5 10t2.5 12q-2 5 -9 3q-14 -1 -23.5 -10.5t-14.5 -20.5q-6 -15 -5.5 -30zM264 306q-5 10 0 19q11 16 26 23t30 15q10 5 21 5.5t21.5 -2.5t20.5 -8t19 -10 q-23 -31 -44 -64.5t-44 -64.5h-3l-18.5 23.5t-14.5 24.5q1 11 -5.5 20t-8.5 19zM345 191l3 8q24 31 44 63.5t43 64.5q29 -20 42.5 -47.5l27.5 -55.5l4 -18l-23 -44q-20 2 -39.5 2.5t-39.5 5.5q-6 6 -14 8t-16.5 3t-16.5 3t-15 7zM466 362q29 41 70.5 72.5l79.5 60.5 q8 7 17 10t18 9q11 5 20.5 12.5t20.5 10.5l-2 -4q-22 -31 -36 -65t-34 -66q-10 -19 -19 -38.5t-23 -36.5l-21 -33.5l-20 -33.5l-30.5 53t-40.5 49z" />
<glyph unicode="B" horiz-adv-x="712" d="M21 36q1 -15 5.5 -30.5t18.5 -25.5q14 -11 34 -14t37 5l36.5 15.5t34.5 18.5q19 8 39 19t27 34q25 20 44 44.5t34 50.5t27 53.5t25 54.5q28 46 49 95t39 100q23 34 49 66t62 55q4 4 10 7t6 11q9 -5 17.5 -10.5t18.5 -9.5q0 -27 -0.5 -55.5t-2.5 -57.5q-1 -27 -19.5 -46.5 t-38.5 -38.5q-17 8 -36 3t-36 -10q-14 2 -28 -1t-21 -16q-6 -25 13 -42q16 -6 31.5 1t30.5 12q2 0 4.5 1.5t5 2.5t4.5 0.5t3 -4.5q8 -13 17.5 -25.5t12.5 -29.5q2 -39 -4 -75.5t-19 -71.5q-2 -7 -7.5 -12t-11 -9.5t-9.5 -10t-4 -13.5q-8 -5 -16 -9.5t-16 -9.5l-25.5 -13 t-28 -11.5t-29 -5t-29.5 5.5q-8 4 -9.5 11t-1.5 14q0 8 -1.5 14.5t-10.5 9.5q-12 2 -17.5 -8t-12.5 -17q-5 -11 -4.5 -23.5t7.5 -22.5q11 -17 27.5 -21.5t34.5 -3.5t36.5 5t33.5 6q17 7 33 15t36 12q29 10 56 29.5t45 48.5q47 36 56 92q-1 44 -15 83.5t-34 76.5 q15 11 31.5 19t31.5 19q6 0 11 2.5t10 6.5q15 19 17.5 44t-0.5 49q0 37 -17.5 68.5t-50.5 52.5l-26 18q-15 13 -36.5 13.5t-41.5 -2.5q-63 -11 -120.5 -34.5t-108.5 -63.5q-14 -5 -26.5 -11.5t-24.5 -13.5l-22 -15.5t-21 -18.5q0 -5 1.5 -10.5t7.5 -9.5q5 -3 11 1 q21 15 43.5 27t45.5 23q79 57 178 78q13 2 27 3.5t28 -2.5q-47 -12 -90 -43h-2q-26 -17 -52 -36t-46 -42q-34 -18 -59.5 -49.5t-32.5 -68.5q-8 -24 -12 -48t-11 -48q-20 -47 -42.5 -91.5l-45.5 -91.5q-14 -29 -42 -49.5t-61 -20.5q-9 0 -14.5 5t-8.5 12.5t-4.5 15.5t-4.5 15 q-5 3 -10.5 4.5t-10.5 -0.5q-8 -5 -10 -11.5t-2 -14.5z" />
<glyph unicode="C" horiz-adv-x="391" d="M17.5 276q-0.5 -23 1 -46.5t2.5 -45.5q5 -23 8.5 -47t13.5 -46l27.5 -38t31.5 -35q12 -11 28 -15.5t33 -4t33 5t30 10.5q16 1 29.5 6.5t26 14l24.5 17.5t25 17q11 9 18.5 19t18.5 17q17 23 30 48t15 53q0 7 0.5 12.5t-3.5 10.5q-8 -5 -11 -13t-8 -16q-15 -42 -51 -77.5 t-74 -58.5q-5 -2 -7 0q-9 -2 -17 -6.5t-16 -7.5q-11 -3 -25 -6t-28 -2.5t-26.5 4.5t-20.5 14q-20 31 -21 71.5t19 72.5q1 29 12 53.5t24 48.5q17 12 23 30t16 34q14 16 24.5 34l21 36t22 35.5t26.5 32.5q6 7 14 11.5t16.5 8t16 8t13.5 13.5q17 5 36.5 0.5t36.5 0.5l19 -5.5 t19 -3.5q14 -1 24 -11.5t15 -21.5q4 -7 2.5 -13t-5 -11.5t-8 -11t-6.5 -11.5q-3 -8 1.5 -13.5l9.5 -11.5q3 -3 8 -3.5t9 -0.5q7 2 10.5 8t5.5 11q-3 14 5 24.5t9 24.5q2 19 -8 35t-24 28q-14 6 -26 13.5t-28 5.5q-7 -2 -11.5 2.5t-11.5 3.5q-23 3 -45 2.5t-45 0.5 q-14 -3 -28.5 -5.5t-26.5 -11.5q-53 -12 -100 -38t-86 -68q-27 -20 -45 -47t-27 -57q-8 -20 -11 -42.5t-3.5 -45.5z" />
<glyph unicode="D" horiz-adv-x="753" d="M7 27q3 -12 10.5 -20t17 -13.5t20 -10l19.5 -8.5q11 -4 20.5 -2t18 6.5t16 11t15.5 12.5q16 14 30 28.5t29 26.5q14 -18 27 -38t34 -34q9 1 17.5 -2.5l16.5 -7t16.5 -6t18.5 -0.5q15 3 30.5 3.5l31.5 1t30.5 4t27.5 14.5q43 11 79.5 35.5t76.5 46.5q9 6 14.5 14l11 16.5 t12 16.5t15.5 15q38 40 53 89t18 105q1 6 0 10.5t-2.5 8.5t-3 8.5t-0.5 9.5q-8 22 -15.5 46t-18 46.5t-26.5 41.5t-40 31q-6 13 -16.5 20t-22 12t-23.5 9t-22 12q-21 13 -43 23.5t-46 15.5q-45 3 -83.5 -9.5t-74.5 -32.5q-17 -11 -32 -24.5t-19 -33.5q1 -7 4.5 -13t10.5 -8 q6 0 13 1t10 8q5 7 6.5 15t7.5 13q20 12 43 22t47.5 15.5t50 5t49.5 -8.5q23 -18 47.5 -33t47.5 -35l11.5 -11.5t6.5 -14.5q5 -17 11.5 -32t9.5 -32q2 -40 -2 -79t-15 -74q-11 -7 -13.5 -17t-7.5 -19q-15 -43 -43 -80l-58 -73q-7 3 -11.5 -1t-9.5 -6q-25 -26 -53.5 -40.5 t-61.5 -20.5q-8 0 -17 -1t-14 5q-13 17 -15.5 37.5t-7.5 40.5l-10 22t-13 22q75 85 94 194q19 40 42 77.5t42 77.5q2 20 15.5 36t30.5 28q3 4 7.5 4.5t5.5 5.5q-11 4 -21 1q-18 0 -33 -8t-28.5 -19.5t-26 -24.5t-25.5 -23q-6 -2 -10.5 -6t-9.5 -9l-46.5 -60.5l-46.5 -60.5 q-19 -42 -30 -86t-17 -90q-53 8 -95.5 -17.5t-75.5 -65.5q-8 -17 -20.5 -29t-13.5 -31zM53 32q9 25 30.5 48.5t50.5 28.5q23 5 41 -15q1 -8 -5 -13.5t-11 -11.5q-14 -16 -30 -31t-33 -26q-10 -4 -19 1t-17 8q-3 2 -4.5 5t-2.5 6z" />
<glyph unicode="E" horiz-adv-x="436" d="M15.5 77q1.5 -17 7 -33t17.5 -28q16 -8 30.5 -17t31.5 -14q21 -9 44.5 -4t41.5 15q23 14 47.5 22.5t46.5 24.5l1 2q7 1 13 7l57 34.5t54 38.5q9 10 20.5 14t19.5 15q11 17 18.5 34.5t9.5 37.5h-2q-13 -9 -22.5 -19.5l-19.5 -21.5l-61.5 -44.5t-63.5 -37.5 q-23 -11 -42.5 -26.5t-43.5 -18.5q-9 -2 -17.5 -6t-17.5 -7t-18 -4.5t-18 0.5q-8 16 -8 35q0 20 3 38q18 43 40.5 82.5l44.5 81.5q18 10 38.5 15t40.5 11q6 8 15 6.5t17 2.5q8 6 16 10.5t15 11.5q7 9 4 19q-7 16 -23 15q-8 -5 -17 -5.5t-18 -0.5q-17 0 -33.5 -1.5t-29.5 9.5 q-2 5 -3 12.5t1 12.5q10 1 17.5 4t15.5 5l54.5 17.5t54 19t50.5 25t45 36.5q19 9 32.5 26.5t23.5 35.5q0 5 2.5 9t5.5 7.5t5 7.5t1 10q0 13 -6.5 24t-18.5 16q-28 11 -60.5 16t-61.5 -2q-23 2 -44 -4t-40 -14q-53 -26 -97 -71t-75 -96q-25 6 -44 28q-6 7 -6.5 15t1.5 16 t5.5 15.5t5.5 14.5q2 9 7 16t5 16q-26 -7 -40.5 -30.5t-22.5 -46.5q-4 -11 3.5 -18.5t9.5 -17.5q8 -18 24 -31t32 -24l3 -4q-4 -11 -3 -23t6 -22q7 -19 24 -28.5t34 -15.5v-2q-20 -11 -41 -19t-41 -21q-38 -24 -64.5 -61t-32.5 -80q-3 -16 -5 -33.5t-0.5 -34.5zM275 444 q7 17 19.5 32t23.5 31q23 29 49.5 55.5t58.5 43.5l39.5 6t37.5 -7l4 -6q5 -9 2 -18t-8 -18q-4 -7 -11 -10.5t-13 -10.5q-18 -20 -39 -34t-43.5 -24.5t-46 -18.5t-46.5 -17q-6 -2 -13 -2.5t-14 -1.5z" />
<glyph unicode="F" horiz-adv-x="558" d="M15 77q5 -20 13.5 -36t22.5 -32q4 -7 10.5 -10t14 -3.5t14.5 -0.5h14q32 -2 60.5 5.5t54.5 25.5q32 10 58.5 34t49.5 51q14 23 26.5 46.5t29.5 44.5l33.5 68l33.5 67q10 3 20 3.5t20 2.5q12 3 26.5 3.5t28 2.5t24 8t16.5 21q2 11 5.5 20l7.5 20q1 5 1.5 10.5t-4.5 7.5 q-10 4 -17 1q-24 -11 -49.5 -18.5t-53.5 -8.5q13 28 28 55.5t38 49.5q14 12 31 14t34 8q10 2 18 8q21 6 40.5 16.5t37.5 23.5q10 7 21 11t15 18q1 9 1.5 18.5t-7.5 15.5q-3 2 -6.5 1t-6.5 -1q-10 -3 -17.5 -10.5t-17.5 -11.5q-21 -20 -47 -29.5t-55 -7.5q-15 4 -30 7.5 t-28 13.5l-16 13q-23 18 -50.5 25t-57 5.5t-58 -8.5t-52.5 -17q-26 -14 -51 -26t-47 -32q-10 -13 -22.5 -24t-12.5 -29q1 -5 5 -9t9 -6q9 -1 17 2.5t14.5 9.5t12.5 13.5l11 13.5q8 8 14.5 15.5t14.5 12.5q15 2 30 7.5t30.5 9t31 4t30.5 -6.5q14 -26 39.5 -35.5l51.5 -18.5 q-10 -14 -22 -24t-23 -24q-23 -14 -40 -34.5l-34 -39.5q-10 -2 -19 -4t-18 -2q-8 5 -16.5 7t-17.5 6l-14 2t-12 -6q-6 -16 -20 -27t-22 -26q-1 -5 -1.5 -9t3.5 -8q10 -6 20 -1t20 8q16 2 33 2.5t34 -0.5q-3 -11 -7 -20.5t-8 -20.5q-7 -35 -21.5 -67t-24.5 -67 q-4 -12 -6 -24.5t-5 -24.5t-8 -22.5t-15 -19.5q-26 -26 -61 -36.5t-71 -8.5q-9 3 -15.5 10t-11.5 15q1 12 -2.5 22.5t-11.5 17.5q-9 3 -17 -1t-15 -10q-6 -6 -4 -15z" />
<glyph unicode="G" horiz-adv-x="611" d="M-42.5 -165.5q-1.5 -9.5 1.5 -20.5q-2 -13 4 -20.5t14.5 -12t18.5 -8t18 -9.5q14 -8 30.5 -5t29.5 9l15 -1q23 6 44.5 15t43.5 20l22 4t21 7q37 25 69 58t60 68q15 20 26 40.5t25 40.5q18 11 37 20t38 19q26 23 55 40t55 38q17 11 32 26t20 35q1 5 3.5 12t-2.5 13 q-4 0 -5 -3q-8 -11 -19.5 -21l-22.5 -19q-23 -17 -47.5 -28t-47.5 -29l-28 -19.5t-31 -15.5l35.5 59.5l35.5 59.5t38.5 57t45.5 53q12 7 25.5 16t11.5 26q-6 7 -13 7.5t-14 -2.5t-14 -7.5t-13 -5.5q-18 2 -32.5 -5t-30.5 -6q-12 -1 -20.5 6.5t-18.5 8.5q-10 -2 -17 -7.5 t-12 -12.5q5 -26 -6 -47l-22 -41q-19 -30 -44.5 -57.5t-55.5 -46.5q-8 -9 -16 -15.5l-17 -13.5q-23 -14 -45.5 -30t-50.5 -21q-10 0 -16 9q-20 18 -28 43t2 51q12 13 18 28l12 29q16 29 29.5 58.5t28.5 58.5q26 7 48.5 17t48.5 18q56 17 105.5 50t94.5 75q16 14 25.5 32.5 t15.5 37.5q3 16 -1 31.5t-15 26.5q-15 16 -34.5 22t-39.5 7q-54 -4 -100.5 -25t-87.5 -57q-29 -17 -55 -39t-51 -48l-41.5 -48.5t-35.5 -52.5q-14 5 -26.5 14t-20.5 23q-1 13 -4 25t-5 24q0 11 3 21t4 21q8 15 20 26.5t23 24.5l42 30q4 2 7.5 5t4.5 8q-1 1 -4 1 q-29 3 -51.5 -11t-43.5 -31q-22 -15 -31 -37.5t-14 -45.5q5 -20 4.5 -39.5t5.5 -37.5q12 -20 31 -35t36 -30q-7 -18 -11 -37l-8 -39q-3 -14 0 -26.5t8 -24.5q-7 -26 -4 -55t12 -55q14 -14 19.5 -31t22.5 -31l16 -16.5t19 -11.5q29 1 53.5 14.5t49.5 24.5q7 5 14.5 9t11.5 12 l26 22.5t27 22.5h1l-28 -51t-31 -49q-27 -11 -57 -17t-58 -15q-10 -8 -21.5 -9.5t-22.5 -6.5l-78.5 -34t-70.5 -52q-4 -9 -9.5 -17t-9 -17t-5 -18.5zM-1 -166.5q3 11.5 9 20.5q7 12 18 20l22 16q31 18 63.5 31.5t67.5 21.5q19 11 40.5 16.5t41.5 13.5q-12 -26 -29 -53 t-38.5 -50t-47 -40.5t-55.5 -24.5q-11 1 -23 -2t-23.5 -4.5t-22.5 0.5t-20 12q-6 11 -3 22.5zM260 387q29 54 63 104t83 94q7 3 12 8t11 8q11 0 21.5 4.5l20 8.5t19.5 5t21 -7q7 -2 12 -8t9 -12q3 -11 1 -20.5t-7.5 -18.5t-12.5 -17.5t-13 -16.5q-46 -44 -98 -73.5 t-109 -47.5q-9 -3 -17 -6t-16 -5z" />
<glyph unicode="H" horiz-adv-x="742" d="M11.5 60.5q2.5 -17.5 2.5 -34.5q4 -11 6 -21.5t9 -20.5q16 -6 34 -7t35 2q8 1 13.5 6t12.5 5q17 -2 28.5 7l23.5 18l24 7q22 16 40.5 31.5t37.5 35.5q15 13 25.5 31t27.5 30q22 29 41.5 57.5t37.5 59.5q3 11 12.5 10.5t16.5 3.5q17 5 35.5 8.5t36.5 6.5q-12 -26 -20 -53 t-10 -56q0 1 -1 1v0l1 -2q3 -18 -2.5 -33.5t-7.5 -32.5q1 -21 3 -42t12 -38q-4 -15 6.5 -27t21.5 -20q11 -11 26.5 -9.5t27.5 6.5q11 4 19 14t20 14q3 5 8 5.5t10 5.5q9 11 20 17.5t23 12.5q15 11 25 23t20 28q19 21 31 46.5t18 53.5q1 4 2 9t-2 9q-3 2 -5 -2l-33.5 -48 l-33.5 -48l-65.5 -58t-71.5 -46q-6 -3 -12 5l-14 32q-2 8 -4.5 14.5t-0.5 14.5l65 124t70 122q49 14 95.5 35t88.5 53q12 11 22 23.5t21 23.5q8 23 11 50.5t-16 47.5q-8 9 -15 19.5t-21 10.5q-5 5 -10.5 8t-10.5 5q-12 5 -23 -6q-10 0 -20.5 -0.5t-19.5 -3.5 q-28 -10 -52 -28t-44 -40q-19 -11 -29.5 -28.5l-21.5 -34.5l-22.5 -23t-19.5 -26q-12 -20 -23.5 -41.5t-19.5 -44.5q-20 -6 -42 -10t-42 -9l-1 1q14 39 34 75.5t30 77.5q10 21 16 43.5t19 42.5q4 11 14 20.5t19 19.5t15 21t2 26q0 7 -9 5q-11 -11 -25.5 -14t-26.5 -14h-14 q-23 -12 -45 -26.5t-45 -27.5t-47 -22.5t-51 -11.5l-60 45q-12 8 -29 8t-32 -1q-13 4 -23.5 -1.5t-20.5 -13.5l-26 -24.5t-24 -26.5t-17.5 -29.5t-6.5 -33.5q2 -7 11 -9q6 -2 11.5 0.5t9.5 7.5q3 9 8.5 16l11 14t10 15t4.5 17q8 11 18.5 19t22.5 10q10 -3 12 -12.5t7 -16.5 t12 -12.5t16 -3.5q6 -2 5.5 -7.5t4.5 -9.5q1 -2 3.5 -1.5t5.5 -1.5l55 3q18 0 33.5 5.5t30 13t28.5 16t29 14.5l-38.5 -60.5t-46.5 -56.5q-23 -32 -39.5 -66l-32.5 -69q-47 -12 -88 -37t-84 -47l-47 -43q-17 -14 -25.5 -31t-22.5 -31q-5 -16 -2.5 -33.5zM53.5 47.5 q-1.5 13.5 0.5 27.5q8 23 25 40.5t32 36.5q6 11 18 16t21 13q27 18 56 30.5t57 28.5q0 -5 -3 -10.5t-5 -12.5q-5 -18 -11 -36t-9 -37q-7 -13 -15.5 -24.5t-15.5 -23.5q-10 -16 -24 -30t-31 -19q-10 -11 -22.5 -14.5t-26.5 -4.5q-8 -5 -17.5 -10t-20.5 -3l-5 5 q-2 14 -3.5 27.5zM685 384q16 35 35 68l38 67q11 14 25 23t23 24q4 2 7.5 3.5t8.5 -0.5q6 -3 10 -7t7 -9t6 -9t8 -7q2 -8 1 -15.5t-1 -15.5q-2 -19 -17 -33l-30 -28q-11 -8 -23 -15t-24 -12l-2 1l-1 -1l-27.5 -12t-27.5 -11z" />
<glyph unicode="I" horiz-adv-x="488" d="M22 84q-5 -18 0.5 -35.5t13.5 -31.5q12 -18 31 -25t38 -12q23 -8 48 -7t46 8q37 14 69.5 39t62.5 54q11 7 20 17.5l17 19.5q9 7 15.5 17.5t14.5 17.5q23 32 41.5 64.5l36.5 65.5q25 42 45.5 83.5t39.5 84.5q19 32 40 64l42 64l34 22q11 8 13.5 22t0.5 28l-3 7 q-9 1 -16 -2t-13 -8l-12 -10.5t-12 -9.5q-20 -7 -38.5 -16t-37.5 -17q-17 -8 -34 -18.5t-38 -11.5q-14 -8 -30.5 -9t-32.5 -3q-6 -1 -11.5 3.5t-7.5 9.5q-5 17 -9.5 34.5t-13.5 32.5q-8 12 -20.5 13l-24.5 2l-56 -26t-53 -32q-8 -4 -14 -11.5t-5 -17.5q-4 -6 -10 -12.5 t-11 -13t-6.5 -14t3.5 -16.5q3 -7 13 -7q11 2 19 11.5t17 14.5q5 7 5.5 15t5.5 13l32 20q17 8 33 17t35 11q5 0 5 -5t3 -7q0 -24 12.5 -45.5t34.5 -32.5q23 -2 43 0t44 3q7 2 14.5 3t12.5 0q-14 -18 -31 -35.5t-32 -35.5q-14 -16 -26 -34t-30 -30q-29 -29 -49.5 -61t-36 -67 t-27.5 -71.5l-24 -72.5l-16 -21q-9 -8 -17 -18t-17 -19t-19.5 -16t-22.5 -8q-26 -5 -51 -1t-43 21q-9 8 -10.5 21.5t2.5 24.5q3 5 8.5 7t8.5 9q4 10 4.5 21.5t-7.5 20.5q-4 3 -8.5 1.5t-8.5 -1.5q-17 -11 -25.5 -27t-13.5 -33z" />
<glyph unicode="J" horiz-adv-x="533" d="M-33 -182q2 -17 12.5 -31.5t26.5 -25.5q1 -4 1 -9t4 -6h-1q4 -10 12.5 -16.5t17.5 -10.5q12 0 23 5t22 12h8q11 5 22 11.5t20 16.5q12 11 20 24.5t24 18.5q31 22 49.5 52.5t33.5 61.5q22 29 41.5 59.5t35.5 62.5l54 42q34 27 70.5 45t70.5 42q19 17 22 43q0 7 -4 6 l-32 -19q-35 -17 -67.5 -37t-64.5 -42v5q11 29 26 54.5t27 54.5q6 11 10 22.5l8 23t10 22t17 18.5q20 24 36 50t30.5 52l29.5 52t33 50q11 17 20 35.5t29 26.5q17 8 25 24.5t6 35.5l-5 7q-9 2 -16 -1t-13.5 -7.5t-12.5 -10t-13 -9.5q-8 -2 -14 -4.5l-13 -5.5 q-12 -9 -26 -15.5l-27.5 -12.5t-26.5 -13t-25 -18q-40 0 -83 -3l-7 6q-8 20 -13.5 41t-20.5 38q-14 7 -26.5 5.5t-24 -7t-23 -13t-22.5 -11.5q-17 -8 -33 -18t-30 -24q-2 -14 -14 -25t-17 -25q-2 -5 0 -10.5l4 -10.5q2 -4 6.5 -6t10.5 0q14 8 25.5 21t15.5 30q24 16 48 30 t53 19q6 -3 7.5 -7.5t1.5 -9.5v-11q0 -5 2 -10q7 -14 17.5 -28t24.5 -23q6 -4 11.5 -3.5t11 2l11 3t11.5 1.5q12 -1 22 1t21 -2q-6 -7 -12 -12.5t-11 -12.5q-28 -35 -51.5 -71t-42.5 -76q-24 -29 -43 -59l-38 -61q-11 -14 -16 -31t-11 -33t-16 -30t-29 -21l-59 -31 t-58 -34.5t-54 -41t-47 -51.5q-14 -29 -25 -60t-13 -66zM10 -163q2 24 12 44.5t16 42.5l71 68q30 19 61.5 36l63.5 34l-23 -68l-22 -69q-20 -32 -37.5 -65.5t-48.5 -60.5q-7 -5 -14.5 -13.5t-17.5 -6.5l-23 -12q-2 4 -3.5 8t-4.5 9q-10 12 -21 24t-9 29z" />
<glyph unicode="K" horiz-adv-x="805" d="M8.5 79.5q-5.5 -29.5 2.5 -57.5q12 -30 40.5 -40.5t57.5 -14.5q41 -2 76.5 9.5t67.5 29.5q49 39 95.5 86t76.5 102q0 3 3.5 3.5t1.5 3.5q19 37 39 72t36 73q23 58 52.5 113.5t53.5 112.5q12 18 25.5 35.5t21.5 37.5q10 10 21 19.5t16 23.5q4 12 -3 23q-2 6 -8.5 7.5 t-11.5 -0.5q-37 -26 -76.5 -46.5t-80.5 -37.5q-9 -3 -19 -7.5t-19.5 -7.5t-20 -3.5t-21.5 4.5q-8 11 -16 24.5t-18.5 24.5t-23.5 17.5t-29 4.5q-40 -9 -73.5 -31.5t-66.5 -48.5q-6 -8 -15 -14.5t-16 -13.5t-10 -15.5t2 -19.5q3 -10 15 -10q14 8 30 19.5t24 28.5l39 32t42 23 q16 5 31 -1t27 -17q5 -5 11.5 -9.5t2.5 -12.5q5 -11 11 -20.5t17 -14.5q26 -4 49.5 1t48.5 9v-1l-47.5 -65l-47.5 -65q-11 -20 -25 -40t-20 -43q-5 -22 -16.5 -41t-17.5 -40l-33 -79t-25 -82q-5 -10 -12.5 -19.5l-14.5 -18.5q-23 -27 -50.5 -46.5t-62.5 -25.5 q-23 -2 -46.5 3.5t-40.5 19.5q-6 7 -11 13.5t-3 15.5q-2 10 5.5 15t12.5 10q5 8 7 17.5t0 18.5q-5 12 -19 14q-4 -2 -7 -4t-7 -4q-22 -20 -27.5 -49.5zM511 59q2 -23 14.5 -40t29.5 -31q5 -5 10 -8.5t12 -1.5q32 7 58.5 25.5t50.5 42.5q31 31 64 60.5t61 64.5q8 14 18.5 28 t9.5 31q-1 4 -6 2l-44 -44l-46 -45q-36 -30 -70.5 -65t-75.5 -57h-5q-2 0 -4 2q-2 8 -0.5 16t2.5 15q7 22 17 43t30 37q29 35 45 76t18 86q1 13 -3.5 24.5t-12 21.5t-16.5 19t-18 17q30 11 56 29.5t52 41.5q12 27 28 51t38 46q6 5 11 11.5t11 12.5t12.5 9.5t14.5 2.5 q5 -14 17 -20q10 -2 18 5t16 15q11 8 13.5 19.5t0.5 22.5l-12 14q-16 8 -36 9.5t-34 -10.5q-17 -15 -33 -31t-30 -35l-37 -40.5t-26 -46.5l-34 -32q-9 -9 -19 -14.5t-20.5 -9.5l-21.5 -8t-21 -10l-8 1q-20 -2 -39 -9t-35 -22q-5 -16 7 -26q14 -5 29.5 -1t29.5 1q9 -5 20 -13 t9 -20q-13 -16 -27.5 -29.5t-28 -27.5t-25.5 -29t-19 -34q-10 -33 -12 -70z" />
<glyph unicode="L" horiz-adv-x="552" d="M17 40.5q2 -31.5 16 -57.5l11.5 -7t14.5 -4q24 2 50 4.5t49 10.5q24 16 45 37.5l41 41.5q11 -14 21 -28t22 -26q11 -6 22 -14t25 -2q2 -3 5.5 -4.5t7.5 -3.5q29 -6 54 2t46.5 24.5t39 38t31.5 42.5q8 12 15.5 25.5t15.5 24.5q8 20 18.5 40.5t9.5 43.5q-1 2 -1 5q0 4 -2 5 l-9 -7q-20 -42 -45.5 -81t-60.5 -75q-16 -12 -32 -27.5t-36 -18.5q-5 1 -10 1.5t-8 5.5q-17 35 -36 68.5t-42 65.5q3 5 4 10t6 9h1v5q17 46 37 90.5t37 91.5q24 11 48.5 20.5t49.5 17.5q32 13 57 39.5l49 52.5q7 13 16 25.5t15 26t7.5 28t-4.5 30.5l-13 14q-16 17 -38 17 h-42q-11 -2 -22.5 -2.5t-20.5 -7.5q-17 -5 -32 -15t-32 -15q-29 -15 -51.5 -41l-44.5 -52q-22 -29 -37 -62l-30 -65q-26 -8 -56.5 -5.5t-51.5 20.5q-11 9 -12.5 21.5t-9.5 23.5q-11 -2 -14.5 -11.5t-7.5 -17.5q-2 -15 6 -29q12 -17 27.5 -26.5t33 -14.5t35.5 -6t35 -1 q-6 -32 -17 -62t-16 -62l-3 -4q-18 -4 -35 -9.5t-35 -10.5q-11 -3 -19 -11t-18 -13q-19 -17 -40.5 -31.5t-33.5 -37.5q-8 -29 -6 -60.5zM56 60q2 13 10.5 22.5l17.5 19.5q14 12 29.5 27.5t32.5 21.5q12 2 19.5 -6.5l14.5 -16.5q-10 -16 -18.5 -32t-19.5 -31 q-16 -11 -31 -24.5t-33 -19.5q-14 0 -16 14t-6 25zM399 430q2 11 5.5 21t4.5 21q22 26 34.5 56t29.5 59q17 18 42.5 22.5t50.5 -0.5l1 -3q5 -1 8.5 -4.5t6.5 -7.5q3 -15 -4.5 -26.5t-13.5 -23.5l-25 -32t-28.5 -29.5t-33 -23.5t-36.5 -14l-21.5 -7.5t-20.5 -7.5z" />
<glyph unicode="M" horiz-adv-x="1043" d="M21 138q-6 -44 11 -85.5t55 -61.5q29 -14 63 -10.5t62 19.5q22 22 42.5 46.5t29.5 52.5q18 21 31.5 44.5t33.5 41.5q9 7 14.5 16t10 18l9 17.5t12.5 16.5q26 26 46.5 55l41.5 58q17 19 35 37t35 37q5 2 9 6.5t7 9.5q10 2 17 10.5t15 13.5l-12 -29.5t-11 -29.5 q-23 -59 -38 -120.5t-24 -125.5l-20 -51.5t-19 -51.5q-2 -10 -7.5 -18.5l-11.5 -17t-10 -17.5t-3 -20q2 -5 5.5 -7.5t8.5 -4.5q11 -2 21.5 3.5t18.5 15.5q22 11 43 25.5t37 37.5q16 26 39.5 47t44.5 43q32 28 56 62q13 20 31 35t34 34q27 40 58 81t71 74l5 1l-34.5 -75.5 t-28.5 -77.5l-45 -80t-34 -84q-8 -25 -2 -49.5t22 -42.5q2 -7 4.5 -13.5t9.5 -12.5q30 -22 65 -8q56 26 108 63.5t89 92.5q6 16 13.5 31t5.5 33q-1 4 -5 2q-34 -58 -87 -99.5t-107 -75.5l-20.5 -10t-22.5 -1q-6 2 -8 7.5t-3 11.5q3 15 15 27t23 25q21 36 38 73t44 70 q22 42 41.5 84.5l38.5 85.5l39 85t45 83q7 9 18 12.5t14 16.5q0 7 -1 13.5t-6 11.5q-6 6 -16 6q-11 -2 -17 -11q-72 -33 -135.5 -88t-122.5 -112q-23 -27 -47.5 -51.5t-41.5 -53.5q-10 -17 -23.5 -32t-27.5 -29t-27 -29t-23 -33q-11 -14 -24 -23t-25 -22q4 14 12 28t11 31 q14 49 29 96.5t34 95.5q6 17 14.5 32.5t13.5 33.5q8 29 16.5 56t19.5 55q4 7 10 14l11.5 14t7.5 14.5t-1 16.5l-10 14q-8 2 -13 -2t-11 -7l-1 1l-21.5 -18t-22.5 -21q-47 -26 -87.5 -62.5t-78.5 -74.5q-5 -8 -12.5 -11.5t-10.5 -11.5q-23 -15 -41 -35t-34.5 -41.5t-31.5 -44 t-31 -43.5q-22 -14 -33 -34l-22 -40q-20 -20 -35 -42l-30 -44q-11 -15 -22.5 -32.5t-25 -33.5t-29 -29.5t-34.5 -20.5q-11 -2 -22 1t-22 7q-23 5 -33.5 25t-17.5 40q-3 15 0.5 28.5t9.5 26l12 25t7 26.5l-3 6q-5 4 -9.5 0.5t-9.5 -5.5q-16 -12 -30 -27.5t-19 -35.5z" />
<glyph unicode="N" horiz-adv-x="754" d="M20.5 128q-1.5 -14 6.5 -29q11 -31 32.5 -60t52.5 -46q15 -6 33 -2.5l34 6.5q46 20 82.5 60.5t62.5 82.5l22 22.5t18 25.5q6 14 15.5 26.5t20.5 24.5l21.5 24t18.5 26q29 49 74 88t96 62h3q-20 -27 -36.5 -56l-32.5 -59l-30.5 -71t-26.5 -73l-6 -27l-6 -26l-49 -78 q-11 -9 -19.5 -21t-10.5 -27q2 -4 3 -6.5t5 -5.5q8 -4 15.5 -0.5t13.5 7.5q10 10 22.5 13.5t23.5 11.5l66 52t55 63q15 8 28 18t25 23q21 21 44.5 38.5t46.5 37.5q21 17 31.5 38.5t24.5 41.5q21 21 35 44.5t31 47.5q10 11 17 23.5l14 25.5q8 20 27 36t34 31q6 10 11 19.5 t15 15.5q14 11 32 15.5t37 -0.5q11 -2 14.5 -12l6.5 -18q2 -6 2 -14t5 -14q6 1 10 8q10 20 13.5 43.5t-2.5 46.5q-7 11 -17.5 18.5t-24.5 2.5q-12 -8 -26.5 -10t-26.5 -8q-18 -5 -31 -16.5t-25 -25.5l-24 -27.5t-27 -23.5q-18 -17 -27 -37.5t-25 -38.5q-22 -28 -38 -58.5 t-42 -57.5l-24 -38.5t-31 -34.5q-26 -18 -48 -40.5t-47 -41.5q13 30 23.5 61.5l20.5 63.5l20 64t23 62q27 38 48.5 78t53.5 75l10.5 19.5t-2.5 21.5l-9.5 5.5t-9.5 0.5q-15 -9 -27.5 -22t-25.5 -25q-58 -22 -107.5 -62t-94.5 -88q-26 -15 -48 -35.5t-41 -44.5t-36.5 -49 l-35.5 -49q-21 -14 -31.5 -35t-23.5 -41q-20 -18 -33.5 -39.5l-27.5 -42.5l-25 -28t-27.5 -26t-30.5 -19.5t-35 -8.5q-17 -7 -29 3.5t-22 22.5q-14 18 -27 38t-5 45q6 12 11 26t11.5 26.5t17 22.5t26.5 13q18 6 32.5 -1.5t29.5 -13.5q5 8 5.5 18t-4.5 18l-17 22.5t-24 10.5 q-8 1 -13.5 -3t-10.5 -9q-21 -11 -41.5 -26.5t-32.5 -36.5q-5 -13 -12.5 -25.5t-13 -25.5t-7 -27z" />
<glyph unicode="O" horiz-adv-x="480" d="M26.5 283q0.5 -27 3.5 -53q7 -75 45 -138q16 -27 38.5 -55.5t54.5 -37.5q16 1 29.5 -5.5t30.5 -1.5q25 7 48 19.5t44.5 28.5t42 34l41.5 36q8 8 15.5 16.5t12.5 18.5q35 47 57 98t37 106q5 31 9.5 62.5t1.5 63.5q2 5 4 6q15 10 32.5 19.5t33 21.5t26 27.5t10.5 36.5 q0 2 -2.5 3.5t-4.5 -0.5q-22 -23 -47.5 -37l-50.5 -29l-4 -1q-2 13 -8.5 23t-12.5 21q-15 16 -31 31t-34 24.5t-38.5 13t-43.5 -2.5q-8 5 -19 5q-56 -17 -103 -46q-6 -6 -13.5 -8l-15.5 -4l-43.5 -30.5t-41.5 -34.5q-31 -24 -50 -55.5t-34 -63.5q-6 -14 -7 -29.5t-3 -30.5 q-10 -25 -9.5 -52zM103 148q-2 17 0 35q-4 10 0 19.5t5 20.5q1 8 5.5 14.5l9 13t8.5 13.5t5 15q8 19 18.5 37t12.5 40q5 5 6 13t3 14q-4 8 1 15.5l9 13.5q18 17 29 35.5t28 35.5q14 20 33 29t37 23q4 11 15 15t21 9l29 17q-2 -11 -6 -22.5t-6.5 -23t-1 -23t10.5 -21.5 q8 -10 18 -18t23 -7q21 -1 42 0t41 4q4 -84 -23.5 -157t-75.5 -137l-4 -10q-28 -32 -60.5 -62t-67.5 -53q-15 -13 -36 -13.5t-38 9.5q-27 8 -47 30t-32 45q-10 14 -12 31zM408 510q2 13 6 25l8 23q5 7 14 11q13 2 21 -6t16 -15q15 -18 23 -43q-17 -6 -37.5 -7t-40.5 2 q-3 1 -5.5 4t-4.5 6z" />
<glyph unicode="P" horiz-adv-x="743" d="M26 67.5q2 -27.5 10 -51.5l18.5 -24t23.5 -20q12 -8 25.5 -5.5t26.5 7.5q33 14 66 36t51 57q14 10 25.5 23l22.5 26q4 6 5.5 12.5t7.5 11.5q28 29 43 62.5t37 64.5q12 24 21.5 48.5l18.5 49t19.5 48.5t25.5 46q20 40 53 72t68 59l2 5q-4 6 -11 3t-13 -4 q-72 -35 -138 -81.5t-120 -113.5q-36 -49 -59 -107q-6 -19 -6.5 -40t0.5 -41l-33 -79.5l-32 -78.5q-9 -11 -19.5 -17t-20.5 -15q-12 -5 -22.5 -12.5t-26.5 -3.5q-8 6 -14.5 15l-12.5 17q-2 11 -1.5 23t0.5 24t-1.5 23t-7.5 20q-4 2 -7 4.5t-8 0.5t-7.5 -4.5t-6.5 -7.5 q-5 -25 -3 -52.5zM232 509q-4 -7 2 -12q21 18 44 33t46 28q21 9 41.5 19t43.5 15q35 11 71.5 16.5t72.5 8.5q17 -1 32.5 -4t30.5 -12q12 -11 22.5 -23t18.5 -24q2 -28 1.5 -55t3.5 -54q1 -32 -7.5 -60.5l-16.5 -57.5q-8 -11 -19 -22.5t-26 -10.5q-21 -11 -43.5 -20t-47.5 -2 q-14 -1 -23 10.5l-17 22.5h-1q0 3 -4 3q-3 0 -5 1q-6 -1 -10.5 -5t-9.5 -9q-8 -8 -3.5 -17l8.5 -17q11 -16 28.5 -25t37.5 -10l64.5 4t60.5 17q13 7 26.5 10t24.5 16q23 2 42 19t35 35q19 20 27.5 45t9.5 53q5 54 -15 97t-56 81q-8 6 -16.5 13.5t-19.5 9.5q-13 13 -27.5 20 t-30.5 14q-33 13 -70.5 9t-70.5 -11q-58 -17 -112.5 -41t-104.5 -62l-18.5 -14t-13.5 -17q-2 -8 -6 -15z" />
<glyph unicode="Q" horiz-adv-x="536" d="M22.5 230q1.5 -38 12.5 -70q0 -22 5 -43.5t11 -42.5q3 -14 10.5 -25t18 -20t22.5 -16l23 -14q11 -4 22 -4q12 0 23.5 1t23 1.5t22.5 -0.5q20 -3 37 2.5t32 14.5t30 19t32 15l19 -21t21 -19q4 -5 9 -6.5t11 -1.5t12 0.5t12 -0.5q7 0 13.5 2.5t12.5 5.5q35 25 66 57t57 67 q13 21 29 41t24 43q1 6 2.5 13t-3.5 11q-8 -2 -14.5 -7.5l-12.5 -10.5q-23 -32 -48 -62.5t-52 -59.5q-14 -12 -27 -26t-33 -15q-6 0 -9 7q-4 16 -1 31.5t5 32.5l14 15.5t13 16.5q2 13 11.5 22t15.5 20q22 35 36 71.5t25 75.5q9 44 12 93.5t-8 93.5q-2 10 -1.5 21t-9.5 19 q-8 5 -16 13.5t-16.5 15t-18 8.5t-20.5 -5q-9 7 -19.5 10.5t-22.5 5.5q-35 5 -70.5 0t-67.5 -14q-11 -6 -22.5 -8.5t-22.5 -9.5q-39 -16 -73.5 -40.5t-62.5 -59.5q-25 -29 -48 -60t-31 -69q0 -17 -1 -32.5t-7 -30.5q-8 -34 -6.5 -72zM85 120q2 16 9 28t9 27q-2 24 6.5 43.5 t11.5 42.5q-2 14 5.5 23.5t11.5 20.5q12 23 18 47t25 44q33 29 61.5 64.5l56.5 68.5q13 13 27.5 25t30.5 20.5t34 12t38 -1.5q9 -4 17.5 -9.5t19.5 -6.5q12 -23 16 -50.5t3 -56.5q-6 -4 -8.5 -10.5t-3.5 -13.5q-2 -36 -11 -68.5t-30 -61.5q-8 -25 -19.5 -49t-24.5 -47 q-11 -5 -21 -3t-20 5.5l-20 7t-21 1.5q-9 -3 -17 -7.5t-16 -9.5q-21 -3 -40.5 -9t-33.5 -23q-1 -4 -2 -7.5t1 -7.5q4 -6 11.5 -5t13.5 2q26 8 51 1.5t43 -27.5q0 -15 -6 -28q-11 -18 -28.5 -32t-34.5 -23q-33 -3 -66 -5t-61 16q-16 8 -26.5 25t-9.5 37z" />
<glyph unicode="R" horiz-adv-x="671" d="M9.5 73.5q-1.5 -19.5 1.5 -36.5q4 -17 14 -27.5t23 -18t27.5 -12t28.5 -7.5q22 -4 38.5 8.5t30.5 26.5q10 9 17.5 19.5l15 21t16 20t19.5 15.5q48 41 74.5 92t46.5 105q16 22 27 46.5t20 50t17 51.5t19 50q9 16 18 35.5t20 36.5t25.5 30.5t35.5 19.5q21 -18 30 -41 t10.5 -48.5t-1.5 -52l-6 -51.5q-13 -17 -31.5 -25t-35.5 -19q-13 1 -24 6.5t-25 4.5q-16 -4 -30.5 -16t-20.5 -27q5 -9 12 -13q23 -1 46.5 2t45.5 8q21 -7 31 -22q7 -14 3 -27q-24 -32 -51 -59.5t-44 -62.5q-7 -12 -8.5 -25t0 -26.5t5.5 -26.5t9 -24v-13q5 -15 12.5 -29 t18.5 -26q8 -9 18 -10.5t20 0.5t20 5t19 5q9 4 19 5t18 7q4 10 12 15t14 13q-3 3 0 3l1 -1q17 20 36.5 40t36.5 42q5 7 8.5 15t11.5 14q20 17 24.5 39t11.5 45q0 2 -2.5 3t-4.5 -1q-12 -8 -20.5 -19l-17.5 -22q-16 -29 -37.5 -52.5t-41.5 -48.5q-10 -8 -19.5 -18t-19.5 -19 t-21 -16t-24 -8q-8 -2 -18 -3t-19 1q-3 8 -5.5 15.5t-0.5 15.5q15 23 32.5 43.5l35 41t33.5 42t27 45.5q10 25 -0.5 51t-23.5 45v-1q-12 11 -25.5 16t-27.5 11q29 15 59.5 25.5t54.5 33.5q10 20 14.5 43t3 46t-9 45t-20.5 40q-23 33 -56.5 58.5t-73.5 29.5q-20 2 -43 2.5 t-43 -4.5q-14 -1 -26.5 -5.5t-26.5 -7.5q-46 -17 -91.5 -38t-85.5 -54q-9 -10 -20.5 -18.5t-22 -18t-19 -20t-10.5 -24.5q-2 -3 -5 -5.5t-5 -7.5q-3 -10 -2.5 -23.5t4.5 -23.5q3 -7 14 -7q17 5 20.5 21.5t5.5 33.5q32 46 78.5 76.5t93.5 53.5q19 8 40 15.5t43 12t44 4 t43 -8.5v-1l-14 -2q-32 -9 -62.5 -21.5t-52.5 -40.5q-20 -12 -38 -32.5t-26 -41.5l-31 -81t-30 -80q-2 -17 -9 -33.5t-12 -33.5v-4q-13 -37 -24 -75.5t-23 -75.5l-7 -7l-15 -25.5t-18.5 -25.5t-23.5 -20t-29 -8q-17 4 -35.5 15t-22.5 31q-1 17 2 34t2 34l-2 3q-5 3 -9 1 t-7 -6l-6 -8t-7 -7q-7 -16 -8.5 -35.5z" />
<glyph unicode="S" horiz-adv-x="459" d="M28 75q1 -22 11 -40t21 -36q5 -8 13.5 -10.5t16.5 -4.5q21 -8 47.5 -10.5t46.5 11.5q32 8 57.5 27.5t51.5 42.5q3 7 9 11.5t10 11.5l37 65.5t34 66.5q10 11 16 22.5t10 22.5q10 20 17.5 39.5t18.5 39.5q44 16 84.5 39t79.5 50q14 9 28 20.5t19 28.5q1 8 6 13t11 9l12.5 8 t10.5 11q7 20 12 43.5t-5 44.5q-8 11 -18 19.5l-20 16.5q-18 5 -39 4t-38 -5q-38 -14 -73.5 -35t-64.5 -53q-25 -21 -43.5 -46t-33.5 -51t-28 -53.5l-26 -54.5q-14 2 -28 2.5t-27 4.5q-20 11 -34.5 29.5t-20.5 40.5q-2 40 14 74t39 65q1 3 3 6t0 6q-14 2 -25.5 -2.5 t-22.5 -11.5q-10 -7 -17.5 -16t-5.5 -22q-15 -23 -24 -48.5t-1 -54.5q7 -20 13 -42t24 -37q20 -19 45 -24.5t53 -7.5l3 -2q-5 -17 -11 -32.5t-11 -31.5l-46.5 -98.5t-49.5 -96.5q-3 -10 -11 -15.5t-18 -8.5q-8 -5 -15.5 -4.5t-15 3t-15 6t-14.5 5.5q-13 9 -18.5 23t-12.5 27 q-6 5 -13.5 10t-16.5 2q-9 -5 -11 -17zM469 386q20 44 48 83t51 81q11 11 20 23.5t22 20.5q11 -1 22.5 1t19.5 -8l11 -14q2 -10 1.5 -21.5t-5.5 -19.5q-12 -4 -18 -12.5t-10.5 -18t-10 -18.5t-16.5 -15q-10 -3 -17.5 -11.5t-15.5 -15.5q-24 -16 -49.5 -31t-52.5 -24z" />
<glyph unicode="T" horiz-adv-x="423" d="M29 91q0 -6 2 -12q6 -5 7.5 -11t0.5 -13t-1.5 -14t1.5 -13q7 -14 20 -23t27 -13q11 -11 27 -11q17 0 31 1q25 2 45 13.5t37 28.5q27 10 49.5 33.5t37.5 48.5q8 7 15 14t11 15q23 47 40 93.5t37 94.5q17 34 31.5 69t37.5 67l22.5 14t24.5 12q14 4 28 10.5t31 1.5 q17 3 32.5 9t34.5 5l21 16q6 5 14 7t15.5 4.5t13.5 6.5t8 13q0 7 1 13t-4 11l-6.5 4.5t-8.5 1.5q-15 -4 -28 -15t-27 -20q-19 -1 -35.5 -6.5l-32.5 -10.5q-11 8 -25.5 5.5t-28.5 -0.5l-34 14q-21 13 -45 25.5t-49 18.5t-50.5 3.5t-48.5 -18.5h-15l-55 -21.5t-50 -33.5 q-9 -18 -15 -37.5t-13 -39.5q-3 -17 9 -27q2 -5 6.5 -6t9.5 0q11 5 14 16q-1 26 9 47.5t26 40.5q7 4 14.5 5.5t15 2.5t14.5 3t13 7h21l20 -19q23 -13 48 -18.5t46 -21.5q-35 -26 -64 -61t-49 -72l-33 -73.5t-18 -79.5q-11 -27 -20 -54.5t-17 -56.5q-9 -15 -22.5 -29 t-28.5 -22h-6q-16 -9 -36 -9.5t-35 9.5q-9 4 -11 11t-2 15t0.5 16t-3.5 15q-6 8 -14 16.5t-19 8.5q-5 -2 -9 -5t-6 -8q-4 -5 -4 -12z" />
<glyph unicode="U" horiz-adv-x="579" d="M21 135h3q0 -2 -1 -2q2 -2 2 -4t1 -4q-2 -9 1 -13t1 -13q-1 -1 0.5 -1.5t-0.5 -1.5q2 -4 0.5 -6t0.5 -4q0 -1 1.5 0t1.5 -2q-1 0 -1 -1h-1l1 -1q-1 -2 -0.5 -3.5t-0.5 -3.5q3 -4 1 -9t2 -6q10 -21 27.5 -42t40.5 -29q13 -3 25.5 -7t25.5 -7.5t26 -4.5t27 3q36 25 69.5 53 l68.5 55q18 13 29 31.5t28 31.5h2q-3 -21 -4.5 -41.5t2.5 -40.5q7 -17 21.5 -30.5l27.5 -25.5q6 -9 14.5 -11t17 -0.5t17.5 4t17 4.5q7 -2 13.5 0l12.5 4q28 16 52.5 37t50.5 41q12 10 18.5 22t17.5 23q26 15 35.5 39t17.5 49q-1 2 -1.5 4t-3.5 2l-26 -24q-35 -42 -78 -81.5 t-89 -69.5q-6 -4 -14 -7t-16 2q-9 8 -19.5 16.5t-7.5 22.5q6 17 14 34.5l16 34.5q51 91 93.5 184.5l85.5 188.5q6 9 13.5 17.5t9.5 19.5q4 13 -6 19q-10 1 -18 -1.5t-16 -6.5t-16 -7.5t-17 -4.5q-8 2 -15.5 3.5t-15.5 0.5q-13 -1 -21.5 -8.5t-13.5 -18.5 q-29 -74 -63.5 -144.5l-69.5 -142.5q-18 -19 -32 -40t-30 -41l-46 -48q-32 -26 -65.5 -57t-69.5 -51q-39 -4 -79 10q-8 9 -14.5 21t-12.5 26q3 20 8.5 38.5t16.5 35.5q14 13 30.5 22t29.5 25q32 35 59 71.5l53 72.5q9 18 19 35t23 33q13 22 24 44t13 48q-2 21 -5 41.5 t-11 40.5q-5 9 -14.5 17l-17.5 15q-21 9 -44.5 3t-39.5 -20q-26 -5 -55 -8t-52 -20q-1 -9 -6 -14.5t-11.5 -10t-12 -10t-7.5 -13.5q-5 -15 -13.5 -29t-6.5 -31q4 -7 10.5 -8t12.5 0q10 6 15.5 15t9.5 18.5l8 19t10 18.5q8 16 23 21l29 10q18 3 38 7.5t37 -8.5q6 -8 5 -13 l-15.5 -42t-19.5 -41q-32 -28 -61 -60.5l-56 -64.5q-31 -32 -56 -66.5t-30 -77.5q-1 0 -1 1l-1 -10q-4 -1 -3 -5.5t-3 -7.5h2q0 -3 -1 -4.5t0 -3.5q0 -4 2 -3q0 1 1 0t-1 -2v-3l-2 3l-1 -1q-2 -5 3 -7l-3 -2q1 1 3 -1q1 -2 -3 -4z" />
<glyph unicode="V" horiz-adv-x="507" d="M23 455q-2 -5 1 -11q3 -7 7 -8t9 0.5t10 3.5t10 2q29 25 56.5 51.5t57.5 47.5q6 5 12 6t13 0.5t13 -0.5q7 0 14 2q3 1 6 3.5t7 2.5q4 -8 4 -14q-4 -14 -11 -26.5t-15 -24.5l-52 -62t-48 -63q-14 -27 -25.5 -54.5t-15.5 -59.5l-4 -46.5t-2 -47.5q0 -23 4 -45.5t14 -43.5 q-1 -16 7.5 -29.5t22.5 -20.5q14 -8 23.5 -22t26.5 -18q21 -11 43 -2t40 20l68 64.5l66 67.5l2 7q29 31 53.5 63t41.5 69q22 11 31 32.5t20 39.5q6 14 10 28.5t9 29.5l66.5 29t65.5 36q10 9 23.5 17t11.5 24q0 5 -4.5 5.5t-9.5 2.5q-8 5 -12 -1.5t-10 -8.5 q-30 -14 -58.5 -32t-60.5 -28q6 34 11.5 72t-6.5 70q-5 11 -12 22t-19 18q-11 2 -22 -0.5t-19 -10.5q-21 -12 -32.5 -29.5t-17.5 -37.5t-8 -42.5t-3 -43.5q5 -17 9 -34t14 -32q11 -11 26 -8t29 1l-1 -5q-11 -26 -23.5 -52.5t-36.5 -43.5q-23 -38 -49 -74.5t-58 -71.5 l-60 -57t-63 -54q-9 -9 -22 -6.5t-24 6.5t-16 11.5t-9 17t-7.5 19t-10.5 16.5q4 23 11 44.5t13 44.5q10 22 27 41.5l34.5 39t32.5 40t21 45.5q25 32 43.5 65.5t29.5 71.5q3 23 -7 41.5l-20 36.5q-14 21 -35.5 26.5t-43.5 6.5q-6 0 -11 -4t-10 1q-38 -3 -70 -23l-101 -90 q-3 -3 -8.5 -7t-10 -8t-6.5 -9zM474 486q2 26 12 51.5t36 38.5q7 -2 9.5 -7t3.5 -11t1 -13q0 -6 1 -11q-2 -27 -4.5 -53t-6.5 -52q-9 -3 -17.5 -1t-16.5 1q-14 8 -14.5 25t-3.5 32z" />
<glyph unicode="W" horiz-adv-x="876" d="M28 142q5 -18 8.5 -37t8.5 -37t14.5 -34t26.5 -29q17 -14 41.5 -16.5t45.5 4.5q9 -1 18 -5t18 -2q31 18 53.5 44t49.5 50q24 24 62 21q2 -8 5 -14t5 -13q7 -13 17 -27t22 -25.5t26 -18.5t31 -6q28 4 53.5 14t48.5 24.5t45.5 31l44.5 33.5q8 -2 15 0t12 4q33 23 60 52.5 t52 61.5q39 48 66.5 101t47.5 110q23 11 45.5 25l44.5 28l14 12q10 14 22 28t11 33q0 2 -3 2t-5 -1q-32 -18 -61 -40.5t-63 -34.5q-1 30 -8.5 57.5t-23.5 51.5q-8 11 -19.5 16t-24.5 6q-23 -2 -43.5 -9.5t-36.5 -24.5q-20 -29 -31.5 -63.5t2.5 -71.5q8 -12 19 -18t24 -9 t26.5 -4t27.5 -3q-12 -41 -33.5 -77.5t-49.5 -70.5t-59 -66.5l-61 -64.5q-26 -20 -52 -43t-58 -33q-11 -2 -21.5 0t-19.5 10q-6 17 -0.5 31.5t10.5 29.5q32 44 54.5 90l44.5 93q14 42 35.5 79.5t36.5 78.5l26 60t23 62q-2 2 -2.5 5t-5.5 3q-17 -5 -34 -11.5t-37 -8.5h-30 q-15 0 -23 -18q-11 -30 -24.5 -58.5l-27.5 -57.5l-47.5 -95t-50.5 -94q-7 0 -12 -5l-22.5 -34t-24.5 -34q-10 -11 -19 -24.5t-24 -14.5q-26 -16 -47 -37l-41 -41q-7 -5 -13.5 -11.5t-13.5 -12t-14.5 -8t-16.5 -0.5q-7 3 -15 2.5t-16 0t-15.5 2.5t-13.5 10q-5 7 -5.5 15t1 16 t5 16t5.5 15q8 7 15.5 15l14.5 16q32 45 68 85t68 84q12 23 25.5 45t25.5 44.5t22 46t16 49.5q1 9 -2 17t-5 17q-2 25 -19 47.5t-42 30.5q-17 4 -30.5 -2.5t-25.5 -15.5q-42 -2 -78.5 -18.5t-63.5 -49.5l-18 -30t-10 -34q1 -5 2 -9t6 -6q8 -4 14 -1q8 2 9.5 7.5t3.5 10.5 q11 36 42 60.5t66 31.5q14 3 27.5 1t23.5 -14q-6 -22 -15.5 -41t-21.5 -38l-59.5 -68t-63.5 -65q-13 -15 -27.5 -28.5t-27.5 -28t-24 -30.5t-16 -35q0 -15 -4 -30t-2 -30zM786 496q1 17 4.5 35.5t20.5 28.5q11 4 24.5 8t23.5 -6q8 -5 7.5 -14.5t1.5 -18.5l-4 -36.5 t-10 -33.5q-9 0 -17.5 -1.5t-17 -2.5t-16.5 1t-14 10q-3 7 -2.5 14.5t-0.5 15.5z" />
<glyph unicode="X" horiz-adv-x="624" d="M31 44q1 -13 5 -24.5t14 -20.5q16 -14 36 -19t41 -4.5t42 5.5t39 12q48 6 89 30t76 60q2 -6 2.5 -13.5t1.5 -14.5q4 -9 5.5 -19.5t4.5 -20t8 -17.5t17 -11q14 -1 27.5 -3t27.5 0q28 7 54 18.5t47 31.5q39 38 68.5 82.5t37.5 97.5l-5 7q-4 2 -6 -2.5t-5 -6.5 q-12 -23 -27.5 -45l-31.5 -44q-14 -19 -29.5 -37t-34.5 -32t-40 -23t-45 -10q-8 2 -15.5 3.5t-11.5 9.5q-6 19 -4.5 37.5t3.5 37.5q10 38 28.5 72t39.5 67l42 65.5t37 67.5q35 53 85 95.5t102 71.5q7 4 15 7t16 5.5t15 6t13 10.5q17 5 33 0t29 -16q5 8 6.5 17t-1.5 18 q-7 13 -26 17q-15 2 -32.5 2.5t-29.5 -10.5q-53 -19 -102 -50t-86 -77h-2q10 28 8.5 60.5t-12.5 59.5q-8 21 -28 33.5t-42 15.5q-13 3 -25 1t-24 -5l-24.5 -6t-25.5 -2q-31 -1 -53.5 -19.5l-45.5 -38.5l-16.5 -17t-14.5 -18.5t-8 -19.5t3 -22q3 -8 13 -8q11 5 21.5 14 t15.5 21q4 19 18.5 31.5l28.5 23.5q11 9 23 12.5t25 4t26.5 0t27.5 0.5q8 -2 14 -10.5t8 -16.5q-2 -31 -13.5 -57.5t-19.5 -55.5q-9 -27 -24 -51.5t-32 -48t-35.5 -46.5t-34.5 -47q-2 -4 -4 -5t-4 -3h-1v-2h1q-40 -49 -65 -101q-5 -19 -18 -35.5l-26 -32.5 q-14 -17 -29.5 -32.5t-34 -26.5t-39.5 -14.5t-44 3.5q-8 5 -14 13t-10 16q-2 10 -2.5 22.5t7.5 20.5q8 2 13 -1.5t13 -3.5q9 2 13 6q3 5 5 12t-2 13q-11 17 -33 17q-17 -2 -29.5 -12t-19.5 -25q-2 -12 -3.5 -25t-0.5 -26z" />
<glyph unicode="Y" horiz-adv-x="566" d="M17 116q-6 -29 8.5 -52t36.5 -43q22 -11 47 -17.5t49 -11.5q15 -2 28 4t20 19q29 19 57 41t54 45q5 11 14.5 20t17.5 18h1q-2 -6 -5.5 -11.5t-7.5 -10.5q-21 -32 -38 -65.5t-32 -68.5q-20 -9 -42 -16t-43 -16q-41 -15 -76.5 -45.5t-67.5 -61.5q-6 -8 -10 -18t0 -21 q14 -37 44 -67q5 -4 11 -4t12 1q20 7 38.5 15l38.5 16q17 8 34 14.5t31 21.5q20 27 44 45.5t45 44.5q19 20 30 43t26 44q22 11 44 19l44 16q27 2 49.5 20t39.5 38q30 31 57.5 66.5t47.5 73.5v10q0 2 -5 2q-21 -9 -40 -26t-28 -39l-45.5 -50t-47.5 -47q-46 -14 -87 -32 q-1 1 -3.5 0t-1.5 1l87 151t75 155q17 24 30.5 48.5t28.5 47.5q18 29 31.5 59.5t31.5 58.5q6 8 13 16t5 19q-8 7 -17 8t-18 -0.5t-18.5 -4.5t-17.5 -4h-49q-10 0 -16.5 -5t-11 -12t-8 -15l-6.5 -15q-8 -31 -24 -58.5t-28 -56.5q-16 -46 -41.5 -88t-48.5 -86l-42 -47.5 t-46 -46.5q-14 -20 -33.5 -38.5t-39.5 -32.5l-39.5 -28.5t-39.5 -25.5q-20 2 -38 7t-35 16q-8 9 -14 19t-1 24q6 21 12.5 41.5t17.5 39.5q14 9 27.5 19.5l27.5 21.5l63 83.5t54 88.5q13 19 28.5 38.5t26.5 40t15.5 43t-3.5 46.5q-9 12 -12 26t-11 26q-11 20 -32.5 24.5 t-40.5 -3.5q-16 -8 -33.5 -12.5t-35.5 -8t-35.5 -7.5t-34.5 -10q-25 -20 -37 -47.5t-23 -55.5q0 -4 -0.5 -9t2.5 -8q14 -2 23 4t15.5 15t11 20t10.5 19l-1 9q4 7 9.5 13l11.5 13q23 6 45 11t45 7l11 -2q6 -4 11.5 -11t5.5 -15q-11 -34 -27 -70l-32 -33t-31 -33 q-21 -29 -47.5 -56.5t-49.5 -55.5q-36 -50 -39 -102h-1q0 -23 -1 -45t-5 -45zM70 -183q31 48 79.5 76t99.5 42q-9 -15 -13.5 -32.5t-10 -34.5t-15 -32t-27.5 -25q-18 -11 -37.5 -17t-37.5 -14q-6 -2 -12.5 -2.5t-11.5 3.5q-7 8 -12 16.5t-2 19.5z" />
<glyph unicode="Z" horiz-adv-x="513" d="M21 -9q1 -4 9 -8q5 -3 13 -3t14 4q14 7 29.5 10t29.5 10q41 22 80.5 45.5l80.5 46.5q11 4 20 10t22 4l-1 -18q2 -27 16 -51t40 -36q7 -5 14.5 -4.5t15 3.5t14.5 7.5t13 7.5q15 16 32.5 25.5t30.5 29.5q4 6 7 13l6 13.5t7 12.5t12 10q21 17 34.5 39.5t10.5 50.5 q-2 4 -3 8.5t-6 2.5q-7 -11 -17 -22t-18 -22q-7 -8 -15.5 -14.5l-16.5 -13t-14 -14t-9 -17.5q-13 -11 -20.5 -25.5t-21.5 -23.5l-9 -3.5t-9 0.5q-5 20 -10.5 39t-18.5 36q-11 8 -23.5 14t-26.5 5q-22 -15 -46 -20q-10 -4 -15 0q44 46 79 97t67 103l12 15q11 6 26 5.5 t26 -7.5q4 -4 7 -9.5t11 -3.5q10 3 14 11.5t9 15.5q2 6 7 11t10 9.5t7 10t-2 12.5q-3 4 -7 8.5t-11 0.5q-16 -5 -32.5 -11.5t-33.5 -7.5q-7 2 -9 10q9 14 16.5 27.5l15.5 27.5l39.5 38t36.5 42q12 15 27 26.5t24 29.5q2 7 0.5 14t-2.5 13q-7 11 -16 8q-14 -4 -26 -11 l-24 -14q-42 -13 -80.5 -30.5t-80.5 -31.5q-7 2 -13.5 3t-12.5 5q-4 21 -16 39t-26 35q-9 4 -18 0t-17 -9q-9 1 -18 0.5t-17 -6.5l-79 -54.5t-76 -62.5q-2 -2 -2 -6q0 -3 2 -5q10 -10 26 -5q35 19 66.5 44.5t67.5 42.5q5 -16 12.5 -31t19.5 -27q5 -7 12.5 -9.5t15.5 -3.5 t16 -1t15 -1q22 -5 42.5 1.5l39.5 12.5q-28 -27 -48 -58.5t-49 -57.5q-14 5 -30 1.5t-31 -5.5q-6 -1 -8 1.5t-3 7l-2 9t-4 6.5q-5 2 -9.5 -1t-9.5 -6l-22 -32.5t-18 -33.5q0 -8 8 -13t15.5 -0.5t14.5 9.5q17 -5 31 -5q6 2 11 2.5t12 1.5q-35 -40 -65 -81.5t-55 -84.5 q-7 -5 -14 -11t-12 -13l-69 -105q-6 -5 -14.5 -10t-15.5 -11t-11.5 -14.5t-2.5 -18.5z" />
<glyph unicode="^" horiz-adv-x="377" d="M26 432q11 -8 24 -6t24 5q35 10 67 31.5t55 53.5l2 1q10 -14 22 -28.5t32 -14.5q21 -21 45 -34t53 -12q3 1 6.5 2.5t3.5 4.5q-15 14 -32 25t-28 28q-7 6 -10.5 13.5t-6 15.5t-6 16t-9.5 15q-2 8 -2.5 17t-8.5 15q-13 9 -27 3t-25 -14h-5q-11 5 -22 8.5t-22 1.5 q-5 -2 -9.5 -6.5t-6.5 -9.5q2 -14 -3.5 -26.5t-14.5 -22.5q-20 -24 -44.5 -45t-51.5 -34v-3z" />
<glyph unicode="_" horiz-adv-x="414" d="M7 -113q-2 -5 6.5 -14.5t12.5 -15.5q13 -5 24 -1t22 9q21 5 41.5 5.5t41.5 -1l42 -3t44 -0.5q20 4 40 6t39 -4q7 0 17.5 -3t22 -5.5t21.5 -1t16 11.5q2 6 8.5 13.5t8.5 12.5q3 6 0 8t-7.5 4t-9.5 5t-7 10q0 2 -4.5 2.5t-10.5 0.5q-5 0 -10 -0.5t-7 -0.5l-50 -1 q-16 0 -27.5 -1.5l-22.5 -3t-23 -3.5t-30 -3q-23 3 -45.5 3.5t-45.5 2.5q-14 -2 -28.5 2t-29.5 0q-2 -1 -7 -0.5t-10.5 1.5t-11 1.5t-6.5 0.5q-3 -10 -2.5 -14t0.5 -6q0 -3 -2 -6t-10 -11z" />
<glyph unicode="`" horiz-adv-x="265" d="M34 575q-3 -10 1 -18t11 -16l42 -41t45 -37l45.5 -22.5t48.5 -7.5l1 3q-26 23 -54.5 43.5t-45.5 51.5q-2 5 -1 10.5t1.5 11t-1 10t-7.5 7.5q-22 10 -44 0q-10 2 -20.5 7.5t-21.5 -2.5z" />
<glyph unicode="a" horiz-adv-x="480" d="M25.5 132.5q8.5 -43.5 37.5 -73.5q7 -19 20 -35.5t33 -25.5q11 -2 25 -2q15 0 26 11q28 23 50.5 50t39.5 58q-3 -30 6 -57.5t27 -50.5q8 -7 20 -9.5t23 3.5q38 17 71 45.5t56 65.5l23.5 34.5t16.5 37.5q2 11 4.5 21t0.5 21q-11 -4 -16 -15.5t-13 -19.5q-21 -36 -49.5 -70 t-63.5 -60q-6 -2 -12 -6t-12 -6.5t-13 -2.5q-6 0 -12 5q-5 2 -6.5 6.5t-1.5 8.5q-3 13 2.5 22t14.5 16.5t18.5 14.5t14.5 17q10 22 17.5 45.5l14.5 47t16.5 46t24.5 43.5q6 9 14 15t16 16q3 9 10 17.5t2 19.5l-7 7q-13 2 -26 0t-25 -5q-10 -4 -19.5 -2t-18.5 3.5t-18 0 t-16 -10.5l-28 -68q-7 20 -18.5 39.5t-33.5 26.5q-29 10 -58.5 -0.5t-52.5 -30.5q-6 -1 -12 -2.5t-11 -5.5q-32 -23 -56.5 -55t-39.5 -67q-14 -40 -5.5 -83.5zM127 69q-8 42 2.5 79.5t26.5 72.5q13 8 15.5 22t9.5 27q7 21 21.5 42.5t37.5 25.5q14 2 22.5 -7.5t14.5 -19.5 q5 -11 9 -22.5t6 -22.5q-8 -26 -19 -50.5t-21 -50.5l-35.5 -54.5t-45.5 -49.5q-7 -5 -14 -8.5t-15 -1.5q-8 0 -10.5 6.5z" />
<glyph unicode="b" horiz-adv-x="410" d="M17 199q-1 -25 4 -50l2 -33t5 -31t12.5 -28t23.5 -23q8 -11 18.5 -20.5t23.5 -13.5q21 -2 42 -1.5t41 5.5q12 7 24.5 13.5t23.5 15.5q3 10 10.5 18l15 15.5l14.5 15t10 18.5q14 18 25 37t24 36l1 -2q20 -14 42.5 -8.5t39.5 17.5q11 10 17.5 22.5t6.5 26.5 q-16 -12 -33.5 -22.5t-37.5 -7.5q-7 1 -13 3t-8 10q4 4 6 8.5t5 9.5q6 14 13 28t13 28.5t10 29.5t3 32q-3 18 -11 36t-27 26q-11 6 -20 3.5t-17.5 -9.5t-16 -15.5t-14.5 -14.5q-8 -19 -7.5 -40t0.5 -41q4 -23 8.5 -45t11.5 -44q-8 -18 -19 -35.5l-22 -34.5q-11 -22 -29 -40 l-35 -36q-23 -12 -51.5 -18t-53.5 8q-11 17 -11.5 38.5t3.5 41.5l21 29q8 17 10.5 36.5t8.5 37.5q5 11 8.5 23.5t7.5 24.5t10.5 22.5t17.5 18.5q26 28 56.5 52t56.5 51q10 11 15.5 23.5t19.5 20.5q12 6 19 16t12 21.5t10.5 23t13.5 20.5q10 11 13.5 24.5t3 28t-3.5 28.5 l-6 27q-1 3 -2.5 4t-1.5 4l-8 10q-18 12 -38.5 7.5t-38.5 -13.5q-15 -8 -29.5 -18t-27.5 -21q-19 -7 -34.5 -22t-29.5 -30q-30 -40 -54.5 -82l-48.5 -85q-6 -17 -15 -32.5t-8 -35.5l-14 -46t-11.5 -47.5t-5.5 -49.5zM196 390q4 9 8.5 17.5t9.5 16.5l39.5 82t43.5 80 q11 13 20.5 26t25.5 20q8 -1 10.5 -6.5t4.5 -11.5q1 -14 -3.5 -25.5t-11.5 -22.5l-13.5 -22t-8.5 -24q-9 -15 -24 -24t-24 -23q-5 -14 -14 -24.5t-20 -20l-22.5 -19t-20.5 -19.5zM324 319q-1 16 4 30t21 23q9 2 13 -5q4 -16 2 -30t-7.5 -27.5t-12 -26.5t-10.5 -27 q-2 14 -5.5 30.5t-4.5 32.5z" />
<glyph unicode="c" horiz-adv-x="365" d="M16 199q-2 -15 4 -30q1 -28 10 -52t23 -47q15 -12 26 -28.5t23 -32.5q14 -10 30.5 -6t31.5 6q61 19 117.5 54t98.5 92l21.5 37.5t12.5 40.5q-20 -19 -37 -41t-40 -41q-69 -72 -160 -102q-12 -1 -25.5 -6t-25.5 4q-7 8 -5 20q8 27 14.5 54t8.5 56q15 29 26.5 60t29.5 60 q15 13 26 28.5t27 27.5q14 0 26 3.5t26 3.5q9 -11 10 -26.5t0 -29.5q0 -10 8 -10q15 -2 24 6q12 20 8 44.5t-12 44.5q-4 6 -9.5 8t-12.5 1.5t-13.5 -2.5t-12.5 -3q-43 9 -87.5 0t-77.5 -37q-26 -10 -43 -32.5l-33 -43.5l-15.5 -25.5t-14.5 -27t-8 -28.5z" />
<glyph unicode="d" horiz-adv-x="410" d="M-1 145.5q1 -12.5 9 -23.5q0 -7 -0.5 -14t1.5 -14q5 -19 13 -37t25 -32q11 -6 21 -16t23 -11q7 -1 9.5 5t9.5 4q20 11 36.5 29.5t33.5 35.5q9 6 14.5 13.5t10.5 16t10.5 16t14.5 13.5l1 -2l-10 -75q-4 -16 5 -26q15 -13 32 -21t37 -6q22 14 40.5 30.5t37.5 35.5 q13 22 31.5 40t32.5 39q11 20 16.5 42t6.5 45h-1q-5 -7 -9 -14t-9 -14l-26.5 -37.5t-29.5 -36.5q-20 -19 -37 -39.5t-40 -34.5q-1 -2 -4 -2t-5 2q2 14 7.5 25t9.5 23q6 21 9 43t14 42q11 33 26 64.5t25 65.5q7 14 15.5 27.5t14.5 29.5q9 24 20.5 47.5l23 47t21 47.5t15.5 50 q7 17 19 30t21 28q1 5 3 10t-1 10q-5 6 -10.5 6.5t-11.5 -1.5t-12 -6t-11 -6q-9 -6 -19.5 -8t-21.5 -3l-22 -2t-20 -6q-9 -4 -12.5 -10t-4.5 -13t-0.5 -14.5t-0.5 -14.5q-8 -21 -17 -42.5t-20 -41.5q-10 -20 -17 -40.5t-18 -40.5q-5 -6 -6.5 -14t-6.5 -13q-2 2 -6.5 1.5 t-6.5 4.5q-2 7 -7 11l-10 8q-19 10 -38.5 11t-38 -5t-36 -16.5t-32.5 -22.5q-13 -4 -25 -15q-33 -30 -56.5 -63t-40.5 -70q-3 -12 -7.5 -24.5t-6.5 -25.5t-1 -25.5zM109 133q5 30 15 56l7 10q9 21 17.5 43.5t19 43.5t24.5 40.5t34 34.5q9 4 18.5 6t18.5 -3q5 -2 10 -5t7 -8 q2 -13 8 -21q-14 -36 -29 -71t-29 -71l-54 -66t-60 -62q-3 2 -4 6l-2 8q-6 29 -1 59z" />
<glyph unicode="e" horiz-adv-x="338" d="M19 173.5q4 -27.5 4 -56.5q9 -12 15 -24.5l12.5 -25.5t15 -24.5t22.5 -20.5q1 -5 4 -8.5t7 -6.5q17 -9 35 -14t38 0q21 11 41.5 26.5t37.5 33.5q12 7 23.5 15.5t20.5 20.5q10 15 22.5 30t23.5 30.5t19 32.5t9 37q0 5 -5 3q-28 -38 -59.5 -69.5l-64.5 -67.5l-12 -6 q-19 -16 -39 -29.5t-44 -18.5q-10 2 -15.5 11.5t-9.5 19.5q-5 13 -4 26t4.5 25t7.5 24t6 24q17 16 38 24.5t44 6.5q23 -4 42.5 5t34.5 28q23 14 37.5 37t18.5 49q-5 16 -13 30t-23 22q-23 5 -43.5 13t-44.5 3q-26 -11 -52.5 -20t-50.5 -23l-29.5 -22.5t-30 -24.5t-26 -27.5 t-16.5 -32.5q-5 -28 -1 -55.5zM152 219q8 22 18 44t33 33q2 2 2.5 3t3.5 3q0 5 3 10.5t5 10.5q2 10 11 13.5t17 5.5q18 -1 35 -5.5t28 -18.5q2 -11 -1 -21t-9.5 -19t-14.5 -16.5l-15 -14.5q-8 -8 -18 -12t-19 -9q-21 2 -40.5 -0.5t-38.5 -6.5z" />
<glyph unicode="f" horiz-adv-x="280" d="M-135 -202q2 -6 7.5 -7.5t10.5 -3.5q14 -5 26.5 2t25.5 12q8 -1 16.5 0t16.5 1q11 6 24 14.5t17 22.5q11 41 23 81t32 77q3 7 4.5 15t2.5 16.5t3 16t8 13.5l12 -3q11 -15 26 -20t31 -2q26 3 47 20.5t42 32.5q27 26 47 55t27 64q4 11 1 19q-18 -21 -35 -44.5t-38 -42.5 l-37.5 -35.5t-42.5 -26.5q-12 -2 -22 2t-18 12q-3 8 -8.5 15t-7.5 15q8 17 14.5 34t8.5 36q11 19 19.5 38.5l16.5 39.5q7 11 16 18l18 14q23 12 43.5 29.5t43.5 31.5l46 46t33 53q24 22 28 50q11 11 14.5 24t5.5 28q0 10 -1 21t-4.5 21t-9.5 18t-17 11l-28 3q-22 7 -42 -1.5 t-37 -20.5q-5 -2 -10 -7.5t-11 -7.5q-39 -23 -64 -59l-51 -71q-24 -38 -42 -77.5t-32 -81.5q-2 -20 -12 -36t-17 -33q-7 -15 -11.5 -30l-9 -30t-10 -30t-14.5 -29q-14 -26 -24 -55t-25 -56q-9 -35 -24 -67.5t-25 -67.5q-3 -21 -14 -38.5t-13 -38.5zM190 336q20 39 35.5 79.5 t38.5 78.5q11 25 25 48.5t33 45.5q11 7 23 7.5t24 -1.5l8 -5q5 -11 3 -23.5t-7 -21.5q-6 -8 -10.5 -16.5t-6.5 -19.5q-29 -34 -43 -72q-26 -31 -58.5 -55.5t-64.5 -44.5z" />
<glyph unicode="g" horiz-adv-x="518" d="M-52 -175.5q-2 -4.5 0 -9.5q-2 -14 1.5 -29t14.5 -26l21.5 -9.5t21.5 -7.5q17 0 32 8.5t33 8.5q17 2 31.5 11l28.5 17q9 5 17.5 8t15.5 8l39 48.5t41 45.5q5 17 17 29t27 22q12 7 26 11t28 7.5t27 9.5t24 17q25 10 46 28t37 40l34 30.5t29 33.5l25 49t11 54l-2 -1 l-38 -53.5t-46 -50.5q-18 -23 -41.5 -42.5t-44.5 -42.5l-39.5 -24.5t-43.5 -14.5q9 22 20 42t28 37q5 8 7 16t5 16q13 33 28.5 64.5t29.5 63.5q2 4 1.5 8.5t2.5 7.5q15 8 25 20t17.5 26.5t13 29.5t13.5 29q2 6 1 13t-7 11q-7 -2 -14.5 -1l-15 2t-14 0t-12.5 -7 q-9 -6 -19.5 -5.5l-21 1t-20 -1.5t-16.5 -12q-3 -8 -3.5 -16.5t-1.5 -17t-4.5 -16t-11.5 -11.5q-8 7 -6.5 17.5t3.5 19.5q-2 8 -8 13.5l-12 11.5l-27 5q-11 3 -21 8.5t-23 5.5q-10 -5 -20 -6t-20.5 -1.5t-20 -3.5t-17.5 -11q-25 -4 -43 -19.5t-34 -34.5q-39 -23 -60.5 -62 t-34.5 -77q-11 -23 -4.5 -48t14.5 -46q4 -7 11 -10t14 -5.5t14 -5.5t12 -10q0 -9 4.5 -15.5t12.5 -12.5q13 -9 26 -8.5t25 5.5t24 12.5t24 12.5q9 2 16 8.5t15 8.5q-3 -20 -10.5 -38l-15.5 -36q-5 -8 -14 -12t-17 -9q-24 -7 -46.5 -18.5t-46.5 -22.5l-33 -13t-32.5 -16.5 t-28.5 -22t-20 -30.5q-2 -4 -4 -8.5zM-12.5 -191.5q0.5 8.5 4.5 15.5q10 19 28.5 27.5t33.5 19.5q21 7 39.5 17l38.5 21q5 2 10 2t10 1q-9 -18 -21 -35t-23 -35l-10 -18.5t-15 -14.5q-20 -5 -36.5 -13.5t-36.5 -12.5q-12 0 -17 11q-6 6 -5.5 14.5zM108 88.5q3 18.5 8 34.5 q7 6 11.5 14t7.5 16.5t6.5 16.5t10.5 15q16 26 33.5 50t22.5 56q17 14 29 32q7 5 14.5 6t15.5 4q11 2 19.5 -2.5t17.5 -5.5q6 -2 5 -8t-1 -10q3 -21 22 -35q2 -15 -5 -27.5t-14 -26.5q-2 -6 1.5 -11t-1.5 -10q-7 -18 -19 -33.5t-27 -28.5t-30.5 -25l-30.5 -23 q-35 -25 -76 -40q-11 -4 -16 8q-7 15 -4 33.5z" />
<glyph unicode="h" horiz-adv-x="507" d="M-35 16q1 -3 3.5 -6t6.5 -3q15 2 29 8t30 4q14 -4 28 -6t28 0q11 5 19 14.5t12 19.5q-7 20 -4 38.5t10.5 35.5t17.5 33.5t18 33.5q9 8 19.5 18.5t21.5 19.5q30 14 56 36.5t56 35.5q9 3 16 9.5t14.5 12.5t15 10t17.5 4q4 -2 7.5 -4.5t3.5 -7.5q-2 -11 -9.5 -19t-13.5 -16 q-25 -15 -41.5 -40.5t-30.5 -49.5q-12 -26 -21.5 -54t0.5 -57q6 -9 9 -18.5t4.5 -19.5t3.5 -20.5t7 -19.5q9 -11 23 -11t26 2q36 1 65.5 18.5t58.5 37.5l40 37t37.5 40.5t26 45.5t6.5 53q-2 1 -6 -1q-17 -32 -41 -63.5t-53 -57.5q-14 -11 -27.5 -23t-28.5 -22t-31 -16.5 t-35 -6.5q-8 5 -6.5 15.5t2.5 18.5l29 66q26 23 39 52.5t25 59.5q3 8 5 16.5t0 17.5q5 14 4 31t-10 29q-8 12 -21.5 15.5t-25.5 9.5q-21 7 -40.5 -1.5t-35.5 -22.5q-18 -7 -34.5 -19l-32.5 -24.5l-32 -25t-34 -21.5l-6 -1q9 18 17 36.5t12 38.5l21.5 41t13.5 45 q14 18 32.5 33.5t39.5 24.5l38 37q13 12 27 23t25 25q3 14 13.5 25t18.5 23q8 11 6.5 26t0.5 29q-8 13 -20 22.5t-24 17.5q-10 5 -21 3.5t-21 -6.5q-38 -5 -70 -27.5t-54 -55.5q-9 -4 -15 -9.5t-12 -12.5q-26 -45 -47 -90t-45 -90q-10 -21 -16 -43t-8 -47 q-17 -55 -41 -106.5t-38 -107.5q-5 -17 -14.5 -30t-15.5 -28l-7 -4q-18 -10 -16 -34zM256 475q-5 20 2 34.5t12 31.5l6 23l39 71q5 5 9 11t12 8l26.5 5.5t25.5 7.5q10 1 15.5 -6t8.5 -15q2 -8 -0.5 -14.5t-7 -12t-10 -11t-9.5 -11.5q-6 -18 -21 -28.5t-27 -24.5 q-13 -11 -26 -23.5t-30 -20.5z" />
<glyph unicode="i" horiz-adv-x="253" d="M16 133.5q2 -20.5 5 -41.5q2 -10 6 -20.5t16 -12.5q7 -11 14 -23.5t15.5 -23.5t19.5 -18.5t26 -7.5l20.5 5.5t17.5 9.5l63 65.5t55 70.5q8 20 14.5 39.5t8.5 42.5q-1 2 -1.5 1t-1.5 -1q-30 -44 -62.5 -86t-71.5 -80q-7 -7 -14.5 -13.5t-17.5 -8.5q-9 0 -15 7t-10 13 q-6 9 -6.5 18.5t1.5 19.5t6 19.5t6 18.5q17 18 26.5 39.5t16 44.5t12 46t14.5 45q3 9 10 15l14 12t12 12.5t5 17.5q-4 6 -5.5 14t-10.5 8q-12 -4 -23.5 -8.5t-23.5 -7.5q-12 -2 -23 0.5t-23 1.5q-26 -20 -36.5 -46.5t-23.5 -52.5q-3 -25 -10 -48.5l-14 -47.5 q-13 -18 -11 -38.5zM148 492.5q2 -12.5 1 -25.5q4 -9 12 -14.5t16 -7.5t14.5 0.5t12 8t10.5 11.5t11 10q10 6 19 13.5t11 20.5q2 14 -4 25t-10 22q-5 7 -13 8t-16 3q-7 -2 -12.5 -7.5t-11.5 -10.5q-4 -12 -15 -18t-19 -15q-8 -11 -6 -23.5z" />
<glyph unicode="j" horiz-adv-x="287" d="M-230.5 -137.5q4.5 -9.5 3.5 -19.5q3 -8 9 -13.5t13 -10t14.5 -8.5t13.5 -10q12 -5 22.5 -2.5t21 8t20 12t20.5 9.5q8 4 18 5.5t18 8.5q17 17 37 25t38 24q21 26 36.5 53.5t38.5 51.5q3 17 13 36q18 14 40.5 19.5t43.5 14.5q11 4 21.5 5.5t18.5 9.5q12 13 26 26t27 27 t23 29.5t14 33.5q1 7 4 13.5t1 14.5q-6 -2 -11 -8q-20 -26 -41 -50t-47 -44q-11 -12 -26.5 -16.5t-31.5 -6.5q-9 -4 -18 -9t-20 -7l11 20q18 20 28.5 44.5t25.5 46.5l16 34l17 35q3 8 9.5 15t11.5 14t7.5 15t-1.5 19q2 8 9 12t13 9q3 4 4 10t0 11q-5 9 -12 10.5t-15 0 t-15.5 -4.5t-13.5 -4q-10 -3 -19 -1l-18 4q-5 -6 -12.5 -5.5t-14.5 -3.5q-11 -5 -12.5 -16.5t-4.5 -22.5q-12 -8 -17 -21t-11 -24q-14 -23 -25 -48l-21.5 -50l-20.5 -49.5t-23 -48.5q-4 -8 -1 -17.5t-7 -15.5q-87 -44 -167 -102q-14 0 -25 -7t-21 -17.5t-18.5 -22 l-16.5 -21.5q-5 -10 -0.5 -19.5zM-188 -132q5 13 17.5 23t23.5 21q23 6 42 22.5t38 30.5q16 11 33 20.5t34 16.5v-5q-25 -21 -36.5 -47.5t-27.5 -52.5q-8 -12 -19 -20t-23 -13.5t-25 -10.5t-25 -11q-7 0 -14.5 1t-13.5 6q-4 7 -4 19zM193 473q-2 -10 6 -14q6 -1 11 -4 t10.5 -6t11 -5t11.5 -1q8 0 13.5 3t10.5 8t9.5 10.5t10.5 8.5q1 10 7.5 18l13 16t9.5 16t-3 19q-6 6 -19 6q-10 -6 -21 -6q-10 0 -20 4q-5 -3 -9.5 -4.5t-8.5 -6.5q-4 -9 -10.5 -16l-13.5 -14t-12.5 -14.5t-6.5 -17.5z" />
<glyph unicode="k" horiz-adv-x="481" d="M-52 16q4 -8 9.5 -8.5t11 1.5t11.5 4.5t12 0.5q5 -6 11.5 -7t13 -0.5l13.5 1t14 -1.5q11 -3 20 3t17 13q5 6 3.5 12.5t-0.5 13.5q10 25 17 52.5t28 48.5q17 26 24.5 56t24.5 57q14 20 31 38t39 28q20 3 35 14l30 22q7 2 14.5 4.5t12.5 -4.5q8 -11 6.5 -23.5t-6.5 -22.5 q-3 -8 -5 -16.5t-5 -16.5t-8.5 -14t-15.5 -8q-8 -5 -17 0t-19 5q-10 3 -17 -2t-17 -5q-8 1 -13.5 -2t-10.5 -7t-10 -9t-10 -9q-4 -6 -3.5 -12.5t2.5 -12.5q2 -5 5.5 -8.5t8.5 -2.5q9 4 19.5 5t21 1.5t21 2t19.5 6.5q6 -5 8 -13l-18 -20.5t-16.5 -21.5t-11.5 -23t-3 -26 q1 -13 4.5 -25.5t1.5 -26.5q6 -14 10 -28t12 -27q8 -4 16.5 -3.5t16.5 2.5q13 10 27.5 14t28.5 12q19 16 39.5 27.5t37.5 30.5q39 19 66 58t33 82h-3q-21 -32 -49.5 -55.5t-54.5 -49.5q-10 -3 -18 -9.5l-16 -13l-16.5 -13t-17.5 -9.5q-6 -2 -12 -1.5t-10 6.5q14 21 25 43.5 l22 45.5q5 18 3 38.5t-7 37.5q4 14 14.5 20.5t20.5 14.5q20 12 23 31.5t3 39.5q1 9 -1 16.5t-6 14.5t-8 13t-6 14q-11 10 -23.5 8.5t-24.5 -3.5q-11 -5 -20 -3t-20 0q-28 -7 -52.5 -21.5l-49.5 -28.5q-9 -5 -17.5 -11.5t-17.5 -11.5q2 8 4.5 16.5t7.5 15.5q11 10 24 16 t27 11q25 25 53.5 44t57.5 34l42 41q13 15 20.5 32l15.5 34q2 10 1 21.5t1 22.5q0 8 1.5 17t-6.5 15q-9 4 -19 11t-20 11.5t-20.5 6t-22.5 -4.5q-23 -11 -49.5 -17.5t-45.5 -27.5q-39 -29 -64.5 -68.5t-47.5 -78.5q-25 -33 -43 -68.5l-36 -71.5q-7 -17 -8.5 -35.5 t-5.5 -36.5l-27 -68q-5 -11 -12 -21.5t-9 -22.5q-2 -16 -9 -29.5t-15 -27l-16 -26.5t-13 -27q-5 -10 -12.5 -18.5t-4.5 -21.5zM245 437l16 31t13 32q14 20 24 40.5l21 41.5q7 11 9.5 25t17.5 20q13 10 31 15t33 -4q7 -15 6 -29t-6.5 -26.5t-13.5 -25l-15 -24.5 q-16 -18 -36.5 -28t-38.5 -25l-29 -23.5t-32 -19.5z" />
<glyph unicode="l" horiz-adv-x="261" d="M13 158.5q-2 -24.5 6 -46.5q1 -23 7 -43t10 -41q5 -10 13 -17t19 -8q76 10 133 64q19 6 34 20.5t26 31.5q51 45 57 111l-9 -6l-54 -61.5t-57 -56.5q-14 -7 -28 -13t-27 -16l-1 1q-10 -10 -26 -12.5t-30 2.5q-3 3 -7 5.5t-3 7.5l10.5 14.5t9.5 15.5l38.5 94.5l35.5 95.5 q5 22 17.5 41.5t29 36t35 31.5l36.5 29l31 34q13 10 24.5 23t16.5 29q10 11 17.5 23t9.5 27q0 10 2.5 20t4 20.5t1 20.5t-6.5 19q-5 12 -15.5 14.5t-19.5 7.5q-29 5 -55 -5t-46 -30q-32 -22 -56.5 -50.5t-44 -60t-37 -64.5l-35.5 -64l-19 -59q-7 -36 -17.5 -70.5 t-19.5 -70.5q-8 -20 -10 -44.5zM191 401q8 22 22.5 39t22.5 39l31 69q16 20 30 40t27 41q4 3 12 7q5 0 9.5 -2.5l9.5 -5.5q5 -11 3 -22t-3 -22q-9 -16 -17 -32l-17 -33q-17 -14 -31.5 -27.5t-27.5 -31.5q-20 -12 -36.5 -28t-34.5 -31z" />
<glyph unicode="m" horiz-adv-x="716" d="M-2 1q-2 -6 3 -13q7 -8 16.5 -5.5l17.5 4.5q10 5 20.5 4.5t21 -1.5t20.5 -0.5t19 6.5q20 19 28 43.5t20 47.5q20 29 33 61t31 62q2 6 5.5 7t7.5 1.5t8 1.5t7 6q24 24 44 51t49 46q8 5 17.5 8.5t18.5 -1.5l-8 -27q-13 -32 -24.5 -65t-29.5 -63q-11 -17 -18 -36l-14 -37.5 t-15 -37.5t-20 -36q-3 -8 -8 -15.5t-3 -16.5q10 -8 23 -6t24 3q18 5 39 5.5t39 -0.5q12 4 13 16t6 21q13 28 18 58t17 58q25 34 58.5 63.5t57.5 64.5l26 22q17 11 36.5 20t41.5 7q-8 -23 -25 -41t-32 -38q-22 -28 -35.5 -59t-21.5 -66q-3 -12 -5.5 -26t-3 -28t3 -27 t13.5 -23q6 -10 13 -19.5t17 -14.5q22 -6 41 5.5t36 25.5q32 27 61.5 57t51.5 65l18 38t12 40q-33 -41 -70 -80t-77 -75q-7 -5 -15.5 -8t-16.5 0l34 57.5t30 59.5q11 20 14 41.5t11 41.5t7.5 43.5t-3.5 45.5q-2 5 -4 11t-8 10q-5 4 -10 9t-10.5 9.5t-12 7t-13.5 0.5 q-23 -9 -44 -20.5l-43 -24.5l-30.5 -23.5t-24.5 -30.5q-5 -8 -14 -15t-17 -12q2 14 2.5 28.5t0.5 28.5q-1 13 -3 27t-15 22q-23 9 -50 9q-26 0 -49 -9q-15 -3 -27 -11.5t-23 -20t-21 -23.5t-22 -21l4 15.5t2 15.5q2 18 -6 34t-24 24q-20 0 -41 -0.5t-36 -15.5l-46 -40 t-42 -45t-32 -51t-14 -57q1 -1 5 -1q12 7 20 17t15 21l14 21.5t18 19.5q7 5 14 11.5t15 4.5q-8 -21 -18.5 -42l-21.5 -41q-22 -36 -35.5 -75.5t-33.5 -75.5q-2 -6 -7 -11.5l-9.5 -10.5t-6.5 -11z" />
<glyph unicode="n" horiz-adv-x="511" d="M2 2q0 -8 6 -11q13 -8 23 -0.5t21 11.5q10 6 21 7.5t22 1.5q12 0 24 -0.5t24 1.5q8 7 7.5 16.5t1.5 19.5q4 20 12.5 36.5t14.5 34.5q11 19 21 39l20.5 39.5t23.5 37.5t31 35q9 8 20.5 13t14.5 18l30 19q17 7 36 14t36 0q-11 -11 -20.5 -22l-19.5 -22q-18 -26 -37 -50.5 t-32 -53.5q-10 -32 -11.5 -67.5t7.5 -69.5q3 -10 11 -16.5t16 -11.5q6 -8 10.5 -18t17.5 -11q24 0 44 10.5t37 26.5t33 35t32 34q56 53 62 126l-3 2q-26 -41 -56.5 -77t-68.5 -71q-15 -12 -29.5 -27t-33.5 -17l-3.5 3.5t-2.5 3.5q-3 5 -3 12q0 8 2 14q22 44 49.5 85l55.5 81 q8 14 15 29t5 33q-2 19 -10.5 37.5t-28.5 23.5q-1 5 -3 11.5t-7 9.5q-24 4 -45.5 0.5t-42 -12t-39.5 -20l-37 -23.5q-5 11 -2.5 22.5t0.5 22.5q-4 6 -10 8t-12.5 3t-13 0.5t-12.5 0.5q-6 -1 -10 -5.5t-10 -4.5q-42 -28 -83 -62.5t-72 -77.5q-4 -7 -7.5 -18.5t-5.5 -19.5 t-2 -9l36.5 33.5t39.5 33.5q7 5 15 12t17 10l-16.5 -33.5l-17.5 -33.5q-3 -3 -2 -5t-3 -4l-31 -62t-36 -60q-9 -19 -21 -35t-15 -36z" />
<glyph unicode="o" horiz-adv-x="343" d="M12 163q-5 -31 7 -60q11 -11 18 -25.5l13.5 -28t16.5 -25.5t27 -19q13 -8 26 -8t25.5 4t24.5 11l23 13q37 29 70.5 67t50.5 82q17 -2 36 0t35 11q8 5 14.5 12.5t11.5 14.5q2 5 4.5 10t2.5 10q-20 -8 -42 -13.5t-42 -4.5l-6 3q7 14 9.5 29t7.5 30q3 18 3.5 38t-9.5 36 q-12 11 -30 8l-10 12q-7 6 -17.5 7.5t-18.5 -2.5q-13 4 -28.5 4.5t-29.5 -1.5q-25 -11 -50 -20t-47 -27q-26 -25 -49.5 -51t-34.5 -58q-7 -28 -12 -59zM121 52q0 6 1 10l1 33q8 10 10.5 21t4.5 22q17 91 63 165q6 8 12.5 14.5t16.5 7.5q-12 -33 -5 -69.5t33 -61.5 q1 -4 4.5 -6t6.5 -4.5t4 -5t-3 -7.5q-17 -38 -47.5 -69t-66.5 -52q-8 -2 -15 -7t-16 0q-4 4 -4 9zM266 271q-2 27 11 49q4 4 7 5q7 -2 12.5 -5t7.5 -11q4 -20 -1.5 -40l-10.5 -38q-11 6 -17.5 17.5t-8.5 22.5z" />
<glyph unicode="p" horiz-adv-x="548" d="M-108 -196q-4 -9 3 -16q8 -9 18 -8q15 6 30 10t30 9q14 5 26 1t24 -4q11 0 16.5 5.5t8 13.5t4 17t4.5 17q20 49 45.5 95.5l51.5 93.5q5 8 13 16.5t13 16.5q17 26 29 54.5t31 54.5q2 -3 9 -3q7 3 13 9q19 20 37.5 41.5l37 42t39 39t44.5 31.5h7q-1 -11 -1 -21t-4 -19 l-33.5 -54l-34.5 -53q-8 -14 -18 -27t-15 -28q-8 -24 -7 -50.5t13 -48.5q3 -5 7.5 -11t7.5 -7q-1 -2 1.5 -3t3.5 -3q6 -5 12.5 -1t11.5 6q24 -10 48 -2t43 24q19 18 40 35t40 36t34 40t21 46q2 2 1.5 5t1.5 5l1 7q-30 -22 -56.5 -49.5l-52.5 -52.5l-28 -23t-26 -26 q-14 -11 -31 -10.5t-31 2.5q-8 4 -8 9q8 12 19 21t19 22q7 -1 11.5 2t8.5 7q25 30 46 63t34 69q3 15 5 31t1 32t-6 30.5t-16 25.5q-2 16 -14 27q-12 4 -29 1q-26 -9 -48.5 -24.5t-43 -35t-39.5 -40l-38 -39.5q1 11 6 21t10 19q2 21 7 42.5t0 44.5l-7 10l-12.5 4t-13.5 1 q-6 -2 -12 -5.5l-12 -7t-12 -5.5t-13 1q-50 -21 -93 -60l-34.5 -32.5t-33 -34.5t-27.5 -38t-18 -42l1 -1l55 47t55 45q7 13 20 22t26 14q-15 -39 -38.5 -75l-44.5 -71q-23 -48 -47.5 -93.5t-41.5 -95.5q-11 -31 -30.5 -58.5t-36.5 -55.5q-8 -13 -19 -24.5t-19 -25.5z" />
<glyph unicode="q" horiz-adv-x="496" d="M22 122q2 -17 5 -34t14 -30q11 -8 23 -12.5t23 -12.5l8 -13.5t12 -11.5q10 -8 21.5 -8.5t22.5 3t22 9t20 10.5l40 31t40 34h2q-4 -8 -7 -11q-32 -52 -61 -105.5t-63 -105.5l-25 -31q-6 -9 -13.5 -17.5t-6.5 -21.5q1 -2 3 -3t4 -3q5 -2 9.5 -1.5t9.5 1.5q17 9 35.5 14.5 t38.5 6.5q14 2 23.5 1t22.5 1q11 8 17.5 18.5t11 22t8 23.5t8.5 23q48 86 91.5 172.5l90.5 172.5q8 6 14.5 13t10.5 15q10 23 21 44t16 44q2 5 -1 8t-6 7q-19 4 -35.5 -3t-35.5 -5q-10 -3 -21.5 -1t-20.5 -3q-12 -3 -17 -10t-7 -16.5t-3.5 -19.5t-6.5 -18q-2 -6 -7 -4 q-7 8 -6 19t0 22q-5 9 -12 14t-15 7.5t-17 4t-17 4.5q-7 7 -15 9t-16.5 1.5t-17.5 -2t-17 -2.5q-41 -11 -74.5 -35t-61.5 -56q-8 -2 -13.5 -7.5t-12.5 -10.5q-21 -32 -37 -67.5t-19 -73.5zM132.5 67.5q-0.5 7.5 0.5 15.5t1 15q2 9 5.5 17t5.5 16q8 3 14 11q-2 2 0 3.5t3 3.5 h3q-4 6 -1 12t4 12q8 21 18 44.5t23.5 44.5t32 37t44.5 22q11 2 19.5 -2.5t17.5 -6.5q-1 -15 6 -28l14 -25q0 -9 -3 -17t-7 -15.5t-5.5 -15.5t1.5 -17q-16 -33 -45.5 -57l-57.5 -47q-20 -12 -38.5 -26t-41.5 -18q-7 3 -10 8.5t-3.5 13z" />
<glyph unicode="r" horiz-adv-x="358" d="M-16 183l1 -1q5 3 8 6.5l7 8.5q30 34 65.5 63.5t72.5 53.5l1 -2q-7 -26 -17.5 -50t-18.5 -50l-16 -31t-14 -32q-19 -52 -49 -102q-2 -7 -7 -13.5l-9.5 -12.5t-6.5 -13t1 -15q9 -11 20 -12q20 7 40.5 7.5t37.5 12.5q12 2 26 1.5t21 12.5q18 34 29.5 70.5t25.5 72.5 q9 12 21.5 23.5l24.5 22.5q9 6 14.5 14.5t10.5 17.5t10.5 17t13.5 14q2 -14 3.5 -28t6 -26.5t12 -23t21.5 -16.5q9 -4 19 -2t18 6q14 9 20 22t7 27q-8 -5 -17 -8.5t-19 -5.5q-4 0 -8.5 1.5t-6.5 6.5q-11 22 -9.5 48t3.5 49q2 8 8 15.5t8 16.5q3 7 7.5 14t0.5 15 q-5 10 -17 15q-5 2 -9 0.5t-8 -3.5q-27 -32 -50 -65l-47 -67h-1q2 21 6.5 41t9.5 40q3 9 1 16.5t-6.5 13.5t-10.5 12t-10 12q-4 4 -10.5 3.5t-11.5 -2.5q-4 2 -14 2q-29 -11 -55.5 -30.5l-51.5 -39.5q-35 -29 -66 -63.5t-36 -79.5z" />
<glyph unicode="s" horiz-adv-x="281" d="M3.5 67.5q-6.5 -29.5 5.5 -57.5q11 -13 26.5 -19.5t30.5 -11.5q18 -2 38.5 -6t38.5 4q21 14 44.5 25.5t39.5 35.5q16 17 30.5 35t21.5 40q3 26 -2 51.5t-7 51.5q0 12 -4 22.5t-9.5 20t-10.5 19t-6 21.5q-3 9 0 15.5t7.5 12.5t10.5 12t9 12q4 8 9 15.5t8.5 15.5t5 16.5 t-2.5 18.5q-2 5 -7.5 7t-10.5 3q-13 -6 -23.5 -16t-21.5 -18l-13 -14.5t-10 -15.5l-50 -32q-19 -15 -41.5 -31t-42.5 -33.5t-35.5 -38.5t-20.5 -47h3q40 34 81.5 64l83.5 59h4q2 -17 7 -33t3 -35q-9 -35 -15.5 -71t-28.5 -64q-7 -13 -17 -22.5t-21.5 -17.5t-23 -15 l-22.5 -14q-8 -3 -15 4q-1 5 1 11q8 11 14 22t4 26q2 23 -20 35q-7 2 -11.5 -2t-9.5 -9q-18 -22 -24.5 -51.5z" />
<glyph unicode="t" horiz-adv-x="246" d="M-10 105q8 -26 21.5 -50t25.5 -48q12 -7 23 -6t21 6.5t19.5 13t18.5 13.5q13 11 22.5 25.5t26.5 22.5q37 25 66.5 61.5t34.5 79.5l-48.5 -51t-52.5 -46q-9 -8 -19.5 -12t-19.5 -12q-5 -11 -15 -15t-18 -12q-3 -1 -5.5 -3t-4.5 1l8 19.5t6 19.5q14 60 38.5 116l50.5 111 q12 18 19.5 39t27.5 35q6 9 14.5 10.5t17.5 0t18 -4t17 -2.5q9 2 14 11q-1 8 2 14.5l6.5 13.5l7 14t3.5 15q-2 3 -6.5 7t-9.5 2l-29.5 -10.5t-30.5 2.5q4 13 9.5 25.5t12.5 24.5q4 10 8 19t2 20q-4 8 -14 6q-18 -14 -38.5 -13t-42.5 3q-2 1 -4 0t-2 3h-1v-2h1l-14.5 -2 t-11.5 -9q-5 -20 -10.5 -39t-13.5 -37q-12 -13 -29 -16t-34 0q-2 3 -5.5 4t-2.5 6q-1 4 -4 5.5t-6 1.5q-5 0 -8.5 -3t-5.5 -7q-11 -14 -20.5 -29.5t-13.5 -32.5q4 -9 12 -11q11 -1 20 6q16 3 31 2t31 -4q-6 -23 -15.5 -44.5t-21 -42.5l-23.5 -41.5t-22 -42.5 q-13 -19 -21 -41q-6 -23 -12.5 -44t-0.5 -46z" />
<glyph unicode="u" horiz-adv-x="429" d="M12 95q11 -23 17.5 -47t22.5 -44q8 -8 17 -10.5t19 -4.5q4 1 8.5 3t6.5 6q14 5 26.5 14t27.5 13q22 13 43.5 28.5t38.5 36.5q2 -8 5.5 -14t6.5 -13q1 -14 8 -23t17.5 -16t22.5 -12t22 -10q11 -3 20 2t16 13q16 20 33.5 39t31.5 40q23 28 37 59.5t14 69.5 q-26 -44 -60.5 -86t-72.5 -79l-6 -2q-7 -1 -13 5q-5 14 3.5 23t12.5 19q13 54 34.5 103t38.5 101q14 12 20 28.5t1 34.5l-5 6q-11 6 -22.5 5t-21.5 -6q-8 -3 -15.5 -1.5l-15.5 3t-15 1t-13 -7.5q-17 -20 -27.5 -44t-19.5 -47q-6 -23 -15 -43.5t-15 -42.5q-4 -9 -6 -19 t-4.5 -20t-7 -19t-13.5 -16q-18 -24 -42 -41t-52 -24q-5 -2 -11.5 -2.5t-11.5 2.5q-5 5 -4.5 10t3 9.5t5.5 9t4 9.5q11 37 19.5 74t20.5 72q3 13 9.5 24t15 21l17.5 20.5t15 21.5q4 12 -3 25q-6 13 -15 15t-20 -0.5t-22.5 -6.5t-21.5 -2q-5 -2 -8.5 0.5t-7 4.5t-7 3.5 t-8.5 -1.5q-18 -11 -18 -34q-14 -25 -23 -50.5t-17 -52.5q-8 -32 -17 -64.5t-3 -68.5z" />
<glyph unicode="v" horiz-adv-x="399" d="M2 193q-1 -3 2 -5l30.5 40.5t32 42t34.5 39t40 32.5q5 2 13 4.5t13 -3.5l-27.5 -35t-30.5 -33q-18 -17 -24.5 -38.5t-14.5 -42.5q-6 -24 -14 -48t1 -50q-6 -18 -1.5 -35.5t12.5 -32.5q9 -11 17.5 -24t24.5 -16q65 0 115 45q8 17 24.5 26.5t29.5 24.5q19 16 32.5 36 t28.5 39q7 -5 16.5 -6.5t18.5 0.5q24 6 39 29t18 45q-14 -5 -25.5 -16.5t-27.5 -13.5q-2 1 -5 2t-5 3q22 33 26 73q6 25 6 53t-18 49q-15 15 -34 11q-15 -8 -27.5 -21.5t-19.5 -28.5q-9 -18 -9.5 -36.5t2.5 -37.5t7.5 -38.5t6.5 -37.5q-13 -24 -31.5 -46.5t-40.5 -42.5 q-13 -9 -25.5 -20.5t-25 -21.5t-26.5 -16.5t-31 -4.5q-10 8 -13 19q6 5 12.5 7.5t12.5 9.5l26 57t29 56q9 26 22.5 50.5t17.5 53.5q1 21 4.5 43t-4.5 42q-14 17 -37 15q-9 -4 -20.5 -3t-21.5 1q-15 0 -26 -8.5l-22 -17.5l-36 -35.5t-33 -38t-25 -41.5t-12 -47q0 -3 -1 -6z M332.5 305q1.5 10 8.5 19q1 3 4 6.5t6.5 6t6 1.5t4.5 -8q1 -23 -4.5 -44.5t-13.5 -41.5q-2 9 -5.5 19.5t-5.5 21t-0.5 20.5z" />
<glyph unicode="w" horiz-adv-x="632" d="M0 188h2l21 26q20 28 47.5 46t53.5 38q5 2 9 5t9 -2q1 -4 -3 -10l-35 -26.5t-28 -33.5q-21 -24 -25 -56.5t-6 -64.5q2 -16 4.5 -34t14.5 -31q11 -7 21 -17.5t21 -18.5t23.5 -10.5t28.5 5.5q21 14 41.5 31l40.5 34q17 8 28 24t25 27l10 -34.5l10 -35.5q8 -21 26.5 -33.5 t41.5 -13.5q26 2 47 13.5t42 24.5q33 26 58 59t45 68q17 -3 34 2q23 4 41.5 25.5t26.5 42.5q-13 -9 -26.5 -16.5t-27.5 -9.5q-8 -1 -15.5 -1.5t-12.5 4.5q6 19 12 40.5t8.5 43.5t1 44t-10.5 43q-1 4 -5 6.5t-8 4.5q-9 4 -18.5 1t-17.5 -10q-14 -14 -31.5 -28.5t-20.5 -34.5 q-2 -32 5.5 -61t17.5 -57q1 -6 5 -11t7 -11q-9 -23 -26.5 -43.5l-34.5 -40.5q-18 -19 -38.5 -34.5t-48.5 -11.5l-13 8q-7 8 -8.5 19t1.5 22l16 45.5l16 45.5q12 29 23 58.5t30 55.5q5 14 14.5 26t7.5 28q-2 11 -9 14q-19 3 -34 -6.5t-32 -11.5q-11 -5 -19.5 1t-17.5 8 l-10 -2t-8 -3q-19 -31 -27.5 -66t-20.5 -69l-12 -23q-15 -20 -29 -41.5t-29 -42t-33 -38.5t-42 -29q-8 -2 -15.5 -1.5t-12.5 5.5q-2 3 -5 7t-2 9q2 13 10 23t12 23q2 8 1.5 17t7.5 14l30.5 34t28 35t20.5 38t8 43q-5 15 -4 31.5t-7 30.5q-3 5 -8 9t-11 2q-20 -5 -39 -13.5 l-38 -17.5q-30 -16 -58 -37.5t-48 -50.5l-15.5 -32.5t-8.5 -34.5zM550.5 284.5q-4.5 23.5 2.5 45.5q2 5 4.5 8.5t7.5 4.5l3 -18q0 -20 0.5 -41.5t-6.5 -39.5q-7 17 -11.5 40.5z" />
<glyph unicode="x" horiz-adv-x="507" d="M-10 29q2 -10 9 -17.5t15 -13.5q25 -14 53 -8.5t49 18.5q21 21 45.5 35t50.5 25q4 -20 15 -36.5t25 -32.5q14 -12 35 -14t37 6q15 11 32 15t33 15q43 33 82 73q28 24 47 56.5t20 69.5q0 2 -1 2q-16 -17 -30 -35.5l-27 -36.5q-29 -23 -53.5 -51.5t-55.5 -45.5l-38 -14 q-10 -4 -19.5 -10t-20.5 -1q-3 26 -0.5 51t5.5 51q6 30 18.5 58t23.5 56q9 14 17 29.5t18 29.5t22 26t28 20q17 3 32 -3t29 -14q1 9 0 17.5t-5 15.5q-6 9 -14.5 16t-19.5 5q-20 6 -37 1t-31.5 -15.5t-27.5 -24t-26 -24.5q-19 22 -42 43t-53 20q-17 6 -34 2t-31 -12 l-27.5 -15t-28 -17.5t-23.5 -22.5t-14 -29q-3 -10 -2.5 -21t6.5 -19q4 7 9.5 12l11.5 11q12 12 22.5 25t25.5 21q7 3 14.5 8t15.5 8t16.5 3.5t16.5 -4.5q7 -16 9 -33l4 -35l-12 -33.5l-12 -33.5q-13 -18 -24 -36.5l-22 -38t-23 -38t-27 -36.5q-9 -7 -19 -12l-20 -10 q-10 2 -19.5 3.5t-14.5 10.5q-5 12 -2 23t8 22q2 3 6.5 6t2.5 8q-12 1 -21 -5.5t-17 -14.5q-10 -11 -14.5 -25.5t-0.5 -28.5z" />
<glyph unicode="y" horiz-adv-x="513" d="M-48 -197q-1 -11 3.5 -19.5t12 -16t16.5 -14l17 -12.5q23 -11 48 -5.5t45 14.5q33 14 61.5 37t53.5 49l1 3q12 5 22.5 13.5t20.5 17.5q12 17 22 35t24 34l32.5 15t29.5 17q25 7 46 21.5t40 32.5t36.5 38t36.5 38q20 20 32 45.5t18 52.5q0 8 1.5 14.5t0.5 12.5 q-5 -2 -6.5 -6.5t-6.5 -8.5q-7 -15 -18 -28t-20 -29l-48 -50t-46 -50q-9 -13 -21.5 -20t-25.5 -13l-26 -12.5t-24 -17.5l-4 1l33.5 69t24.5 74q13 35 27 68.5l28 67.5q5 11 8 24t13 23q2 7 7 13t9.5 12.5t7.5 14t1 16.5l-5.5 5.5t-6.5 3.5q-9 -1 -17 -4.5l-16 -7t-16 -6 t-17 -0.5q-14 2 -28 3.5t-24 -12.5q-22 -51 -37.5 -104t-33.5 -106q-11 -23 -29 -42t-38 -37l-30.5 -24.5t-35.5 -14.5q-5 2 -9 3t-6 6q-7 17 -6 35t3 36q16 32 39 62.5l44 60.5q15 20 18 45.5t-7 47.5q4 11 5 22t-6 21q-7 7 -18 7q-28 -11 -54.5 -22.5t-50.5 -29.5 q-29 -21 -57 -50t-38 -64q0 -7 -2 -14t0 -14q12 5 24 19q19 36 50.5 61t65.5 44q1 -1 1 -3q-31 -34 -58.5 -68t-42.5 -75q-6 -17 -8 -35t0.5 -36t9.5 -34.5t20 -29.5q5 1 6.5 -2.5t4.5 -3.5l17 -16.5t20 -12.5q17 -3 32 0.5t29.5 10t28 14t27.5 13.5q-13 -20 -23.5 -41.5 t-24.5 -41.5q-41 -11 -80.5 -25.5t-77.5 -35.5q-9 -10 -21 -18t-23 -16.5t-19.5 -19t-11.5 -25.5zM-3 -199q3 10 10.5 16t13.5 13q32 25 67.5 41t73.5 27q-14 -28 -32 -55.5t-45 -46.5q-9 -3 -18.5 -8.5t-19.5 -9.5t-20 -4.5t-20 7.5l-7.5 9.5t-2.5 10.5z" />
<glyph unicode="z" horiz-adv-x="424" d="M15 2q1 -5 1.5 -9t5.5 -6q9 -3 17 -1t15.5 7.5t14.5 12t13 11.5q12 3 22.5 10.5t21.5 14.5t22.5 11.5t25.5 1.5q11 -13 23.5 -25t26.5 -21l18 -10t21 -3q14 1 23 11.5t22 12.5q42 26 74 60t63 72q11 15 15.5 33.5t9.5 36.5l-3 2l-69 -82t-79 -70l-22.5 -10t-22.5 3 q-3 9 -3 19q0 11 -1 20.5t-4.5 18.5t-13.5 15q-9 2 -17.5 -0.5t-16 -6t-15 -8t-15.5 -6.5q-2 -2 -6 -1.5t-7 0.5q1 4 4 5.5t4 5.5l54.5 61t56.5 58q16 8 29.5 17.5t27.5 20.5q17 17 32 35.5t13 42.5q-5 12 -17 8q-21 -15 -43 -26.5l-45 -24.5q-11 -1 -22.5 -4t-22.5 -7 q-8 -2 -15.5 -7.5t-18.5 -5.5q-7 2 -9 6q-5 16 -5.5 33t-11.5 31q-5 6 -11.5 5t-14.5 -1q-28 -14 -52 -36t-44 -47q-2 -16 -12.5 -30t-16.5 -29q-1 -11 -4.5 -22.5t-0.5 -22.5q2 1 3 0t2 1q12 17 24.5 32.5l25.5 30.5q4 10 11 19t19 11q3 -16 15 -22q13 -11 28 -12.5t30 2 t29 10t26 13.5q6 2 10.5 5t9.5 4q-6 -5 -10.5 -11.5t-11.5 -11.5q-29 -37 -61.5 -71.5t-63.5 -71.5q-14 -11 -30 -22t-30.5 -24.5t-25.5 -28.5t-15 -33z" />
<glyph unicode="&#xa1;" horiz-adv-x="414" d="M27 -105q5 -8 14 -9q16 3 29.5 12.5t30.5 12.5q11 5 24 1.5t25 -1.5q13 11 17.5 25.5t8.5 29.5q7 32 21.5 61.5l28.5 59.5q12 23 27.5 45.5t18.5 51.5q2 14 11.5 25t16.5 23q5 15 11 30t-1 31q-6 8 -12 8.5t-12.5 -2.5t-13 -7t-12.5 -4q-12 -1 -22.5 4.5t-22.5 -0.5 q-5 -2 -7 -7l-4 -10q6 -32 -8.5 -58.5t-31.5 -51.5q-11 -26 -24 -51.5t-24 -51.5q-20 -34 -34.5 -70t-42.5 -65l-10 -14.5t-2 -17.5zM261.5 410q-4.5 -25 9.5 -43q5 -8 12 -11t15 -2t15.5 4t14.5 7q15 11 26 26.5t11 33.5q15 22 10 54q2 4 3 7.5t0 8.5q-3 8 -13 11 q-35 -2 -62 -20q-7 -8 -12 -17.5t-14 -16.5q-11 -17 -15.5 -42z" />
<glyph unicode="&#xaa;" horiz-adv-x="480" d="M25.5 132.5q8.5 -43.5 37.5 -73.5q7 -19 20 -35.5t33 -25.5q11 -2 25 -2q15 0 26 11q28 23 50.5 50t39.5 58q-3 -30 6 -57.5t27 -50.5q8 -7 20 -9.5t23 3.5q38 17 71 45.5t56 65.5l23.5 34.5t16.5 37.5q2 11 4.5 21t0.5 21q-11 -4 -16 -15.5t-13 -19.5q-21 -36 -49.5 -70 t-63.5 -60q-6 -2 -12 -6t-12 -6.5t-13 -2.5q-6 0 -12 5q-5 2 -6.5 6.5t-1.5 8.5q-3 13 2.5 22t14.5 16.5t18.5 14.5t14.5 17q10 22 17.5 45.5l14.5 47t16.5 46t24.5 43.5q6 9 14 15t16 16q3 9 10 17.5t2 19.5l-7 7q-13 2 -26 0t-25 -5q-10 -4 -19.5 -2t-18.5 3.5t-18 0 t-16 -10.5l-28 -68q-7 20 -18.5 39.5t-33.5 26.5q-29 10 -58.5 -0.5t-52.5 -30.5q-6 -1 -12 -2.5t-11 -5.5q-32 -23 -56.5 -55t-39.5 -67q-14 -40 -5.5 -83.5zM127 69q-8 42 2.5 79.5t26.5 72.5q13 8 15.5 22t9.5 27q7 21 21.5 42.5t37.5 25.5q14 2 22.5 -7.5t14.5 -19.5 q5 -11 9 -22.5t6 -22.5q-8 -26 -19 -50.5t-21 -50.5l-35.5 -54.5t-45.5 -49.5q-7 -5 -14 -8.5t-15 -1.5q-8 0 -10.5 6.5z" />
<glyph unicode="&#xac;" horiz-adv-x="521" d="M29 168q-4 -47 13 -89q-2 -19 1.5 -38.5t16.5 -34.5q8 -10 19 -12.5t22 -0.5q22 9 43 19t41 24q26 30 53.5 55.5l57.5 51.5l5 1q0 -20 1 -38.5t7 -35.5q6 -7 9 -15t5.5 -16t6 -15.5t10.5 -13.5q11 -5 21.5 0t21.5 6q22 5 40 20.5t32 33.5q12 12 21 25t17 26.5t17.5 27 t23.5 24.5l25 19t21 24l-1 2q-14 3 -26.5 0.5t-23.5 -7.5q-27 -20 -46.5 -48l-37.5 -54l-12 -9q-11 -19 -27.5 -32.5t-39.5 -14.5q-5 3 -5.5 9t-0.5 11l23.5 81.5t26.5 79.5q4 16 14.5 29t23 23.5t27 19.5t27.5 18l30.5 34t32.5 33q11 20 24 38.5t20 40.5q15 21 26.5 43.5 t11.5 49.5q-2 15 -3 32t-16 25l-39.5 6t-36.5 -11q-26 -4 -47 -19.5l-42 -31.5q-11 -8 -18 -18t-13.5 -20.5t-13.5 -20.5t-17 -18q-17 -26 -29 -53.5t-23 -56.5q-19 -31 -28 -65t-15 -70q-2 -14 -4.5 -29t-10.5 -28q-29 -20 -52 -46.5t-51 -49.5q-10 -16 -24 -25.5 l-28 -19.5l-16.5 -6.5t-16.5 1.5q-12 3 -10.5 14t1.5 19q11 26 19.5 54l17.5 57l22.5 55t19.5 56q1 14 11 22.5t20 18.5q25 9 42 28.5t37 37.5q19 18 32.5 39.5t33.5 37.5q20 15 26 35.5t18 40.5q4 9 8 19t1 21q-9 12 -17 24.5t-22 21.5q-17 9 -34 -3q-26 -2 -50.5 -12.5 t-43.5 -32.5q-24 -11 -39 -30.5t-32 -38.5q-14 -9 -23.5 -22t-17.5 -26q-27 -51 -42.5 -107t-33.5 -111q-14 -42 -18 -89zM207 382q11 17 17.5 37t21.5 37q16 32 34.5 64t34.5 64q-1 11 9 15.5t18 7.5q7 0 13 -6t9 -11q1 -11 -2 -21t-7.5 -20t-9.5 -19t-9 -19 q-17 -13 -27.5 -29t-23.5 -31q-19 -22 -38.5 -37.5zM447 324q15 47 36 88.5t40 86.5q14 22 30.5 43t24.5 44q8 2 16 3t15 -4q6 -14 2.5 -31t-9.5 -30q-15 -16 -22.5 -35t-17.5 -36q-18 -37 -49.5 -68l-60.5 -59z" />
<glyph unicode="&#xad;" horiz-adv-x="290" d="M35 220q2 -6 6.5 -7t8.5 -1q19 5 36 12.5t35 13.5q28 5 57 3t56 -6q7 -2 12.5 -8.5t13.5 -3.5q10 6 15.5 17t7.5 22q4 6 9.5 11.5t10.5 11.5t7 13t-2 15q-2 7 -8.5 10t-13.5 1q-8 -8 -17 -12.5t-19 -7.5t-20 -5.5t-19 -6.5l-96 -1q-8 3 -12.5 10t-13.5 8q-5 -1 -9 -2 t-6 -6l-14 -38l-25 -33v-10z" />
<glyph unicode="&#xb0;" horiz-adv-x="321" d="M28 394q2 -11 9 -18.5t11 -16.5q5 -5 8.5 -11t6.5 -12t7 -10.5t12 -5.5l26 -4t27 0q30 16 62 20q20 12 33 31t24 39q19 17 26.5 38.5t6.5 44.5q2 7 5 12.5t3 13.5q1 15 -2 29.5t-17 24.5l-29.5 13.5t-30.5 11.5q-20 11 -43 7.5t-43 -9.5l-22 -11.5t-22 -15t-16.5 -19.5 t-5.5 -24q-31 -57 -36 -128zM104 398q2 27 10 53t19 49q14 20 33.5 32t44.5 11q7 -2 15.5 -1.5t14.5 -4.5q7 -5 9.5 -11.5t1.5 -14t-2.5 -14.5t-1.5 -13q-2 -14 -5 -27.5t-15 -21.5q-12 -11 -19 -25.5t-20 -26.5q-6 -7 -14 -8t-16 -6q-19 -9 -44 -4q-6 8 -7.5 16.5 t-3.5 16.5z" />
<glyph unicode="&#xb2;" d="M9.5 31q0.5 -11 8.5 -17q8 0 15 -3.5t14 -7.5t13.5 -8.5t14.5 -5.5q12 -3 22.5 -0.5t20.5 8.5t18.5 14t17.5 15l21.5 17t23.5 16q5 6 11.5 7.5t13.5 0t13.5 -4.5t12.5 -5l9 -14q19 -17 39.5 -31t46.5 -19q12 2 22 8.5t23 7.5q29 9 47.5 36.5t22.5 57.5q0 20 -15 28 q-1 2 -6 -1q-5 -19 -13.5 -35t-20.5 -33q-18 -20 -45 -20q-8 2 -14 5.5t-10 11.5l-26 72l-13 22q-2 11 5 18t12 15q5 1 9 3t9 4l63 46.5t57 55.5q8 8 13 18t15 17q29 24 36.5 60t-1.5 71q-6 19 -21.5 33.5t-25.5 32.5q-5 11 -13.5 16.5t-19 8t-21 4t-20.5 4.5 q-17 0 -33 -4.5t-31 -11.5q-18 -4 -36 -9.5t-34 -16.5q-14 -7 -21.5 -17.5t-13 -22.5t-9 -24.5t-9.5 -23.5q-6 -16 0 -30q1 -6 9 -8q7 0 11 4q9 12 15.5 25l13.5 26t16 24.5t21 20.5q7 5 15.5 7t17.5 3.5t17 4.5t15 9q6 2 13 2.5t12 -1.5q12 -5 11.5 -17t2.5 -22 q-5 -46 -19 -87.5l-28 -84.5q-9 -16 -14 -33t-16 -32q-19 -6 -30.5 -22l-22.5 -31q-3 1 -6 4t-5 6q-12 8 -26.5 11.5t-30.5 3.5q-15 0 -30 -3.5t-27 -10.5q-32 -17 -60.5 -41.5t-51.5 -54.5q-1 -14 -7.5 -26.5t-11.5 -25.5q-2 -9 -1.5 -20zM54 56l13 29.5t22 25.5 q11 5 20.5 13t20.5 13q15 -5 26 -20t22 -28q-17 -11 -34 -27.5t-36 -27.5q-10 1 -21 -1.5t-18 5.5q-4 5 -10 8.5t-5 9.5z" />
<glyph unicode="&#xb3;" d="M47.5 64.5q2.5 -7.5 7.5 -14.5q10 -24 32.5 -40t46.5 -21q10 -2 18.5 0t16.5 5l16.5 6.5t17.5 3.5q14 2 27 7.5t26 12.5l25.5 13.5t26.5 10.5q40 8 75.5 34t49.5 65q8 10 17 18.5t13 19.5q8 18 7.5 35.5t-6 34t-15 31.5t-19.5 29q-10 13 -23.5 24.5t-15.5 27.5l25 19 q5 5 12 8t13 10q16 34 8.5 73.5t-29.5 67.5q-6 8 -13.5 16.5t-18.5 13.5q-20 10 -43 6.5t-45 -5.5l-47.5 -32l-47.5 -31q-8 -7 -17.5 -13t-18 -13t-14.5 -15.5t-6 -20.5q3 -9 12 -14q8 -4 13.5 0t10.5 8q9 13 21 22.5t24.5 17t25.5 14.5t25 16q14 3 26.5 7.5t26.5 4.5 q5 -1 7.5 -5t4.5 -8q10 -42 -5.5 -80t-47.5 -61q-20 -17 -44 -20t-47 -8q-11 -10 -24 -18t-17 -22q0 -13 10 -17q10 -2 20.5 2t19.5 7q9 6 18 6.5t18 0.5q10 0 19.5 0.5t17.5 6.5q16 4 30 0.5t29 -0.5q9 -5 14 -16q-6 -6 -9 -12.5t-8 -13.5q-11 -29 -18 -58t-16 -58 q-10 -17 -16.5 -35t-25.5 -27q-16 -8 -31.5 -19.5t-31 -21.5t-33 -15.5t-38.5 -0.5q-15 4 -26 17t-15 27q5 15 13 27.5l16 25.5q-6 4 -13.5 7.5t-15.5 -0.5q-15 -10 -25.5 -25t-15.5 -32q-3 -9 -0.5 -16.5z" />
<glyph unicode="&#xb4;" horiz-adv-x="295" d="M36 449q2 -8 9 -10t14 -3q46 5 86 26.5t74 54.5q6 6 13.5 9.5t14 8t11.5 10.5t5 15q-11 10 -26 8t-27 -7q-11 0 -19.5 5t-19.5 0q-13 -5 -13.5 -16.5t-5.5 -21.5q-24 -29 -54 -48.5t-62 -30.5z" />
<glyph unicode="&#xb7;" horiz-adv-x="224" d="M54 199q-4 -23 10 -43q11 -9 21.5 -14t24.5 -1q13 2 23 11t16 19q5 6 6 13.5t9 10.5q9 15 14 34t-3 37q-10 13 -27 20q-25 5 -45 -9.5t-34 -34.5q-11 -20 -15 -43z" />
<glyph unicode="&#x2219;" horiz-adv-x="224" d="M54 199q-4 -23 10 -43q11 -9 21.5 -14t24.5 -1q13 2 23 11t16 19q5 6 6 13.5t9 10.5q9 15 14 34t-3 37q-10 13 -27 20q-25 5 -45 -9.5t-34 -34.5q-11 -20 -15 -43z" />
<glyph unicode="&#xb8;" horiz-adv-x="222" d="M23 -145q0 -14 23 -23t56 -9q51 0 79 14t28 42q0 30 -23.5 43.5t-53.5 13.5q-5 0 -11.5 -0.5t-15.5 -0.5l20 51h-30q-2 -4 -6 -13.5l-8 -19.5l-7.5 -19t-3.5 -12q0 -13 14 -13q34 0 47 -7.5t13 -19.5q0 -29 -41 -29q-17 0 -27.5 2.5t-17 6l-11.5 6t-10 2.5q-14 0 -14 -15 z" />
<glyph unicode="&#xb9;" d="M61 312q0 -3 4 -5q7 -5 17 -4t18 3q10 1 19 5.5t17.5 10t17 9.5t19.5 4q8 2 13.5 4.5t12.5 4.5q19 10 36 23l34 27l6 2q-7 -14 -12.5 -28l-11.5 -29q-7 -17 -16 -32l-17.5 -30.5t-15.5 -32t-8 -35.5q-36 -47 -63.5 -95.5l-54.5 -98.5l-4 -14t0 -15q5 -11 17 -7 q25 16 56 18q17 -3 35.5 -0.5t34.5 -2.5q10 2 14.5 10.5l8.5 16.5q11 42 26.5 82.5t35.5 78.5q11 14 18 29.5t13 31.5l11.5 32t13.5 31q8 28 22 54t26 52q11 18 18.5 38l15.5 40.5t18 39.5t25 36q5 10 12.5 20t2.5 22q-5 8 -13 8.5t-14 -3.5l-61.5 -57l-63.5 -57 q-18 -9 -35 -22t-33 -27l-32 -27.5t-33 -25.5q-20 -12 -41.5 -22t-44.5 -18q-14 -5 -27 -8.5t-24 -16.5q-3 -3 -7 -5t-5 -7q-1 -4 -1 -8z" />
<glyph unicode="&#xba;" horiz-adv-x="343" d="M12 163q-5 -31 7 -60q11 -11 18 -25.5l13.5 -28t16.5 -25.5t27 -19q13 -8 26 -8t25.5 4t24.5 11l23 13q37 29 70.5 67t50.5 82q17 -2 36 0t35 11q8 5 14.5 12.5t11.5 14.5q2 5 4.5 10t2.5 10q-20 -8 -42 -13.5t-42 -4.5l-6 3q7 14 9.5 29t7.5 30q3 18 3.5 38t-9.5 36 q-12 11 -30 8l-10 12q-7 6 -17.5 7.5t-18.5 -2.5q-13 4 -28.5 4.5t-29.5 -1.5q-25 -11 -50 -20t-47 -27q-26 -25 -49.5 -51t-34.5 -58q-7 -28 -12 -59zM121 52q0 6 1 10l1 33q8 10 10.5 21t4.5 22q17 91 63 165q6 8 12.5 14.5t16.5 7.5q-12 -33 -5 -69.5t33 -61.5 q1 -4 4.5 -6t6.5 -4.5t4 -5t-3 -7.5q-17 -38 -47.5 -69t-66.5 -52q-8 -2 -15 -7t-16 0q-4 4 -4 9zM266 271q-2 27 11 49q4 4 7 5q7 -2 12.5 -5t7.5 -11q4 -20 -1.5 -40l-10.5 -38q-11 6 -17.5 17.5t-8.5 22.5z" />
<glyph unicode="&#xbf;" horiz-adv-x="451" d="M33 76.5q-12 -37.5 1 -75.5q5 -18 20 -35t35 -19q16 -14 36 -17.5t40.5 -1.5t40.5 8.5t37 13.5q20 7 36 22t30 32q16 17 25.5 36.5l18.5 39.5q2 10 1.5 20t-8.5 16q-5 8 -11.5 6.5t-13.5 -0.5q-10 -3 -14 -11l-8 -16q2 -6 5 -12.5t8 -8.5q-13 -28 -35 -55t-51 -39 q-13 -3 -27 -7t-28 -6t-27.5 0t-25.5 13q-8 18 -6 39q7 37 21.5 70t38.5 62q9 9 20.5 14t22.5 9t22 9.5t19 15.5l36 19.5t36 23.5t29.5 29.5t17.5 37.5q2 13 -7 20q-8 5 -17.5 1.5t-17.5 -5.5q-17 0 -34.5 2t-31.5 -6q-13 -10 -16.5 -25.5t-5.5 -31.5q-11 -26 -33 -42.5 t-47 -25.5l-21 -1q-21 -8 -39 -22t-34 -30q-26 -29 -38 -66.5zM288.5 423q-1.5 -10 3.5 -21q8 -17 27.5 -19.5t33.5 5.5q9 7 19.5 14t19.5 15t16 17.5t10 22.5q3 16 -1 29.5t-13 25.5q-11 9 -21.5 3t-20.5 -9q-14 1 -25 -7.5t-18 -20.5q-5 -9 -11.5 -18t-12 -18t-7 -19z" />
<glyph unicode="&#xc0;" horiz-adv-x="664" d="M665 840q-3 -10 1 -18t11 -16l42 -41t45 -37l45.5 -22.5t48.5 -7.5l1 3q-26 23 -54.5 43.5t-45.5 51.5q-2 5 -1 10.5t1.5 11t-1 10t-7.5 7.5q-22 10 -44 0q-10 2 -20.5 7.5t-21.5 -2.5zM27.5 86q0.5 -15 5.5 -29t13 -27l16 -25q21 -26 50 -18q27 -4 48.5 10.5t40.5 34.5 q54 62 115 118q14 -5 28.5 -7t28.5 -6q13 -12 32 -11t36 -1q5 -1 11 -1t11 -2l-17 -28q-6 -20 -18.5 -35.5t-23.5 -32.5q-4 -8 -7 -18.5t5 -18.5q7 -7 16 -3q15 8 33 8t35.5 1t33 6t25.5 22q15 9 22.5 22.5t13 28t10 29t12.5 27.5q47 11 77 52q3 3 4 8t5 9q0 5 2 10.5 t0 11.5q-17 -11 -33 -23t-35 -19v2l4 13.5t7 14.5q8 25 19 48.5l23 48.5q15 39 35.5 75.5t36.5 75.5q14 22 24.5 46t18.5 49q8 14 20 25t22 24q2 7 1 14t-3 13q-6 5 -18 5q-20 -2 -38 -10.5t-33 -21.5q-32 -8 -60 -25.5l-57 -34.5q-7 -5 -15 -7.5t-14 -7.5q-42 -35 -84 -65 t-80 -71q-44 22 -91 22q-27 0 -48 -13.5l-42 -27.5q-14 -12 -22.5 -29t-5.5 -34q4 -9 6.5 -18t7.5 -19q-1 -11 2 -20t8 -18t10.5 -17t10.5 -17q5 -6 9.5 -12t7.5 -13l-54.5 -56l-53.5 -56l-23 -23t-28 -13q-8 1 -16 4t-13 11l-13 17.5t-11.5 20t-5.5 21.5t4 22q2 6 6.5 10 t2.5 12q-2 5 -9 3q-14 -1 -23.5 -10.5t-14.5 -20.5q-6 -15 -5.5 -30zM264 306q-5 10 0 19q11 16 26 23t30 15q10 5 21 5.5t21.5 -2.5t20.5 -8t19 -10q-23 -31 -44 -64.5t-44 -64.5h-3l-18.5 23.5t-14.5 24.5q1 11 -5.5 20t-8.5 19zM345 191l3 8q24 31 44 63.5t43 64.5 q29 -20 42.5 -47.5l27.5 -55.5l4 -18l-23 -44q-20 2 -39.5 2.5t-39.5 5.5q-6 6 -14 8t-16.5 3t-16.5 3t-15 7zM466 362q29 41 70.5 72.5l79.5 60.5q8 7 17 10t18 9q11 5 20.5 12.5t20.5 10.5l-2 -4q-22 -31 -36 -65t-34 -66q-10 -19 -19 -38.5t-23 -36.5l-21 -33.5 l-20 -33.5l-30.5 53t-40.5 49z" />
<glyph unicode="&#xc1;" horiz-adv-x="664" d="M841 710q2 -8 9 -10t14 -3q46 5 86 26.5t74 54.5q6 6 13.5 9.5t14 8t11.5 10.5t5 15q-11 10 -26 8t-27 -7q-11 0 -19.5 5t-19.5 0q-13 -5 -13.5 -16.5t-5.5 -21.5q-24 -29 -54 -48.5t-62 -30.5zM27.5 86q0.5 -15 5.5 -29t13 -27l16 -25q21 -26 50 -18q27 -4 48.5 10.5 t40.5 34.5q54 62 115 118q14 -5 28.5 -7t28.5 -6q13 -12 32 -11t36 -1q5 -1 11 -1t11 -2l-17 -28q-6 -20 -18.5 -35.5t-23.5 -32.5q-4 -8 -7 -18.5t5 -18.5q7 -7 16 -3q15 8 33 8t35.5 1t33 6t25.5 22q15 9 22.5 22.5t13 28t10 29t12.5 27.5q47 11 77 52q3 3 4 8t5 9 q0 5 2 10.5t0 11.5q-17 -11 -33 -23t-35 -19v2l4 13.5t7 14.5q8 25 19 48.5l23 48.5q15 39 35.5 75.5t36.5 75.5q14 22 24.5 46t18.5 49q8 14 20 25t22 24q2 7 1 14t-3 13q-6 5 -18 5q-20 -2 -38 -10.5t-33 -21.5q-32 -8 -60 -25.5l-57 -34.5q-7 -5 -15 -7.5t-14 -7.5 q-42 -35 -84 -65t-80 -71q-44 22 -91 22q-27 0 -48 -13.5l-42 -27.5q-14 -12 -22.5 -29t-5.5 -34q4 -9 6.5 -18t7.5 -19q-1 -11 2 -20t8 -18t10.5 -17t10.5 -17q5 -6 9.5 -12t7.5 -13l-54.5 -56l-53.5 -56l-23 -23t-28 -13q-8 1 -16 4t-13 11l-13 17.5t-11.5 20t-5.5 21.5 t4 22q2 6 6.5 10t2.5 12q-2 5 -9 3q-14 -1 -23.5 -10.5t-14.5 -20.5q-6 -15 -5.5 -30zM264 306q-5 10 0 19q11 16 26 23t30 15q10 5 21 5.5t21.5 -2.5t20.5 -8t19 -10q-23 -31 -44 -64.5t-44 -64.5h-3l-18.5 23.5t-14.5 24.5q1 11 -5.5 20t-8.5 19zM345 191l3 8 q24 31 44 63.5t43 64.5q29 -20 42.5 -47.5l27.5 -55.5l4 -18l-23 -44q-20 2 -39.5 2.5t-39.5 5.5q-6 6 -14 8t-16.5 3t-16.5 3t-15 7zM466 362q29 41 70.5 72.5l79.5 60.5q8 7 17 10t18 9q11 5 20.5 12.5t20.5 10.5l-2 -4q-22 -31 -36 -65t-34 -66q-10 -19 -19 -38.5 t-23 -36.5l-21 -33.5l-20 -33.5l-30.5 53t-40.5 49z" />
<glyph unicode="&#xc2;" horiz-adv-x="664" d="M696 703q11 -8 24 -6t24 5q35 10 67 31.5t55 53.5l2 1q10 -14 22 -28.5t32 -14.5q21 -21 45 -34t53 -12q3 1 6.5 2.5t3.5 4.5q-15 14 -32 25t-28 28q-7 6 -10.5 13.5t-6 15.5t-6 16t-9.5 15q-2 8 -2.5 17t-8.5 15q-13 9 -27 3t-25 -14h-5q-11 5 -22 8.5t-22 1.5 q-5 -2 -9.5 -6.5t-6.5 -9.5q2 -14 -3.5 -26.5t-14.5 -22.5q-20 -24 -44.5 -45t-51.5 -34v-3zM27.5 86q0.5 -15 5.5 -29t13 -27l16 -25q21 -26 50 -18q27 -4 48.5 10.5t40.5 34.5q54 62 115 118q14 -5 28.5 -7t28.5 -6q13 -12 32 -11t36 -1q5 -1 11 -1t11 -2l-17 -28 q-6 -20 -18.5 -35.5t-23.5 -32.5q-4 -8 -7 -18.5t5 -18.5q7 -7 16 -3q15 8 33 8t35.5 1t33 6t25.5 22q15 9 22.5 22.5t13 28t10 29t12.5 27.5q47 11 77 52q3 3 4 8t5 9q0 5 2 10.5t0 11.5q-17 -11 -33 -23t-35 -19v2l4 13.5t7 14.5q8 25 19 48.5l23 48.5q15 39 35.5 75.5 t36.5 75.5q14 22 24.5 46t18.5 49q8 14 20 25t22 24q2 7 1 14t-3 13q-6 5 -18 5q-20 -2 -38 -10.5t-33 -21.5q-32 -8 -60 -25.5l-57 -34.5q-7 -5 -15 -7.5t-14 -7.5q-42 -35 -84 -65t-80 -71q-44 22 -91 22q-27 0 -48 -13.5l-42 -27.5q-14 -12 -22.5 -29t-5.5 -34 q4 -9 6.5 -18t7.5 -19q-1 -11 2 -20t8 -18t10.5 -17t10.5 -17q5 -6 9.5 -12t7.5 -13l-54.5 -56l-53.5 -56l-23 -23t-28 -13q-8 1 -16 4t-13 11l-13 17.5t-11.5 20t-5.5 21.5t4 22q2 6 6.5 10t2.5 12q-2 5 -9 3q-14 -1 -23.5 -10.5t-14.5 -20.5q-6 -15 -5.5 -30zM264 306 q-5 10 0 19q11 16 26 23t30 15q10 5 21 5.5t21.5 -2.5t20.5 -8t19 -10q-23 -31 -44 -64.5t-44 -64.5h-3l-18.5 23.5t-14.5 24.5q1 11 -5.5 20t-8.5 19zM345 191l3 8q24 31 44 63.5t43 64.5q29 -20 42.5 -47.5l27.5 -55.5l4 -18l-23 -44q-20 2 -39.5 2.5t-39.5 5.5 q-6 6 -14 8t-16.5 3t-16.5 3t-15 7zM466 362q29 41 70.5 72.5l79.5 60.5q8 7 17 10t18 9q11 5 20.5 12.5t20.5 10.5l-2 -4q-22 -31 -36 -65t-34 -66q-10 -19 -19 -38.5t-23 -36.5l-21 -33.5l-20 -33.5l-30.5 53t-40.5 49z" />
<glyph unicode="&#xc4;" horiz-adv-x="660" d="M25.5 111.5q-7.5 -18.5 0.5 -38.5l21 -42.5t34 -32.5q23 -2 44 -2.5t38 16.5q19 16 37 35l35 38.5l35 38.5t38 35q9 -4 18 -7t19 -4q28 -3 45 -22l65 -3l1 -2q-15 -27 -28 -53q-8 -13 -19 -24.5t-17 -25.5q-7 -15 5 -25q9 -4 17 -1t17 6q15 0 30.5 -0.5t30.5 2.5t27.5 11 t20.5 23q15 9 26 23q8 22 14.5 44t17.5 43l34 8q24 5 39 27t20 45l-3 2l-34 -27.5t-39 -16.5l28 67t32 67q23 45 43.5 91t48.5 90q6 17 15.5 35.5t29.5 27.5q8 8 13 17.5t2 21.5q-2 9 -12 11q-20 2 -41.5 -0.5t-38.5 -18.5q-42 -5 -81.5 -19.5t-69.5 -44.5q-41 -26 -82 -62 t-76 -78q-26 17 -58.5 25t-64.5 -3q-11 -8 -24.5 -14.5t-25.5 -14.5t-22 -18t-15 -25q-5 -14 -0.5 -28t12.5 -25q5 -8 2.5 -16.5t2.5 -16.5q11 -18 22.5 -35t26.5 -31l1 -3l-73 -73.5l-74 -72.5q-9 -6 -20 -3t-21 5q-16 11 -23.5 28t-12.5 34q0 12 5 24.5t11 23.5v5 q-16 0 -30 -8q-12 -15 -19.5 -33.5zM256.5 320q-0.5 8 9.5 16q10 7 20.5 16t22 15t23 8t24.5 -3q12 -4 22.5 -9t19.5 -13q-19 -32 -43 -63.5t-44 -64.5q-13 10 -22.5 22.5t-17.5 26.5q2 9 -2.5 17t-8 16t-4 16zM336 199q8 14 19 28t20 28l53 75q29 -23 47 -53.5t31 -62.5 l-27 -51q-41 -5 -82 5q-3 7 -7.5 9.5t-10.5 4t-12.5 2.5t-11.5 4zM457 367q37 48 84.5 85.5l95.5 72.5q17 9 34 16t35 11l2 -2q-7 -19 -21.5 -34.5t-25.5 -32.5q-15 -19 -25.5 -40l-20.5 -42t-21.5 -42t-27.5 -39q-11 -15 -19 -30.5t-18 -31.5q-11 30 -29.5 57.5t-42.5 51.5 zM582.5 649q-2.5 -20 8.5 -36q8 -8 21 -6q7 4 16 6.5t17.5 6t14 9t7.5 16.5q2 9 7 18.5t8.5 19.5t2 19t-12.5 16q-5 2 -11 2h-11q-13 2 -21 -6l-16 -16q-5 -2 -10 -5.5t-9 -8.5q-9 -15 -11.5 -35zM723.5 660q-5.5 -13 3.5 -24q10 -5 22 -7.5t23 2.5q21 4 33.5 21.5 t21.5 34.5q3 10 3 21t-9 18q-13 10 -28 8q-8 0 -14.5 -5t-11.5 -11q-2 -8 -7 -11.5t-10.5 -6t-10.5 -5.5t-6 -11q-4 -11 -9.5 -24z" />
<glyph unicode="&#xc5;" horiz-adv-x="664" d="M788 706q2 -11 9 -18.5t11 -16.5q5 -5 8.5 -11t6.5 -12t7 -10.5t12 -5.5l26 -4t27 0q30 16 62 20q20 12 33 31t24 39q19 17 26.5 38.5t6.5 44.5q2 7 5 12.5t3 13.5q1 15 -2 29.5t-17 24.5l-29.5 13.5t-30.5 11.5q-20 11 -43 7.5t-43 -9.5l-22 -11.5t-22 -15t-16.5 -19.5 t-5.5 -24q-31 -57 -36 -128zM864 710q2 27 10 53t19 49q14 20 33.5 32t44.5 11q7 -2 15.5 -1.5t14.5 -4.5q7 -5 9.5 -11.5t1.5 -14t-2.5 -14.5t-1.5 -13q-2 -14 -5 -27.5t-15 -21.5q-12 -11 -19 -25.5t-20 -26.5q-6 -7 -14 -8t-16 -6q-19 -9 -44 -4q-6 8 -7.5 16.5 t-3.5 16.5zM27.5 86q0.5 -15 5.5 -29t13 -27l16 -25q21 -26 50 -18q27 -4 48.5 10.5t40.5 34.5q54 62 115 118q14 -5 28.5 -7t28.5 -6q13 -12 32 -11t36 -1q5 -1 11 -1t11 -2l-17 -28q-6 -20 -18.5 -35.5t-23.5 -32.5q-4 -8 -7 -18.5t5 -18.5q7 -7 16 -3q15 8 33 8t35.5 1 t33 6t25.5 22q15 9 22.5 22.5t13 28t10 29t12.5 27.5q47 11 77 52q3 3 4 8t5 9q0 5 2 10.5t0 11.5q-17 -11 -33 -23t-35 -19v2l4 13.5t7 14.5q8 25 19 48.5l23 48.5q15 39 35.5 75.5t36.5 75.5q14 22 24.5 46t18.5 49q8 14 20 25t22 24q2 7 1 14t-3 13q-6 5 -18 5 q-20 -2 -38 -10.5t-33 -21.5q-32 -8 -60 -25.5l-57 -34.5q-7 -5 -15 -7.5t-14 -7.5q-42 -35 -84 -65t-80 -71q-44 22 -91 22q-27 0 -48 -13.5l-42 -27.5q-14 -12 -22.5 -29t-5.5 -34q4 -9 6.5 -18t7.5 -19q-1 -11 2 -20t8 -18t10.5 -17t10.5 -17q5 -6 9.5 -12t7.5 -13 l-54.5 -56l-53.5 -56l-23 -23t-28 -13q-8 1 -16 4t-13 11l-13 17.5t-11.5 20t-5.5 21.5t4 22q2 6 6.5 10t2.5 12q-2 5 -9 3q-14 -1 -23.5 -10.5t-14.5 -20.5q-6 -15 -5.5 -30zM264 306q-5 10 0 19q11 16 26 23t30 15q10 5 21 5.5t21.5 -2.5t20.5 -8t19 -10 q-23 -31 -44 -64.5t-44 -64.5h-3l-18.5 23.5t-14.5 24.5q1 11 -5.5 20t-8.5 19zM345 191l3 8q24 31 44 63.5t43 64.5q29 -20 42.5 -47.5l27.5 -55.5l4 -18l-23 -44q-20 2 -39.5 2.5t-39.5 5.5q-6 6 -14 8t-16.5 3t-16.5 3t-15 7zM466 362q29 41 70.5 72.5l79.5 60.5 q8 7 17 10t18 9q11 5 20.5 12.5t20.5 10.5l-2 -4q-22 -31 -36 -65t-34 -66q-10 -19 -19 -38.5t-23 -36.5l-21 -33.5l-20 -33.5l-30.5 53t-40.5 49z" />
<glyph unicode="&#xc7;" horiz-adv-x="391" d="M-24 -127q0 -14 23 -23t56 -9q51 0 79 14t28 42q0 30 -23.5 43.5t-53.5 13.5q-5 0 -11.5 -0.5t-15.5 -0.5l20 51h-30q-2 -4 -6 -13.5l-8 -19.5l-7.5 -19t-3.5 -12q0 -13 14 -13q34 0 47 -7.5t13 -19.5q0 -29 -41 -29q-17 0 -27.5 2.5t-17 6l-11.5 6t-10 2.5 q-14 0 -14 -15zM17.5 276q-0.5 -23 1 -46.5t2.5 -45.5q5 -23 8.5 -47t13.5 -46l27.5 -38t31.5 -35q12 -11 28 -15.5t33 -4t33 5t30 10.5q16 1 29.5 6.5t26 14l24.5 17.5t25 17q11 9 18.5 19t18.5 17q17 23 30 48t15 53q0 7 0.5 12.5t-3.5 10.5q-8 -5 -11 -13t-8 -16 q-15 -42 -51 -77.5t-74 -58.5q-5 -2 -7 0q-9 -2 -17 -6.5t-16 -7.5q-11 -3 -25 -6t-28 -2.5t-26.5 4.5t-20.5 14q-20 31 -21 71.5t19 72.5q1 29 12 53.5t24 48.5q17 12 23 30t16 34q14 16 24.5 34l21 36t22 35.5t26.5 32.5q6 7 14 11.5t16.5 8t16 8t13.5 13.5q17 5 36.5 0.5 t36.5 0.5l19 -5.5t19 -3.5q14 -1 24 -11.5t15 -21.5q4 -7 2.5 -13t-5 -11.5t-8 -11t-6.5 -11.5q-3 -8 1.5 -13.5l9.5 -11.5q3 -3 8 -3.5t9 -0.5q7 2 10.5 8t5.5 11q-3 14 5 24.5t9 24.5q2 19 -8 35t-24 28q-14 6 -26 13.5t-28 5.5q-7 -2 -11.5 2.5t-11.5 3.5q-23 3 -45 2.5 t-45 0.5q-14 -3 -28.5 -5.5t-26.5 -11.5q-53 -12 -100 -38t-86 -68q-27 -20 -45 -47t-27 -57q-8 -20 -11 -42.5t-3.5 -45.5z" />
<glyph unicode="&#xc8;" horiz-adv-x="436" d="M296 860q-3 -10 1 -18t11 -16l42 -41t45 -37l45.5 -22.5t48.5 -7.5l1 3q-26 23 -54.5 43.5t-45.5 51.5q-2 5 -1 10.5t1.5 11t-1 10t-7.5 7.5q-22 10 -44 0q-10 2 -20.5 7.5t-21.5 -2.5zM15.5 77q1.5 -17 7 -33t17.5 -28q16 -8 30.5 -17t31.5 -14q21 -9 44.5 -4t41.5 15 q23 14 47.5 22.5t46.5 24.5l1 2q7 1 13 7l57 34.5t54 38.5q9 10 20.5 14t19.5 15q11 17 18.5 34.5t9.5 37.5h-2q-13 -9 -22.5 -19.5l-19.5 -21.5l-61.5 -44.5t-63.5 -37.5q-23 -11 -42.5 -26.5t-43.5 -18.5q-9 -2 -17.5 -6t-17.5 -7t-18 -4.5t-18 0.5q-8 16 -8 35q0 20 3 38 q18 43 40.5 82.5l44.5 81.5q18 10 38.5 15t40.5 11q6 8 15 6.5t17 2.5q8 6 16 10.5t15 11.5q7 9 4 19q-7 16 -23 15q-8 -5 -17 -5.5t-18 -0.5q-17 0 -33.5 -1.5t-29.5 9.5q-2 5 -3 12.5t1 12.5q10 1 17.5 4t15.5 5l54.5 17.5t54 19t50.5 25t45 36.5q19 9 32.5 26.5 t23.5 35.5q0 5 2.5 9t5.5 7.5t5 7.5t1 10q0 13 -6.5 24t-18.5 16q-28 11 -60.5 16t-61.5 -2q-23 2 -44 -4t-40 -14q-53 -26 -97 -71t-75 -96q-25 6 -44 28q-6 7 -6.5 15t1.5 16t5.5 15.5t5.5 14.5q2 9 7 16t5 16q-26 -7 -40.5 -30.5t-22.5 -46.5q-4 -11 3.5 -18.5t9.5 -17.5 q8 -18 24 -31t32 -24l3 -4q-4 -11 -3 -23t6 -22q7 -19 24 -28.5t34 -15.5v-2q-20 -11 -41 -19t-41 -21q-38 -24 -64.5 -61t-32.5 -80q-3 -16 -5 -33.5t-0.5 -34.5zM275 444q7 17 19.5 32t23.5 31q23 29 49.5 55.5t58.5 43.5l39.5 6t37.5 -7l4 -6q5 -9 2 -18t-8 -18 q-4 -7 -11 -10.5t-13 -10.5q-18 -20 -39 -34t-43.5 -24.5t-46 -18.5t-46.5 -17q-6 -2 -13 -2.5t-14 -1.5z" />
<glyph unicode="&#xc9;" horiz-adv-x="436" d="M472 730q2 -8 9 -10t14 -3q46 5 86 26.5t74 54.5q6 6 13.5 9.5t14 8t11.5 10.5t5 15q-11 10 -26 8t-27 -7q-11 0 -19.5 5t-19.5 0q-13 -5 -13.5 -16.5t-5.5 -21.5q-24 -29 -54 -48.5t-62 -30.5zM15.5 77q1.5 -17 7 -33t17.5 -28q16 -8 30.5 -17t31.5 -14q21 -9 44.5 -4 t41.5 15q23 14 47.5 22.5t46.5 24.5l1 2q7 1 13 7l57 34.5t54 38.5q9 10 20.5 14t19.5 15q11 17 18.5 34.5t9.5 37.5h-2q-13 -9 -22.5 -19.5l-19.5 -21.5l-61.5 -44.5t-63.5 -37.5q-23 -11 -42.5 -26.5t-43.5 -18.5q-9 -2 -17.5 -6t-17.5 -7t-18 -4.5t-18 0.5q-8 16 -8 35 q0 20 3 38q18 43 40.5 82.5l44.5 81.5q18 10 38.5 15t40.5 11q6 8 15 6.5t17 2.5q8 6 16 10.5t15 11.5q7 9 4 19q-7 16 -23 15q-8 -5 -17 -5.5t-18 -0.5q-17 0 -33.5 -1.5t-29.5 9.5q-2 5 -3 12.5t1 12.5q10 1 17.5 4t15.5 5l54.5 17.5t54 19t50.5 25t45 36.5 q19 9 32.5 26.5t23.5 35.5q0 5 2.5 9t5.5 7.5t5 7.5t1 10q0 13 -6.5 24t-18.5 16q-28 11 -60.5 16t-61.5 -2q-23 2 -44 -4t-40 -14q-53 -26 -97 -71t-75 -96q-25 6 -44 28q-6 7 -6.5 15t1.5 16t5.5 15.5t5.5 14.5q2 9 7 16t5 16q-26 -7 -40.5 -30.5t-22.5 -46.5 q-4 -11 3.5 -18.5t9.5 -17.5q8 -18 24 -31t32 -24l3 -4q-4 -11 -3 -23t6 -22q7 -19 24 -28.5t34 -15.5v-2q-20 -11 -41 -19t-41 -21q-38 -24 -64.5 -61t-32.5 -80q-3 -16 -5 -33.5t-0.5 -34.5zM275 444q7 17 19.5 32t23.5 31q23 29 49.5 55.5t58.5 43.5l39.5 6t37.5 -7l4 -6 q5 -9 2 -18t-8 -18q-4 -7 -11 -10.5t-13 -10.5q-18 -20 -39 -34t-43.5 -24.5t-46 -18.5t-46.5 -17q-6 -2 -13 -2.5t-14 -1.5z" />
<glyph unicode="&#xca;" horiz-adv-x="436" d="M327 723q11 -8 24 -6t24 5q35 10 67 31.5t55 53.5l2 1q10 -14 22 -28.5t32 -14.5q21 -21 45 -34t53 -12q3 1 6.5 2.5t3.5 4.5q-15 14 -32 25t-28 28q-7 6 -10.5 13.5t-6 15.5t-6 16t-9.5 15q-2 8 -2.5 17t-8.5 15q-13 9 -27 3t-25 -14h-5q-11 5 -22 8.5t-22 1.5 q-5 -2 -9.5 -6.5t-6.5 -9.5q2 -14 -3.5 -26.5t-14.5 -22.5q-20 -24 -44.5 -45t-51.5 -34v-3zM15.5 77q1.5 -17 7 -33t17.5 -28q16 -8 30.5 -17t31.5 -14q21 -9 44.5 -4t41.5 15q23 14 47.5 22.5t46.5 24.5l1 2q7 1 13 7l57 34.5t54 38.5q9 10 20.5 14t19.5 15 q11 17 18.5 34.5t9.5 37.5h-2q-13 -9 -22.5 -19.5l-19.5 -21.5l-61.5 -44.5t-63.5 -37.5q-23 -11 -42.5 -26.5t-43.5 -18.5q-9 -2 -17.5 -6t-17.5 -7t-18 -4.5t-18 0.5q-8 16 -8 35q0 20 3 38q18 43 40.5 82.5l44.5 81.5q18 10 38.5 15t40.5 11q6 8 15 6.5t17 2.5 q8 6 16 10.5t15 11.5q7 9 4 19q-7 16 -23 15q-8 -5 -17 -5.5t-18 -0.5q-17 0 -33.5 -1.5t-29.5 9.5q-2 5 -3 12.5t1 12.5q10 1 17.5 4t15.5 5l54.5 17.5t54 19t50.5 25t45 36.5q19 9 32.5 26.5t23.5 35.5q0 5 2.5 9t5.5 7.5t5 7.5t1 10q0 13 -6.5 24t-18.5 16 q-28 11 -60.5 16t-61.5 -2q-23 2 -44 -4t-40 -14q-53 -26 -97 -71t-75 -96q-25 6 -44 28q-6 7 -6.5 15t1.5 16t5.5 15.5t5.5 14.5q2 9 7 16t5 16q-26 -7 -40.5 -30.5t-22.5 -46.5q-4 -11 3.5 -18.5t9.5 -17.5q8 -18 24 -31t32 -24l3 -4q-4 -11 -3 -23t6 -22q7 -19 24 -28.5 t34 -15.5v-2q-20 -11 -41 -19t-41 -21q-38 -24 -64.5 -61t-32.5 -80q-3 -16 -5 -33.5t-0.5 -34.5zM275 444q7 17 19.5 32t23.5 31q23 29 49.5 55.5t58.5 43.5l39.5 6t37.5 -7l4 -6q5 -9 2 -18t-8 -18q-4 -7 -11 -10.5t-13 -10.5q-18 -20 -39 -34t-43.5 -24.5t-46 -18.5 t-46.5 -17q-6 -2 -13 -2.5t-14 -1.5z" />
<glyph unicode="&#xcc;" horiz-adv-x="488" d="M533 854q-3 -10 1 -18t11 -16l42 -41t45 -37l45.5 -22.5t48.5 -7.5l1 3q-26 23 -54.5 43.5t-45.5 51.5q-2 5 -1 10.5t1.5 11t-1 10t-7.5 7.5q-22 10 -44 0q-10 2 -20.5 7.5t-21.5 -2.5zM22 84q-5 -18 0.5 -35.5t13.5 -31.5q12 -18 31 -25t38 -12q23 -8 48 -7t46 8 q37 14 69.5 39t62.5 54q11 7 20 17.5l17 19.5q9 7 15.5 17.5t14.5 17.5q23 32 41.5 64.5l36.5 65.5q25 42 45.5 83.5t39.5 84.5q19 32 40 64l42 64l34 22q11 8 13.5 22t0.5 28l-3 7q-9 1 -16 -2t-13 -8l-12 -10.5t-12 -9.5q-20 -7 -38.5 -16t-37.5 -17q-17 -8 -34 -18.5 t-38 -11.5q-14 -8 -30.5 -9t-32.5 -3q-6 -1 -11.5 3.5t-7.5 9.5q-5 17 -9.5 34.5t-13.5 32.5q-8 12 -20.5 13l-24.5 2l-56 -26t-53 -32q-8 -4 -14 -11.5t-5 -17.5q-4 -6 -10 -12.5t-11 -13t-6.5 -14t3.5 -16.5q3 -7 13 -7q11 2 19 11.5t17 14.5q5 7 5.5 15t5.5 13l32 20 q17 8 33 17t35 11q5 0 5 -5t3 -7q0 -24 12.5 -45.5t34.5 -32.5q23 -2 43 0t44 3q7 2 14.5 3t12.5 0q-14 -18 -31 -35.5t-32 -35.5q-14 -16 -26 -34t-30 -30q-29 -29 -49.5 -61t-36 -67t-27.5 -71.5l-24 -72.5l-16 -21q-9 -8 -17 -18t-17 -19t-19.5 -16t-22.5 -8 q-26 -5 -51 -1t-43 21q-9 8 -10.5 21.5t2.5 24.5q3 5 8.5 7t8.5 9q4 10 4.5 21.5t-7.5 20.5q-4 3 -8.5 1.5t-8.5 -1.5q-17 -11 -25.5 -27t-13.5 -33z" />
<glyph unicode="&#xcd;" horiz-adv-x="488" d="M709 724q2 -8 9 -10t14 -3q46 5 86 26.5t74 54.5q6 6 13.5 9.5t14 8t11.5 10.5t5 15q-11 10 -26 8t-27 -7q-11 0 -19.5 5t-19.5 0q-13 -5 -13.5 -16.5t-5.5 -21.5q-24 -29 -54 -48.5t-62 -30.5zM22 84q-5 -18 0.5 -35.5t13.5 -31.5q12 -18 31 -25t38 -12q23 -8 48 -7 t46 8q37 14 69.5 39t62.5 54q11 7 20 17.5l17 19.5q9 7 15.5 17.5t14.5 17.5q23 32 41.5 64.5l36.5 65.5q25 42 45.5 83.5t39.5 84.5q19 32 40 64l42 64l34 22q11 8 13.5 22t0.5 28l-3 7q-9 1 -16 -2t-13 -8l-12 -10.5t-12 -9.5q-20 -7 -38.5 -16t-37.5 -17 q-17 -8 -34 -18.5t-38 -11.5q-14 -8 -30.5 -9t-32.5 -3q-6 -1 -11.5 3.5t-7.5 9.5q-5 17 -9.5 34.5t-13.5 32.5q-8 12 -20.5 13l-24.5 2l-56 -26t-53 -32q-8 -4 -14 -11.5t-5 -17.5q-4 -6 -10 -12.5t-11 -13t-6.5 -14t3.5 -16.5q3 -7 13 -7q11 2 19 11.5t17 14.5q5 7 5.5 15 t5.5 13l32 20q17 8 33 17t35 11q5 0 5 -5t3 -7q0 -24 12.5 -45.5t34.5 -32.5q23 -2 43 0t44 3q7 2 14.5 3t12.5 0q-14 -18 -31 -35.5t-32 -35.5q-14 -16 -26 -34t-30 -30q-29 -29 -49.5 -61t-36 -67t-27.5 -71.5l-24 -72.5l-16 -21q-9 -8 -17 -18t-17 -19t-19.5 -16 t-22.5 -8q-26 -5 -51 -1t-43 21q-9 8 -10.5 21.5t2.5 24.5q3 5 8.5 7t8.5 9q4 10 4.5 21.5t-7.5 20.5q-4 3 -8.5 1.5t-8.5 -1.5q-17 -11 -25.5 -27t-13.5 -33z" />
<glyph unicode="&#xce;" horiz-adv-x="488" d="M564 718q11 -8 24 -6t24 5q35 10 67 31.5t55 53.5l2 1q10 -14 22 -28.5t32 -14.5q21 -21 45 -34t53 -12q3 1 6.5 2.5t3.5 4.5q-15 14 -32 25t-28 28q-7 6 -10.5 13.5t-6 15.5t-6 16t-9.5 15q-2 8 -2.5 17t-8.5 15q-13 9 -27 3t-25 -14h-5q-11 5 -22 8.5t-22 1.5 q-5 -2 -9.5 -6.5t-6.5 -9.5q2 -14 -3.5 -26.5t-14.5 -22.5q-20 -24 -44.5 -45t-51.5 -34v-3zM22 84q-5 -18 0.5 -35.5t13.5 -31.5q12 -18 31 -25t38 -12q23 -8 48 -7t46 8q37 14 69.5 39t62.5 54q11 7 20 17.5l17 19.5q9 7 15.5 17.5t14.5 17.5q23 32 41.5 64.5l36.5 65.5 q25 42 45.5 83.5t39.5 84.5q19 32 40 64l42 64l34 22q11 8 13.5 22t0.5 28l-3 7q-9 1 -16 -2t-13 -8l-12 -10.5t-12 -9.5q-20 -7 -38.5 -16t-37.5 -17q-17 -8 -34 -18.5t-38 -11.5q-14 -8 -30.5 -9t-32.5 -3q-6 -1 -11.5 3.5t-7.5 9.5q-5 17 -9.5 34.5t-13.5 32.5 q-8 12 -20.5 13l-24.5 2l-56 -26t-53 -32q-8 -4 -14 -11.5t-5 -17.5q-4 -6 -10 -12.5t-11 -13t-6.5 -14t3.5 -16.5q3 -7 13 -7q11 2 19 11.5t17 14.5q5 7 5.5 15t5.5 13l32 20q17 8 33 17t35 11q5 0 5 -5t3 -7q0 -24 12.5 -45.5t34.5 -32.5q23 -2 43 0t44 3q7 2 14.5 3 t12.5 0q-14 -18 -31 -35.5t-32 -35.5q-14 -16 -26 -34t-30 -30q-29 -29 -49.5 -61t-36 -67t-27.5 -71.5l-24 -72.5l-16 -21q-9 -8 -17 -18t-17 -19t-19.5 -16t-22.5 -8q-26 -5 -51 -1t-43 21q-9 8 -10.5 21.5t2.5 24.5q3 5 8.5 7t8.5 9q4 10 4.5 21.5t-7.5 20.5 q-4 3 -8.5 1.5t-8.5 -1.5q-17 -11 -25.5 -27t-13.5 -33z" />
<glyph unicode="&#xd2;" horiz-adv-x="480" d="M196 840q-3 -10 1 -18t11 -16l42 -41t45 -37l45.5 -22.5t48.5 -7.5l1 3q-26 23 -54.5 43.5t-45.5 51.5q-2 5 -1 10.5t1.5 11t-1 10t-7.5 7.5q-22 10 -44 0q-10 2 -20.5 7.5t-21.5 -2.5zM26.5 283q0.5 -27 3.5 -53q7 -75 45 -138q16 -27 38.5 -55.5t54.5 -37.5 q16 1 29.5 -5.5t30.5 -1.5q25 7 48 19.5t44.5 28.5t42 34l41.5 36q8 8 15.5 16.5t12.5 18.5q35 47 57 98t37 106q5 31 9.5 62.5t1.5 63.5q2 5 4 6q15 10 32.5 19.5t33 21.5t26 27.5t10.5 36.5q0 2 -2.5 3.5t-4.5 -0.5q-22 -23 -47.5 -37l-50.5 -29l-4 -1q-2 13 -8.5 23 t-12.5 21q-15 16 -31 31t-34 24.5t-38.5 13t-43.5 -2.5q-8 5 -19 5q-56 -17 -103 -46q-6 -6 -13.5 -8l-15.5 -4l-43.5 -30.5t-41.5 -34.5q-31 -24 -50 -55.5t-34 -63.5q-6 -14 -7 -29.5t-3 -30.5q-10 -25 -9.5 -52zM103 148q-2 17 0 35q-4 10 0 19.5t5 20.5q1 8 5.5 14.5 l9 13t8.5 13.5t5 15q8 19 18.5 37t12.5 40q5 5 6 13t3 14q-4 8 1 15.5l9 13.5q18 17 29 35.5t28 35.5q14 20 33 29t37 23q4 11 15 15t21 9l29 17q-2 -11 -6 -22.5t-6.5 -23t-1 -23t10.5 -21.5q8 -10 18 -18t23 -7q21 -1 42 0t41 4q4 -84 -23.5 -157t-75.5 -137l-4 -10 q-28 -32 -60.5 -62t-67.5 -53q-15 -13 -36 -13.5t-38 9.5q-27 8 -47 30t-32 45q-10 14 -12 31zM408 510q2 13 6 25l8 23q5 7 14 11q13 2 21 -6t16 -15q15 -18 23 -43q-17 -6 -37.5 -7t-40.5 2q-3 1 -5.5 4t-4.5 6z" />
<glyph unicode="&#xd3;" horiz-adv-x="480" d="M372 710q2 -8 9 -10t14 -3q46 5 86 26.5t74 54.5q6 6 13.5 9.5t14 8t11.5 10.5t5 15q-11 10 -26 8t-27 -7q-11 0 -19.5 5t-19.5 0q-13 -5 -13.5 -16.5t-5.5 -21.5q-24 -29 -54 -48.5t-62 -30.5zM26.5 283q0.5 -27 3.5 -53q7 -75 45 -138q16 -27 38.5 -55.5t54.5 -37.5 q16 1 29.5 -5.5t30.5 -1.5q25 7 48 19.5t44.5 28.5t42 34l41.5 36q8 8 15.5 16.5t12.5 18.5q35 47 57 98t37 106q5 31 9.5 62.5t1.5 63.5q2 5 4 6q15 10 32.5 19.5t33 21.5t26 27.5t10.5 36.5q0 2 -2.5 3.5t-4.5 -0.5q-22 -23 -47.5 -37l-50.5 -29l-4 -1q-2 13 -8.5 23 t-12.5 21q-15 16 -31 31t-34 24.5t-38.5 13t-43.5 -2.5q-8 5 -19 5q-56 -17 -103 -46q-6 -6 -13.5 -8l-15.5 -4l-43.5 -30.5t-41.5 -34.5q-31 -24 -50 -55.5t-34 -63.5q-6 -14 -7 -29.5t-3 -30.5q-10 -25 -9.5 -52zM103 148q-2 17 0 35q-4 10 0 19.5t5 20.5q1 8 5.5 14.5 l9 13t8.5 13.5t5 15q8 19 18.5 37t12.5 40q5 5 6 13t3 14q-4 8 1 15.5l9 13.5q18 17 29 35.5t28 35.5q14 20 33 29t37 23q4 11 15 15t21 9l29 17q-2 -11 -6 -22.5t-6.5 -23t-1 -23t10.5 -21.5q8 -10 18 -18t23 -7q21 -1 42 0t41 4q4 -84 -23.5 -157t-75.5 -137l-4 -10 q-28 -32 -60.5 -62t-67.5 -53q-15 -13 -36 -13.5t-38 9.5q-27 8 -47 30t-32 45q-10 14 -12 31zM408 510q2 13 6 25l8 23q5 7 14 11q13 2 21 -6t16 -15q15 -18 23 -43q-17 -6 -37.5 -7t-40.5 2q-3 1 -5.5 4t-4.5 6z" />
<glyph unicode="&#xd4;" horiz-adv-x="480" d="M227 703q11 -8 24 -6t24 5q35 10 67 31.5t55 53.5l2 1q10 -14 22 -28.5t32 -14.5q21 -21 45 -34t53 -12q3 1 6.5 2.5t3.5 4.5q-15 14 -32 25t-28 28q-7 6 -10.5 13.5t-6 15.5t-6 16t-9.5 15q-2 8 -2.5 17t-8.5 15q-13 9 -27 3t-25 -14h-5q-11 5 -22 8.5t-22 1.5 q-5 -2 -9.5 -6.5t-6.5 -9.5q2 -14 -3.5 -26.5t-14.5 -22.5q-20 -24 -44.5 -45t-51.5 -34v-3zM26.5 283q0.5 -27 3.5 -53q7 -75 45 -138q16 -27 38.5 -55.5t54.5 -37.5q16 1 29.5 -5.5t30.5 -1.5q25 7 48 19.5t44.5 28.5t42 34l41.5 36q8 8 15.5 16.5t12.5 18.5q35 47 57 98 t37 106q5 31 9.5 62.5t1.5 63.5q2 5 4 6q15 10 32.5 19.5t33 21.5t26 27.5t10.5 36.5q0 2 -2.5 3.5t-4.5 -0.5q-22 -23 -47.5 -37l-50.5 -29l-4 -1q-2 13 -8.5 23t-12.5 21q-15 16 -31 31t-34 24.5t-38.5 13t-43.5 -2.5q-8 5 -19 5q-56 -17 -103 -46q-6 -6 -13.5 -8 l-15.5 -4l-43.5 -30.5t-41.5 -34.5q-31 -24 -50 -55.5t-34 -63.5q-6 -14 -7 -29.5t-3 -30.5q-10 -25 -9.5 -52zM103 148q-2 17 0 35q-4 10 0 19.5t5 20.5q1 8 5.5 14.5l9 13t8.5 13.5t5 15q8 19 18.5 37t12.5 40q5 5 6 13t3 14q-4 8 1 15.5l9 13.5q18 17 29 35.5t28 35.5 q14 20 33 29t37 23q4 11 15 15t21 9l29 17q-2 -11 -6 -22.5t-6.5 -23t-1 -23t10.5 -21.5q8 -10 18 -18t23 -7q21 -1 42 0t41 4q4 -84 -23.5 -157t-75.5 -137l-4 -10q-28 -32 -60.5 -62t-67.5 -53q-15 -13 -36 -13.5t-38 9.5q-27 8 -47 30t-32 45q-10 14 -12 31zM408 510 q2 13 6 25l8 23q5 7 14 11q13 2 21 -6t16 -15q15 -18 23 -43q-17 -6 -37.5 -7t-40.5 2q-3 1 -5.5 4t-4.5 6z" />
<glyph unicode="&#xd6;" horiz-adv-x="555" d="M24 254q-2 -52 11.5 -97.5t39.5 -86.5l19 -21t21 -20t23 -15t26 -7q6 -2 11 -7t13 -4q30 -2 56.5 6t50.5 21.5t46 32t43 38.5q13 11 24.5 23t15.5 29l45 69q14 33 26 67t20 69q1 27 6 53t0 52q14 10 32.5 18.5t34.5 19.5t27 26t11 37q-2 2 -2.5 4t-2.5 2 q-16 -17 -33.5 -29t-34.5 -26l-15.5 -10t-15.5 -7q-5 16 -13.5 29.5t-18.5 27.5q-24 32 -58.5 45t-71.5 7l-7 6q-23 3 -42.5 -6.5t-39.5 -17.5q-13 -5 -24.5 -15t-25.5 -9q-35 -14 -66 -41t-56 -58q-10 -17 -21.5 -33t-21 -33t-15 -35.5t-3.5 -39.5q-4 -16 -7.5 -31.5 t-6.5 -32.5zM105 107q14 51 30.5 99.5t29.5 99.5q7 13 10 28l6 30t8.5 28.5t19.5 24.5q26 20 44 45.5t41 47.5q20 13 39.5 27.5t42.5 22.5q-8 -17 -15 -35t-7 -38l16.5 -32.5t27.5 -22.5q23 0 44 3t44 5q3 -39 -3.5 -74t-19 -67.5t-30 -63l-35.5 -60.5q0 -14 -10.5 -24.5 l-20.5 -21.5l-63 -51t-66 -41q-29 -8 -57 0t-48 30q-9 10 -16.5 19.5t-11.5 20.5zM272 654q2 -8 6.5 -16t12.5 -10q13 4 26.5 4.5t26.5 4.5q14 5 18.5 18t6.5 26q5 9 6.5 21t-4.5 21q-7 2 -11 7.5t-12 3.5q-10 -1 -16.5 -6.5t-11.5 -12.5q-22 -5 -31.5 -24t-16.5 -37z M396.5 490.5q-0.5 8.5 2.5 17t7.5 16.5t7.5 16q11 11 24 6q10 -7 18 -16.5l16 -19.5l7.5 -15t6.5 -15q-20 -5 -41 -8t-41 2q-7 8 -7.5 16.5zM428 632q3 -8 10.5 -12.5t13.5 -9.5q10 -3 21 1q11 9 25.5 19.5t15.5 27.5q1 6 4 12l6 12t4 12.5t-2 12.5q-8 8 -15.5 13t-18.5 2 q-9 -6 -19 -8t-18 -10q-14 -15 -20 -33t-7 -39z" />
<glyph unicode="&#xd9;" horiz-adv-x="579" d="M154 840q-3 -10 1 -18t11 -16l42 -41t45 -37l45.5 -22.5t48.5 -7.5l1 3q-26 23 -54.5 43.5t-45.5 51.5q-2 5 -1 10.5t1.5 11t-1 10t-7.5 7.5q-22 10 -44 0q-10 2 -20.5 7.5t-21.5 -2.5zM21 135h3q0 -2 -1 -2q2 -2 2 -4t1 -4q-2 -9 1 -13t1 -13q-1 -1 0.5 -1.5t-0.5 -1.5 q2 -4 0.5 -6t0.5 -4q0 -1 1.5 0t1.5 -2q-1 0 -1 -1h-1l1 -1q-1 -2 -0.5 -3.5t-0.5 -3.5q3 -4 1 -9t2 -6q10 -21 27.5 -42t40.5 -29q13 -3 25.5 -7t25.5 -7.5t26 -4.5t27 3q36 25 69.5 53l68.5 55q18 13 29 31.5t28 31.5h2q-3 -21 -4.5 -41.5t2.5 -40.5q7 -17 21.5 -30.5 l27.5 -25.5q6 -9 14.5 -11t17 -0.5t17.5 4t17 4.5q7 -2 13.5 0l12.5 4q28 16 52.5 37t50.5 41q12 10 18.5 22t17.5 23q26 15 35.5 39t17.5 49q-1 2 -1.5 4t-3.5 2l-26 -24q-35 -42 -78 -81.5t-89 -69.5q-6 -4 -14 -7t-16 2q-9 8 -19.5 16.5t-7.5 22.5q6 17 14 34.5l16 34.5 q51 91 93.5 184.5l85.5 188.5q6 9 13.5 17.5t9.5 19.5q4 13 -6 19q-10 1 -18 -1.5t-16 -6.5t-16 -7.5t-17 -4.5q-8 2 -15.5 3.5t-15.5 0.5q-13 -1 -21.5 -8.5t-13.5 -18.5q-29 -74 -63.5 -144.5l-69.5 -142.5q-18 -19 -32 -40t-30 -41l-46 -48q-32 -26 -65.5 -57t-69.5 -51 q-39 -4 -79 10q-8 9 -14.5 21t-12.5 26q3 20 8.5 38.5t16.5 35.5q14 13 30.5 22t29.5 25q32 35 59 71.5l53 72.5q9 18 19 35t23 33q13 22 24 44t13 48q-2 21 -5 41.5t-11 40.5q-5 9 -14.5 17l-17.5 15q-21 9 -44.5 3t-39.5 -20q-26 -5 -55 -8t-52 -20q-1 -9 -6 -14.5 t-11.5 -10t-12 -10t-7.5 -13.5q-5 -15 -13.5 -29t-6.5 -31q4 -7 10.5 -8t12.5 0q10 6 15.5 15t9.5 18.5l8 19t10 18.5q8 16 23 21l29 10q18 3 38 7.5t37 -8.5q6 -8 5 -13l-15.5 -42t-19.5 -41q-32 -28 -61 -60.5l-56 -64.5q-31 -32 -56 -66.5t-30 -77.5q-1 0 -1 1l-1 -10 q-4 -1 -3 -5.5t-3 -7.5h2q0 -3 -1 -4.5t0 -3.5q0 -4 2 -3q0 1 1 0t-1 -2v-3l-2 3l-1 -1q-2 -5 3 -7l-3 -2q1 1 3 -1q1 -2 -3 -4z" />
<glyph unicode="&#xda;" horiz-adv-x="579" d="M331 710q2 -8 9 -10t14 -3q46 5 86 26.5t74 54.5q6 6 13.5 9.5t14 8t11.5 10.5t5 15q-11 10 -26 8t-27 -7q-11 0 -19.5 5t-19.5 0q-13 -5 -13.5 -16.5t-5.5 -21.5q-24 -29 -54 -48.5t-62 -30.5zM21 135h3q0 -2 -1 -2q2 -2 2 -4t1 -4q-2 -9 1 -13t1 -13q-1 -1 0.5 -1.5 t-0.5 -1.5q2 -4 0.5 -6t0.5 -4q0 -1 1.5 0t1.5 -2q-1 0 -1 -1h-1l1 -1q-1 -2 -0.5 -3.5t-0.5 -3.5q3 -4 1 -9t2 -6q10 -21 27.5 -42t40.5 -29q13 -3 25.5 -7t25.5 -7.5t26 -4.5t27 3q36 25 69.5 53l68.5 55q18 13 29 31.5t28 31.5h2q-3 -21 -4.5 -41.5t2.5 -40.5 q7 -17 21.5 -30.5l27.5 -25.5q6 -9 14.5 -11t17 -0.5t17.5 4t17 4.5q7 -2 13.5 0l12.5 4q28 16 52.5 37t50.5 41q12 10 18.5 22t17.5 23q26 15 35.5 39t17.5 49q-1 2 -1.5 4t-3.5 2l-26 -24q-35 -42 -78 -81.5t-89 -69.5q-6 -4 -14 -7t-16 2q-9 8 -19.5 16.5t-7.5 22.5 q6 17 14 34.5l16 34.5q51 91 93.5 184.5l85.5 188.5q6 9 13.5 17.5t9.5 19.5q4 13 -6 19q-10 1 -18 -1.5t-16 -6.5t-16 -7.5t-17 -4.5q-8 2 -15.5 3.5t-15.5 0.5q-13 -1 -21.5 -8.5t-13.5 -18.5q-29 -74 -63.5 -144.5l-69.5 -142.5q-18 -19 -32 -40t-30 -41l-46 -48 q-32 -26 -65.5 -57t-69.5 -51q-39 -4 -79 10q-8 9 -14.5 21t-12.5 26q3 20 8.5 38.5t16.5 35.5q14 13 30.5 22t29.5 25q32 35 59 71.5l53 72.5q9 18 19 35t23 33q13 22 24 44t13 48q-2 21 -5 41.5t-11 40.5q-5 9 -14.5 17l-17.5 15q-21 9 -44.5 3t-39.5 -20q-26 -5 -55 -8 t-52 -20q-1 -9 -6 -14.5t-11.5 -10t-12 -10t-7.5 -13.5q-5 -15 -13.5 -29t-6.5 -31q4 -7 10.5 -8t12.5 0q10 6 15.5 15t9.5 18.5l8 19t10 18.5q8 16 23 21l29 10q18 3 38 7.5t37 -8.5q6 -8 5 -13l-15.5 -42t-19.5 -41q-32 -28 -61 -60.5l-56 -64.5q-31 -32 -56 -66.5 t-30 -77.5q-1 0 -1 1l-1 -10q-4 -1 -3 -5.5t-3 -7.5h2q0 -3 -1 -4.5t0 -3.5q0 -4 2 -3q0 1 1 0t-1 -2v-3l-2 3l-1 -1q-2 -5 3 -7l-3 -2q1 1 3 -1q1 -2 -3 -4z" />
<glyph unicode="&#xdb;" horiz-adv-x="579" d="M185 703q11 -8 24 -6t24 5q35 10 67 31.5t55 53.5l2 1q10 -14 22 -28.5t32 -14.5q21 -21 45 -34t53 -12q3 1 6.5 2.5t3.5 4.5q-15 14 -32 25t-28 28q-7 6 -10.5 13.5t-6 15.5t-6 16t-9.5 15q-2 8 -2.5 17t-8.5 15q-13 9 -27 3t-25 -14h-5q-11 5 -22 8.5t-22 1.5 q-5 -2 -9.5 -6.5t-6.5 -9.5q2 -14 -3.5 -26.5t-14.5 -22.5q-20 -24 -44.5 -45t-51.5 -34v-3zM21 135h3q0 -2 -1 -2q2 -2 2 -4t1 -4q-2 -9 1 -13t1 -13q-1 -1 0.5 -1.5t-0.5 -1.5q2 -4 0.5 -6t0.5 -4q0 -1 1.5 0t1.5 -2q-1 0 -1 -1h-1l1 -1q-1 -2 -0.5 -3.5t-0.5 -3.5 q3 -4 1 -9t2 -6q10 -21 27.5 -42t40.5 -29q13 -3 25.5 -7t25.5 -7.5t26 -4.5t27 3q36 25 69.5 53l68.5 55q18 13 29 31.5t28 31.5h2q-3 -21 -4.5 -41.5t2.5 -40.5q7 -17 21.5 -30.5l27.5 -25.5q6 -9 14.5 -11t17 -0.5t17.5 4t17 4.5q7 -2 13.5 0l12.5 4q28 16 52.5 37 t50.5 41q12 10 18.5 22t17.5 23q26 15 35.5 39t17.5 49q-1 2 -1.5 4t-3.5 2l-26 -24q-35 -42 -78 -81.5t-89 -69.5q-6 -4 -14 -7t-16 2q-9 8 -19.5 16.5t-7.5 22.5q6 17 14 34.5l16 34.5q51 91 93.5 184.5l85.5 188.5q6 9 13.5 17.5t9.5 19.5q4 13 -6 19q-10 1 -18 -1.5 t-16 -6.5t-16 -7.5t-17 -4.5q-8 2 -15.5 3.5t-15.5 0.5q-13 -1 -21.5 -8.5t-13.5 -18.5q-29 -74 -63.5 -144.5l-69.5 -142.5q-18 -19 -32 -40t-30 -41l-46 -48q-32 -26 -65.5 -57t-69.5 -51q-39 -4 -79 10q-8 9 -14.5 21t-12.5 26q3 20 8.5 38.5t16.5 35.5q14 13 30.5 22 t29.5 25q32 35 59 71.5l53 72.5q9 18 19 35t23 33q13 22 24 44t13 48q-2 21 -5 41.5t-11 40.5q-5 9 -14.5 17l-17.5 15q-21 9 -44.5 3t-39.5 -20q-26 -5 -55 -8t-52 -20q-1 -9 -6 -14.5t-11.5 -10t-12 -10t-7.5 -13.5q-5 -15 -13.5 -29t-6.5 -31q4 -7 10.5 -8t12.5 0 q10 6 15.5 15t9.5 18.5l8 19t10 18.5q8 16 23 21l29 10q18 3 38 7.5t37 -8.5q6 -8 5 -13l-15.5 -42t-19.5 -41q-32 -28 -61 -60.5l-56 -64.5q-31 -32 -56 -66.5t-30 -77.5q-1 0 -1 1l-1 -10q-4 -1 -3 -5.5t-3 -7.5h2q0 -3 -1 -4.5t0 -3.5q0 -4 2 -3q0 1 1 0t-1 -2v-3l-2 3 l-1 -1q-2 -5 3 -7l-3 -2q1 1 3 -1q1 -2 -3 -4z" />
<glyph unicode="&#xdc;" horiz-adv-x="552" d="M21 126q1 -17 4 -33.5t8 -31.5q11 -17 21.5 -36.5t32.5 -27.5l28.5 -9t31 -7.5t31 -1t29.5 10.5q16 5 30.5 15t27 22.5l25 26t25.5 24.5l44 32.5t40 38.5l5 2q-3 -16 -9 -29.5t-6 -30.5q-2 -17 5 -30t18.5 -23.5t25 -19l25.5 -15.5q10 -2 18 2.5t16 9.5q14 -3 26 1 t22.5 11.5t20.5 17.5l19 19q14 14 28.5 24t27.5 24q6 6 10 13l8 14t9 12.5t13 7.5q20 11 25.5 30.5t9.5 39.5l-3 2q-16 -5 -29.5 -19t-27.5 -25q-27 -39 -65.5 -71t-76.5 -59l-10 -1q-9 3 -16 9.5t-7 16.5q2 20 10.5 38t13.5 38q6 20 15.5 38t20.5 36l22 36t19 37l74 162 l13 31l23 26l14.5 27.5t1.5 30.5q-14 4 -27 0.5t-24 -11.5q-11 -5 -22.5 -4t-21.5 -3q-8 0 -15 1.5t-15 -2.5q-14 -17 -23 -36t-11 -41q-14 -24 -25 -49.5t-25 -49.5l-38.5 -76.5l-35.5 -76.5q-26 -30 -55.5 -59.5t-61.5 -53.5q-14 -12 -27.5 -26t-27.5 -27t-29 -25t-32 -19 q-9 -6 -18.5 -7t-19 1t-19.5 5t-19 3q-16 8 -23 24t-12 31q6 38 22 68q17 7 33.5 17t30.5 25l58 76.5l58 76.5l21.5 39t25.5 36q12 21 22 43t9 48q-6 22 -8 45t-18 40l-15 15q-22 15 -46.5 6.5t-43.5 -20.5l-20 -1q-13 -4 -28 -5.5t-28.5 -4.5t-25 -10t-17.5 -22 q-24 -17 -33 -43l-17 -51q2 -5 5 -5h9q16 3 24 13t13.5 22.5l11 26t16.5 23.5q23 15 52.5 21.5t59.5 -1.5q7 -2 9 -8.5t2 -12.5q-5 -21 -15 -40.5t-19 -39.5q-32 -32 -63 -66.5l-63 -69.5q-45 -38 -67.5 -87.5t-14.5 -108.5zM371 638.5q1 -7.5 6 -13.5q8 -9 22 -7 q14 8 30 11.5t29 15.5q10 16 18.5 33t6.5 37q-3 8 -9 10.5t-14 4.5l-24 -4t-22 -10q-9 -9 -17 -18t-18 -18l-4.5 -13t-3.5 -14t0 -14.5zM509 657.5q-6 -14.5 5 -28.5l21 -14.5t25 -0.5q8 3 15.5 9.5t9.5 15.5q4 8 10 15t11.5 14.5t8.5 15.5t1 18l-6.5 13t-13.5 8 q-6 -2 -11 -1.5t-12 1.5q-11 -2 -21 -8.5t-15 -17.5q-5 -2 -11 -3.5t-8 -7.5q-3 -14 -9 -28.5z" />
<glyph unicode="&#xdd;" horiz-adv-x="566" d="M300 710q2 -8 9 -10t14 -3q46 5 86 26.5t74 54.5q6 6 13.5 9.5t14 8t11.5 10.5t5 15q-11 10 -26 8t-27 -7q-11 0 -19.5 5t-19.5 0q-13 -5 -13.5 -16.5t-5.5 -21.5q-24 -29 -54 -48.5t-62 -30.5zM17 116q-6 -29 8.5 -52t36.5 -43q22 -11 47 -17.5t49 -11.5q15 -2 28 4 t20 19q29 19 57 41t54 45q5 11 14.5 20t17.5 18h1q-2 -6 -5.5 -11.5t-7.5 -10.5q-21 -32 -38 -65.5t-32 -68.5q-20 -9 -42 -16t-43 -16q-41 -15 -76.5 -45.5t-67.5 -61.5q-6 -8 -10 -18t0 -21q14 -37 44 -67q5 -4 11 -4t12 1q20 7 38.5 15l38.5 16q17 8 34 14.5t31 21.5 q20 27 44 45.5t45 44.5q19 20 30 43t26 44q22 11 44 19l44 16q27 2 49.5 20t39.5 38q30 31 57.5 66.5t47.5 73.5v10q0 2 -5 2q-21 -9 -40 -26t-28 -39l-45.5 -50t-47.5 -47q-46 -14 -87 -32q-1 1 -3.5 0t-1.5 1l87 151t75 155q17 24 30.5 48.5t28.5 47.5q18 29 31.5 59.5 t31.5 58.5q6 8 13 16t5 19q-8 7 -17 8t-18 -0.5t-18.5 -4.5t-17.5 -4h-49q-10 0 -16.5 -5t-11 -12t-8 -15l-6.5 -15q-8 -31 -24 -58.5t-28 -56.5q-16 -46 -41.5 -88t-48.5 -86l-42 -47.5t-46 -46.5q-14 -20 -33.5 -38.5t-39.5 -32.5l-39.5 -28.5t-39.5 -25.5q-20 2 -38 7 t-35 16q-8 9 -14 19t-1 24q6 21 12.5 41.5t17.5 39.5q14 9 27.5 19.5l27.5 21.5l63 83.5t54 88.5q13 19 28.5 38.5t26.5 40t15.5 43t-3.5 46.5q-9 12 -12 26t-11 26q-11 20 -32.5 24.5t-40.5 -3.5q-16 -8 -33.5 -12.5t-35.5 -8t-35.5 -7.5t-34.5 -10q-25 -20 -37 -47.5 t-23 -55.5q0 -4 -0.5 -9t2.5 -8q14 -2 23 4t15.5 15t11 20t10.5 19l-1 9q4 7 9.5 13l11.5 13q23 6 45 11t45 7l11 -2q6 -4 11.5 -11t5.5 -15q-11 -34 -27 -70l-32 -33t-31 -33q-21 -29 -47.5 -56.5t-49.5 -55.5q-36 -50 -39 -102h-1q0 -23 -1 -45t-5 -45zM70 -183 q31 48 79.5 76t99.5 42q-9 -15 -13.5 -32.5t-10 -34.5t-15 -32t-27.5 -25q-18 -11 -37.5 -17t-37.5 -14q-6 -2 -12.5 -2.5t-11.5 3.5q-7 8 -12 16.5t-2 19.5z" />
<glyph unicode="&#xdf;" horiz-adv-x="458" d="M-125 -235.5q-1 -5.5 3 -10.5q3 -7 16 -7q13 2 18 13t10 20q7 26 23 48t36 42q13 11 28.5 12.5t28.5 12.5q23 27 39.5 57l33.5 60q13 15 21 31.5t14.5 34l13 35t15.5 33.5q19 44 42 86t31 90q-1 8 0.5 17t2 18t-1.5 16.5t-9 13.5q7 10 12 22t18 17l26 31t27 30.5t30 24.5 t37 13q5 0 5 -6q0 -5 2 -8q-1 -29 -3.5 -56.5t-9.5 -54.5q0 -8 -3.5 -14t-8.5 -12t-9.5 -12t-5.5 -13q-11 -11 -26 -15l-31 -8q-8 -2 -18.5 -0.5t-15.5 -8.5q-5 -8 -6 -20.5t7 -20.5q9 -3 18 -0.5t17 3.5q11 -5 24 -5t24 -3q8 -3 10 -13q-8 -20 -12.5 -40t-9.5 -40 q-2 -11 -3 -23.5t-6 -23.5q-14 -16 -28.5 -31t-33.5 -24l-26.5 -12t-26.5 -9q-8 5 -8 20q4 13 4 27t-2 28h-2q-12 -14 -19 -29t-13 -31q-4 -13 -6 -29t11 -27q6 -9 14.5 -11.5t18 -2t19 3t18.5 3.5h37q15 -4 27 0t23 11.5t21 17t21 16.5l39.5 22t31.5 32q16 23 14 53.5 t-3 58.5q-1 29 -17 53.5t-39 42.5v2q11 8 24 11.5t24 15.5q16 23 26 48t21 50q2 24 0 47t-10 44q-8 11 -18 22t-21 21q-14 10 -32 8.5t-34 -6.5l-74 -51q-17 -18 -32 -36l-30 -36q-19 -11 -28.5 -29t-20.5 -35q-22 -11 -42 -24t-40 -31l-42.5 -40.5t-36.5 -44.5 q-11 -12 -25.5 -23t-18.5 -28q15 -3 28.5 3.5t24.5 14.5q9 4 14.5 11l11 14l11.5 14t15 11q11 7 23 13l24 12q-16 -20 -27.5 -41.5t-21.5 -44t-19 -45.5t-20 -45l-10 -9q-13 -24 -22.5 -48.5t-21.5 -49.5q-34 -57 -64.5 -116l-61.5 -119q-2 -4 -3 -9.5z" />
<glyph unicode="&#xe0;" horiz-adv-x="480" d="M25.5 132.5q8.5 -43.5 37.5 -73.5q7 -19 20 -35.5t33 -25.5q11 -2 25 -2q15 0 26 11q28 23 50.5 50t39.5 58q-3 -30 6 -57.5t27 -50.5q8 -7 20 -9.5t23 3.5q38 17 71 45.5t56 65.5l23.5 34.5t16.5 37.5q2 11 4.5 21t0.5 21q-11 -4 -16 -15.5t-13 -19.5q-21 -36 -49.5 -70 t-63.5 -60q-6 -2 -12 -6t-12 -6.5t-13 -2.5q-6 0 -12 5q-5 2 -6.5 6.5t-1.5 8.5q-3 13 2.5 22t14.5 16.5t18.5 14.5t14.5 17q10 22 17.5 45.5l14.5 47t16.5 46t24.5 43.5q6 9 14 15t16 16q3 9 10 17.5t2 19.5l-7 7q-13 2 -26 0t-25 -5q-10 -4 -19.5 -2t-18.5 3.5t-18 0 t-16 -10.5l-28 -68q-7 20 -18.5 39.5t-33.5 26.5q-29 10 -58.5 -0.5t-52.5 -30.5q-6 -1 -12 -2.5t-11 -5.5q-32 -23 -56.5 -55t-39.5 -67q-14 -40 -5.5 -83.5zM127 69q-8 42 2.5 79.5t26.5 72.5q13 8 15.5 22t9.5 27q7 21 21.5 42.5t37.5 25.5q14 2 22.5 -7.5t14.5 -19.5 q5 -11 9 -22.5t6 -22.5q-8 -26 -19 -50.5t-21 -50.5l-35.5 -54.5t-45.5 -49.5q-7 -5 -14 -8.5t-15 -1.5q-8 0 -10.5 6.5zM191 597q-4 -10 0.5 -17.5t10.5 -15.5q20 -21 42 -42t46 -36q11 -5 22.5 -11.5t23 -11t23.5 -7t25 -0.5l1 3q-26 22 -55 43t-46 52q-1 5 0 10.5 t1.5 10.5t-1 10t-7.5 8q-22 8 -44 0q-10 2 -20.5 7t-21.5 -3z" />
<glyph unicode="&#xe1;" horiz-adv-x="480" d="M25.5 132.5q8.5 -43.5 37.5 -73.5q7 -19 20 -35.5t33 -25.5q11 -2 25 -2q15 0 26 11q28 23 50.5 50t39.5 58q-3 -30 6 -57.5t27 -50.5q8 -7 20 -9.5t23 3.5q38 17 71 45.5t56 65.5l23.5 34.5t16.5 37.5q2 11 4.5 21t0.5 21q-11 -4 -16 -15.5t-13 -19.5q-21 -36 -49.5 -70 t-63.5 -60q-6 -2 -12 -6t-12 -6.5t-13 -2.5q-6 0 -12 5q-5 2 -6.5 6.5t-1.5 8.5q-3 13 2.5 22t14.5 16.5t18.5 14.5t14.5 17q10 22 17.5 45.5l14.5 47t16.5 46t24.5 43.5q6 9 14 15t16 16q3 9 10 17.5t2 19.5l-7 7q-13 2 -26 0t-25 -5q-10 -4 -19.5 -2t-18.5 3.5t-18 0 t-16 -10.5l-28 -68q-7 20 -18.5 39.5t-33.5 26.5q-29 10 -58.5 -0.5t-52.5 -30.5q-6 -1 -12 -2.5t-11 -5.5q-32 -23 -56.5 -55t-39.5 -67q-14 -40 -5.5 -83.5zM127 69q-8 42 2.5 79.5t26.5 72.5q13 8 15.5 22t9.5 27q7 21 21.5 42.5t37.5 25.5q14 2 22.5 -7.5t14.5 -19.5 q5 -11 9 -22.5t6 -22.5q-8 -26 -19 -50.5t-21 -50.5l-35.5 -54.5t-45.5 -49.5q-7 -5 -14 -8.5t-15 -1.5q-8 0 -10.5 6.5zM193 449q2 -8 9 -10t13 -3q47 5 87 26.5t74 54.5q6 6 13 9.5t13.5 8t11.5 10.5t5 15q-11 10 -25.5 8t-27.5 -7q-11 0 -19.5 5t-19.5 0 q-13 -5 -13.5 -16.5t-5.5 -21.5q-23 -29 -53 -48.5t-62 -30.5z" />
<glyph unicode="&#xe2;" horiz-adv-x="480" d="M25.5 132.5q8.5 -43.5 37.5 -73.5q7 -19 20 -35.5t33 -25.5q11 -2 25 -2q15 0 26 11q28 23 50.5 50t39.5 58q-3 -30 6 -57.5t27 -50.5q8 -7 20 -9.5t23 3.5q38 17 71 45.5t56 65.5l23.5 34.5t16.5 37.5q2 11 4.5 21t0.5 21q-11 -4 -16 -15.5t-13 -19.5q-21 -36 -49.5 -70 t-63.5 -60q-6 -2 -12 -6t-12 -6.5t-13 -2.5q-6 0 -12 5q-5 2 -6.5 6.5t-1.5 8.5q-3 13 2.5 22t14.5 16.5t18.5 14.5t14.5 17q10 22 17.5 45.5l14.5 47t16.5 46t24.5 43.5q6 9 14 15t16 16q3 9 10 17.5t2 19.5l-7 7q-13 2 -26 0t-25 -5q-10 -4 -19.5 -2t-18.5 3.5t-18 0 t-16 -10.5l-28 -68q-7 20 -18.5 39.5t-33.5 26.5q-29 10 -58.5 -0.5t-52.5 -30.5q-6 -1 -12 -2.5t-11 -5.5q-32 -23 -56.5 -55t-39.5 -67q-14 -40 -5.5 -83.5zM96 446q11 -7 24 -5t24 4q35 11 67 32t55 54l1 1l23 -28.5t32 -14.5q20 -21 44.5 -34t53.5 -12q3 1 6.5 2t3.5 5 q-15 14 -32 25t-28 28q-7 6 -10.5 13.5t-6 15.5t-6 16t-9.5 15q-2 8 -3 17t-8 15q-13 9 -27 3t-25 -15h-5q-11 5 -22 9t-22 2q-12 -5 -16 -16q2 -14 -3.5 -26.5t-14.5 -23.5q-20 -23 -44.5 -44t-51.5 -34v-4zM127 69q-8 42 2.5 79.5t26.5 72.5q13 8 15.5 22t9.5 27 q7 21 21.5 42.5t37.5 25.5q14 2 22.5 -7.5t14.5 -19.5q5 -11 9 -22.5t6 -22.5q-8 -26 -19 -50.5t-21 -50.5l-35.5 -54.5t-45.5 -49.5q-7 -5 -14 -8.5t-15 -1.5q-8 0 -10.5 6.5z" />
<glyph unicode="&#xe4;" horiz-adv-x="477" d="M14.5 152q1.5 -21 8.5 -41t20 -35q9 -6 14 -14.5t9.5 -18t10 -18.5t15.5 -15q13 -8 28.5 -15t30.5 4q18 11 30 25.5t23 30.5l22 31.5t26 29.5h1q-2 -11 -3.5 -23.5t1.5 -23.5l10.5 -23.5t13 -23.5t18 -18t25.5 -7q31 14 60 33t53 48q10 10 14.5 24.5t19.5 22.5 q12 9 19 21t10.5 25t5 26.5t3.5 27.5q-17 -7 -28.5 -22.5t-17.5 -31.5q-18 -20 -35 -41t-31 -44q-17 -14 -36 -25.5t-42 -12.5q-7 2 -9.5 6.5t-3.5 10t-1 11.5q0 7 -1 12q8 11 17.5 18l20.5 15q21 22 27 51t15 58l42 90q15 14 30.5 30t15.5 37l-3 5q-10 4 -19 3t-18 -3.5 l-18 -5t-19 -0.5q-11 8 -24 8t-25 -5q-5 -20 -14.5 -39.5t-17.5 -39.5q-10 20 -22.5 40t-35.5 27q-29 5 -54 -4t-46 -26q-20 -5 -37.5 -17t-32.5 -28t-27.5 -34.5t-21.5 -36.5q-9 -17 -13.5 -37.5t-3 -41.5zM116 103q4 31 9 60.5t19 55.5q12 9 17.5 21t10 24.5t9.5 25 t16 22.5q5 6 10.5 12t11.5 10t13 5.5t15 -2.5l15 -12q12 -13 16.5 -29t8.5 -33q-6 -26 -17.5 -51l-22.5 -50q-15 -12 -26.5 -26.5l-22.5 -29.5l-22 -29.5t-26 -26.5q-4 -3 -10 -3q-5 0 -10 1q-13 11 -13.5 25t-0.5 30zM215 481q-1 -11 4 -22q7 -12 20 -15t25 -1q16 5 31 17 t23 29q3 8 0.5 15.5t3.5 12.5q7 9 3.5 19.5t-7.5 18.5l-11 13t-14 3q-7 -1 -13 -4.5t-11 -8.5t-10.5 -9.5t-11.5 -7.5l-14 -18.5t-12 -20t-6 -21.5zM363 496q3 -8 5.5 -16.5t8.5 -16.5q7 -5 14.5 -7.5t16.5 -0.5q18 5 35 19.5t21 34.5q1 6 4.5 12.5t5.5 13t1.5 13t-5.5 12.5 q-8 6 -17 10t-20 1q-12 -5 -24 -11t-23 -14l-13.5 -24.5t-9.5 -25.5z" />
<glyph unicode="&#xe5;" horiz-adv-x="480" d="M463 533q2 -11 9 -18.5t11 -16.5q5 -5 8.5 -11t6.5 -12t7 -10.5t12 -5.5l26 -4t27 0q30 16 62 20q20 12 33 31t24 39q19 17 26.5 38.5t6.5 44.5q2 7 5 12.5t3 13.5q1 15 -2 29.5t-17 24.5l-29.5 13.5t-30.5 11.5q-20 11 -43 7.5t-43 -9.5l-22 -11.5t-22 -15t-16.5 -19.5 t-5.5 -24q-31 -57 -36 -128zM539 537q2 27 10 53t19 49q14 20 33.5 32t44.5 11q7 -2 15.5 -1.5t14.5 -4.5q7 -5 9.5 -11.5t1.5 -14t-2.5 -14.5t-1.5 -13q-2 -14 -5 -27.5t-15 -21.5q-12 -11 -19 -25.5t-20 -26.5q-6 -7 -14 -8t-16 -6q-19 -9 -44 -4q-6 8 -7.5 16.5 t-3.5 16.5zM25.5 132.5q8.5 -43.5 37.5 -73.5q7 -19 20 -35.5t33 -25.5q11 -2 25 -2q15 0 26 11q28 23 50.5 50t39.5 58q-3 -30 6 -57.5t27 -50.5q8 -7 20 -9.5t23 3.5q38 17 71 45.5t56 65.5l23.5 34.5t16.5 37.5q2 11 4.5 21t0.5 21q-11 -4 -16 -15.5t-13 -19.5 q-21 -36 -49.5 -70t-63.5 -60q-6 -2 -12 -6t-12 -6.5t-13 -2.5q-6 0 -12 5q-5 2 -6.5 6.5t-1.5 8.5q-3 13 2.5 22t14.5 16.5t18.5 14.5t14.5 17q10 22 17.5 45.5l14.5 47t16.5 46t24.5 43.5q6 9 14 15t16 16q3 9 10 17.5t2 19.5l-7 7q-13 2 -26 0t-25 -5q-10 -4 -19.5 -2 t-18.5 3.5t-18 0t-16 -10.5l-28 -68q-7 20 -18.5 39.5t-33.5 26.5q-29 10 -58.5 -0.5t-52.5 -30.5q-6 -1 -12 -2.5t-11 -5.5q-32 -23 -56.5 -55t-39.5 -67q-14 -40 -5.5 -83.5zM127 69q-8 42 2.5 79.5t26.5 72.5q13 8 15.5 22t9.5 27q7 21 21.5 42.5t37.5 25.5 q14 2 22.5 -7.5t14.5 -19.5q5 -11 9 -22.5t6 -22.5q-8 -26 -19 -50.5t-21 -50.5l-35.5 -54.5t-45.5 -49.5q-7 -5 -14 -8.5t-15 -1.5q-8 0 -10.5 6.5z" />
<glyph unicode="&#xe7;" horiz-adv-x="365" d="M16 199q-2 -15 4 -30q1 -28 10 -52t23 -47q15 -12 26 -28.5t23 -32.5q14 -10 30.5 -6t31.5 6q61 19 117.5 54t98.5 92l21.5 37.5t12.5 40.5q-20 -19 -37 -41t-40 -41q-69 -72 -160 -102q-12 -1 -25.5 -6t-25.5 4q-7 8 -5 20q8 27 14.5 54t8.5 56q15 29 26.5 60t29.5 60 q15 13 26 28.5t27 27.5q14 0 26 3.5t26 3.5q9 -11 10 -26.5t0 -29.5q0 -10 8 -10q15 -2 24 6q12 20 8 44.5t-12 44.5q-4 6 -9.5 8t-12.5 1.5t-13.5 -2.5t-12.5 -3q-43 9 -87.5 0t-77.5 -37q-26 -10 -43 -32.5l-33 -43.5l-15.5 -25.5t-14.5 -27t-8 -28.5zM41 -112 q0 -14 22.5 -23t55.5 -9q51 0 79 14t28 42q0 30 -23 43.5t-53 13.5q-5 0 -11.5 -0.5t-15.5 -0.5l20 52h-30q-2 -5 -6 -14t-8 -19.5l-7.5 -19.5t-3.5 -12q0 -13 14 -13q33 0 46 -7t13 -20q0 -14 -9 -21.5t-32 -7.5q-17 0 -27 2.5t-17 6t-11.5 6t-9.5 2.5q-14 0 -14 -15z" />
<glyph unicode="&#xe8;" horiz-adv-x="338" d="M19 173.5q4 -27.5 4 -56.5q9 -12 15 -24.5l12.5 -25.5t15 -24.5t22.5 -20.5q1 -5 4 -8.5t7 -6.5q17 -9 35 -14t38 0q21 11 41.5 26.5t37.5 33.5q12 7 23.5 15.5t20.5 20.5q10 15 22.5 30t23.5 30.5t19 32.5t9 37q0 5 -5 3q-28 -38 -59.5 -69.5l-64.5 -67.5l-12 -6 q-19 -16 -39 -29.5t-44 -18.5q-10 2 -15.5 11.5t-9.5 19.5q-5 13 -4 26t4.5 25t7.5 24t6 24q17 16 38 24.5t44 6.5q23 -4 42.5 5t34.5 28q23 14 37.5 37t18.5 49q-5 16 -13 30t-23 22q-23 5 -43.5 13t-44.5 3q-26 -11 -52.5 -20t-50.5 -23l-29.5 -22.5t-30 -24.5t-26 -27.5 t-16.5 -32.5q-5 -28 -1 -55.5zM79 597q-3 -10 1 -17.5t10 -15.5q20 -21 42 -42t46 -36q11 -5 22.5 -11.5t23 -11t23.5 -7t25 -0.5l1 3q-13 11 -27 21.5l-27.5 21.5t-25.5 24t-21 28q-1 5 0 10.5t1.5 10.5t-1 10t-7.5 8q-22 8 -44 0q-10 2 -20.5 7t-21.5 -3zM152 219 q8 22 18 44t33 33q2 2 2.5 3t3.5 3q0 5 3 10.5t5 10.5q2 10 11 13.5t17 5.5q18 -1 35 -5.5t28 -18.5q2 -11 -1 -21t-9.5 -19t-14.5 -16.5l-15 -14.5q-8 -8 -18 -12t-19 -9q-21 2 -40.5 -0.5t-38.5 -6.5z" />
<glyph unicode="&#xe9;" horiz-adv-x="338" d="M19 173.5q4 -27.5 4 -56.5q9 -12 15 -24.5l12.5 -25.5t15 -24.5t22.5 -20.5q1 -5 4 -8.5t7 -6.5q17 -9 35 -14t38 0q21 11 41.5 26.5t37.5 33.5q12 7 23.5 15.5t20.5 20.5q10 15 22.5 30t23.5 30.5t19 32.5t9 37q0 5 -5 3q-28 -38 -59.5 -69.5l-64.5 -67.5l-12 -6 q-19 -16 -39 -29.5t-44 -18.5q-10 2 -15.5 11.5t-9.5 19.5q-5 13 -4 26t4.5 25t7.5 24t6 24q17 16 38 24.5t44 6.5q23 -4 42.5 5t34.5 28q23 14 37.5 37t18.5 49q-5 16 -13 30t-23 22q-23 5 -43.5 13t-44.5 3q-26 -11 -52.5 -20t-50.5 -23l-29.5 -22.5t-30 -24.5t-26 -27.5 t-16.5 -32.5q-5 -28 -1 -55.5zM115 449q1 -8 8.5 -10t13.5 -3q47 5 87 26.5t73 54.5q6 6 13.5 9.5t14 8t11.5 10.5t5 15q-11 10 -25.5 8t-27.5 -7q-11 0 -19.5 5t-19.5 0q-13 -5 -13.5 -16.5t-5.5 -21.5q-23 -29 -53 -48.5t-62 -30.5zM152 219q8 22 18 44t33 33q2 2 2.5 3 t3.5 3q0 5 3 10.5t5 10.5q2 10 11 13.5t17 5.5q18 -1 35 -5.5t28 -18.5q2 -11 -1 -21t-9.5 -19t-14.5 -16.5l-15 -14.5q-8 -8 -18 -12t-19 -9q-21 2 -40.5 -0.5t-38.5 -6.5z" />
<glyph unicode="&#xea;" horiz-adv-x="338" d="M19 173.5q4 -27.5 4 -56.5q9 -12 15 -24.5l12.5 -25.5t15 -24.5t22.5 -20.5q1 -5 4 -8.5t7 -6.5q17 -9 35 -14t38 0q21 11 41.5 26.5t37.5 33.5q12 7 23.5 15.5t20.5 20.5q10 15 22.5 30t23.5 30.5t19 32.5t9 37q0 5 -5 3q-28 -38 -59.5 -69.5l-64.5 -67.5l-12 -6 q-19 -16 -39 -29.5t-44 -18.5q-10 2 -15.5 11.5t-9.5 19.5q-5 13 -4 26t4.5 25t7.5 24t6 24q17 16 38 24.5t44 6.5q23 -4 42.5 5t34.5 28q23 14 37.5 37t18.5 49q-5 16 -13 30t-23 22q-23 5 -43.5 13t-44.5 3q-26 -11 -52.5 -20t-50.5 -23l-29.5 -22.5t-30 -24.5t-26 -27.5 t-16.5 -32.5q-5 -28 -1 -55.5zM25 443q11 -8 24 -6t24 5q35 10 67 31.5t55 53.5l2 1q10 -14 22 -28t32 -14q21 -21 45 -34.5t53 -12.5q3 1 6.5 2.5t3.5 4.5q-15 14 -32 25.5t-28 28.5q-7 6 -10.5 13t-6 15t-6 16t-9.5 15q-2 8 -2.5 17t-8.5 15q-12 9 -26.5 3t-25.5 -14h-5 q-11 5 -21.5 9t-22.5 1q-11 -5 -16 -16q2 -14 -3.5 -26t-14.5 -23q-20 -24 -44 -45t-52 -34v-3zM152 219q8 22 18 44t33 33q2 2 2.5 3t3.5 3q0 5 3 10.5t5 10.5q2 10 11 13.5t17 5.5q18 -1 35 -5.5t28 -18.5q2 -11 -1 -21t-9.5 -19t-14.5 -16.5l-15 -14.5q-8 -8 -18 -12 t-19 -9q-21 2 -40.5 -0.5t-38.5 -6.5z" />
<glyph unicode="&#xeb;" horiz-adv-x="338" d="M19 173.5q4 -27.5 4 -56.5q9 -12 15 -24.5l12.5 -25.5t15 -24.5t22.5 -20.5q1 -5 4 -8.5t7 -6.5q17 -9 35 -14t38 0q21 11 41.5 26.5t37.5 33.5q12 7 23.5 15.5t20.5 20.5q10 15 22.5 30t23.5 30.5t19 32.5t9 37q0 5 -5 3q-28 -38 -59.5 -69.5l-64.5 -67.5l-12 -6 q-19 -16 -39 -29.5t-44 -18.5q-10 2 -15.5 11.5t-9.5 19.5q-5 13 -4 26t4.5 25t7.5 24t6 24q17 16 38 24.5t44 6.5q23 -4 42.5 5t34.5 28q23 14 37.5 37t18.5 49q-5 16 -13 30t-23 22q-23 5 -43.5 13t-44.5 3q-26 -11 -52.5 -20t-50.5 -23l-29.5 -22.5t-30 -24.5t-26 -27.5 t-16.5 -32.5q-5 -28 -1 -55.5zM92 481q-1 -11 4 -22q7 -12 20 -15t25 -1q16 5 31 17t23 29q3 8 0.5 15.5t3.5 12.5q7 9 3.5 19.5t-7.5 18.5l-11 13t-14 3q-7 -1 -13 -4.5t-11 -8.5t-10.5 -9.5t-11.5 -7.5l-14 -18.5t-12 -20t-6 -21.5zM152 219q8 22 18 44t33 33q2 2 2.5 3 t3.5 3q0 5 3 10.5t5 10.5q2 10 11 13.5t17 5.5q18 -1 35 -5.5t28 -18.5q2 -11 -1 -21t-9.5 -19t-14.5 -16.5l-15 -14.5q-8 -8 -18 -12t-19 -9q-21 2 -40.5 -0.5t-38.5 -6.5zM240 496q3 -8 5.5 -16.5t8.5 -16.5q7 -5 14.5 -7.5t16.5 -0.5q18 5 35 19.5t21 34.5q1 6 4.5 12.5 t5.5 13t1.5 13t-5.5 12.5q-8 6 -17 10t-20 1q-12 -5 -24 -11t-23 -14l-13.5 -24.5t-9.5 -25.5z" />
<glyph unicode="&#xec;" horiz-adv-x="253" d="M61 770q-3 -10 1 -18t11 -16l42 -41t45 -37l45.5 -22.5t48.5 -7.5l1 3q-26 23 -54.5 43.5t-45.5 51.5q-2 5 -1 10.5t1.5 11t-1 10t-7.5 7.5q-22 10 -44 0q-10 2 -20.5 7.5t-21.5 -2.5zM16 133.5q2 -20.5 5 -41.5q2 -10 6 -20.5t16 -12.5q7 -11 14 -23.5t15.5 -23.5 t19.5 -18.5t26 -7.5l20.5 5.5t17.5 9.5l63 65.5t55 70.5q8 20 14.5 39.5t8.5 42.5q-1 2 -1.5 1t-1.5 -1q-30 -44 -62.5 -86t-71.5 -80q-7 -7 -14.5 -13.5t-17.5 -8.5q-9 0 -15 7t-10 13q-6 9 -6.5 18.5t1.5 19.5t6 19.5t6 18.5q17 18 26.5 39.5t16 44.5t12 46t14.5 45 q3 9 10 15l14 12t12 12.5t5 17.5q-4 6 -5.5 14t-10.5 8q-12 -4 -23.5 -8.5t-23.5 -7.5q-12 -2 -23 0.5t-23 1.5q-26 -20 -36.5 -46.5t-23.5 -52.5q-3 -25 -10 -48.5l-14 -47.5q-13 -18 -11 -38.5zM148 492.5q2 -12.5 1 -25.5q4 -9 12 -14.5t16 -7.5t14.5 0.5t12 8t10.5 11.5 t11 10q10 6 19 13.5t11 20.5q2 14 -4 25t-10 22q-5 7 -13 8t-16 3q-7 -2 -12.5 -7.5t-11.5 -10.5q-4 -12 -15 -18t-19 -15q-8 -11 -6 -23.5z" />
<glyph unicode="&#xed;" horiz-adv-x="253" d="M237 640q2 -8 9 -10t14 -3q46 5 86 26.5t74 54.5q6 6 13.5 9.5t14 8t11.5 10.5t5 15q-11 10 -26 8t-27 -7q-11 0 -19.5 5t-19.5 0q-13 -5 -13.5 -16.5t-5.5 -21.5q-24 -29 -54 -48.5t-62 -30.5zM16 133.5q2 -20.5 5 -41.5q2 -10 6 -20.5t16 -12.5q7 -11 14 -23.5 t15.5 -23.5t19.5 -18.5t26 -7.5l20.5 5.5t17.5 9.5l63 65.5t55 70.5q8 20 14.5 39.5t8.5 42.5q-1 2 -1.5 1t-1.5 -1q-30 -44 -62.5 -86t-71.5 -80q-7 -7 -14.5 -13.5t-17.5 -8.5q-9 0 -15 7t-10 13q-6 9 -6.5 18.5t1.5 19.5t6 19.5t6 18.5q17 18 26.5 39.5t16 44.5t12 46 t14.5 45q3 9 10 15l14 12t12 12.5t5 17.5q-4 6 -5.5 14t-10.5 8q-12 -4 -23.5 -8.5t-23.5 -7.5q-12 -2 -23 0.5t-23 1.5q-26 -20 -36.5 -46.5t-23.5 -52.5q-3 -25 -10 -48.5l-14 -47.5q-13 -18 -11 -38.5zM148 492.5q2 -12.5 1 -25.5q4 -9 12 -14.5t16 -7.5t14.5 0.5t12 8 t10.5 11.5t11 10q10 6 19 13.5t11 20.5q2 14 -4 25t-10 22q-5 7 -13 8t-16 3q-7 -2 -12.5 -7.5t-11.5 -10.5q-4 -12 -15 -18t-19 -15q-8 -11 -6 -23.5z" />
<glyph unicode="&#xee;" horiz-adv-x="253" d="M-23 432q11 -8 23.5 -6t23.5 5q36 10 67.5 31.5t54.5 53.5l2 1q10 -14 22 -28.5t32 -14.5q21 -21 45.5 -34t53.5 -12q3 1 6 2.5t3 4.5q-14 14 -31 25t-28 28q-7 6 -10.5 13.5t-6 15.5t-6 16t-9.5 15q-2 8 -3 17t-8 15q-13 9 -27 3t-25 -14h-5q-11 5 -22 8.5t-23 1.5 q-11 -5 -16 -16q2 -14 -3 -26.5t-14 -22.5q-20 -24 -44.5 -45t-51.5 -34v-3zM16 133.5q2 -20.5 5 -41.5q2 -10 6 -20.5t16 -12.5q7 -11 14 -23.5t15.5 -23.5t19.5 -18.5t26 -7.5l20.5 5.5t17.5 9.5l63 65.5t55 70.5q8 20 14.5 39.5t8.5 42.5q-1 2 -1.5 1t-1.5 -1 q-30 -44 -62.5 -86t-71.5 -80q-7 -7 -14.5 -13.5t-17.5 -8.5q-9 0 -15 7t-10 13q-6 9 -6.5 18.5t1.5 19.5t6 19.5t6 18.5q17 18 26.5 39.5t16 44.5t12 46t14.5 45q3 9 10 15l14 12t12 12.5t5 17.5q-4 6 -5.5 14t-10.5 8q-12 -4 -23.5 -8.5t-23.5 -7.5q-12 -2 -23 0.5 t-23 1.5q-26 -20 -36.5 -46.5t-23.5 -52.5q-3 -25 -10 -48.5l-14 -47.5q-13 -18 -11 -38.5z" />
<glyph unicode="&#xef;" horiz-adv-x="253" d="M16 133.5q2 -20.5 5 -41.5q2 -10 6 -20.5t16 -12.5q7 -11 14 -23.5t15.5 -23.5t19.5 -18.5t26 -7.5l20.5 5.5t17.5 9.5l63 65.5t55 70.5q8 20 14.5 39.5t8.5 42.5q-1 2 -1.5 1t-1.5 -1q-30 -44 -62.5 -86t-71.5 -80q-7 -7 -14.5 -13.5t-17.5 -8.5q-9 0 -15 7t-10 13 q-6 9 -6.5 18.5t1.5 19.5t6 19.5t6 18.5q17 18 26.5 39.5t16 44.5t12 46t14.5 45q3 9 10 15l14 12t12 12.5t5 17.5q-4 6 -5.5 14t-10.5 8q-12 -4 -23.5 -8.5t-23.5 -7.5q-12 -2 -23 0.5t-23 1.5q-26 -20 -36.5 -46.5t-23.5 -52.5q-3 -25 -10 -48.5l-14 -47.5 q-13 -18 -11 -38.5zM47 481q-1 -11 4 -22q8 -12 20.5 -15t24.5 -1q16 5 31.5 17t22.5 29q4 8 1 15.5t4 12.5q6 9 3 19.5t-8 18.5l-11 13t-14 3q-7 -1 -13 -4.5t-11 -8.5t-10.5 -9.5t-11.5 -7.5q-6 -9 -13.5 -18.5t-12.5 -20t-6 -21.5zM195 496q3 -8 5.5 -16.5t9.5 -16.5 q6 -5 13.5 -7.5t16.5 -0.5q19 5 36 19.5t20 34.5q1 6 4.5 12.5t5.5 13t1.5 13t-5.5 12.5q-8 6 -16.5 10t-19.5 1q-27 -11 -48 -25q-6 -13 -13 -24.5t-10 -25.5z" />
<glyph unicode="&#xf1;" horiz-adv-x="511" d="M2 2q0 -8 6 -11q13 -8 23 -0.5t21 11.5q10 6 21 7.5t22 1.5q12 0 24 -0.5t24 1.5q8 7 7.5 16.5t1.5 19.5q4 20 12.5 36.5t14.5 34.5q11 19 21 39l20.5 39.5t23.5 37.5t31 35q9 8 20.5 13t14.5 18l30 19q17 7 36 14t36 0q-11 -11 -20.5 -22l-19.5 -22q-18 -26 -37 -50.5 t-32 -53.5q-10 -32 -11.5 -67.5t7.5 -69.5q3 -10 11 -16.5t16 -11.5q6 -8 10.5 -18t17.5 -11q24 0 44 10.5t37 26.5t33 35t32 34q56 53 62 126l-3 2q-26 -41 -56.5 -77t-68.5 -71q-15 -12 -29.5 -27t-33.5 -17l-3.5 3.5t-2.5 3.5q-3 5 -3 12q0 8 2 14q22 44 49.5 85l55.5 81 q8 14 15 29t5 33q-2 19 -10.5 37.5t-28.5 23.5q-1 5 -3 11.5t-7 9.5q-24 4 -45.5 0.5t-42 -12t-39.5 -20l-37 -23.5q-5 11 -2.5 22.5t0.5 22.5q-4 6 -10 8t-12.5 3t-13 0.5t-12.5 0.5q-6 -1 -10 -5.5t-10 -4.5q-42 -28 -83 -62.5t-72 -77.5q-4 -7 -7.5 -18.5t-5.5 -19.5 t-2 -9l36.5 33.5t39.5 33.5q7 5 15 12t17 10l-16.5 -33.5l-17.5 -33.5q-3 -3 -2 -5t-3 -4l-31 -62t-36 -60q-9 -19 -21 -35t-15 -36zM76 511l37 -72q12 21 31.5 39.5t52.5 18.5q34 0 62.5 -8.5t51.5 -19.5q26 -11 50.5 -19t52.5 -8q23 0 41 6t33 15.5t27.5 22t23.5 25.5 l-37 72q-17 -21 -37 -39t-50 -18q-20 0 -47.5 9l-55.5 19q-29 11 -57 18.5t-54 7.5q-25 0 -44.5 -6t-34.5 -16t-26 -22t-20 -25z" />
<glyph unicode="&#xf2;" horiz-adv-x="343" d="M12 163q-5 -31 7 -60q11 -11 18 -25.5l13.5 -28t16.5 -25.5t27 -19q13 -8 26 -8t25.5 4t24.5 11l23 13q37 29 70.5 67t50.5 82q17 -2 36 0t35 11q8 5 14.5 12.5t11.5 14.5q2 5 4.5 10t2.5 10q-20 -8 -42 -13.5t-42 -4.5l-6 3q7 14 9.5 29t7.5 30q3 18 3.5 38t-9.5 36 q-12 11 -30 8l-10 12q-7 6 -17.5 7.5t-18.5 -2.5q-13 4 -28.5 4.5t-29.5 -1.5q-25 -11 -50 -20t-47 -27q-26 -25 -49.5 -51t-34.5 -58q-7 -28 -12 -59zM98 597q-4 -10 0.5 -17.5t10.5 -15.5q20 -21 42 -42t46 -36q11 -5 22 -11.5t22.5 -11t24 -7t25.5 -0.5l1 3 q-13 11 -27.5 21.5t-28 21.5t-25.5 24t-20 28q-2 5 -1 10.5t1.5 10.5t-0.5 10t-7 8q-22 8 -44 0q-10 2 -20.5 7t-21.5 -3zM121 52q0 6 1 10l1 33q8 10 10.5 21t4.5 22q17 91 63 165q6 8 12.5 14.5t16.5 7.5q-12 -33 -5 -69.5t33 -61.5q1 -4 4.5 -6t6.5 -4.5t4 -5t-3 -7.5 q-17 -38 -47.5 -69t-66.5 -52q-8 -2 -15 -7t-16 0q-4 4 -4 9zM266 271q-2 27 11 49q4 4 7 5q7 -2 12.5 -5t7.5 -11q4 -20 -1.5 -40l-10.5 -38q-11 6 -17.5 17.5t-8.5 22.5z" />
<glyph unicode="&#xf3;" horiz-adv-x="343" d="M12 163q-5 -31 7 -60q11 -11 18 -25.5l13.5 -28t16.5 -25.5t27 -19q13 -8 26 -8t25.5 4t24.5 11l23 13q37 29 70.5 67t50.5 82q17 -2 36 0t35 11q8 5 14.5 12.5t11.5 14.5q2 5 4.5 10t2.5 10q-20 -8 -42 -13.5t-42 -4.5l-6 3q7 14 9.5 29t7.5 30q3 18 3.5 38t-9.5 36 q-12 11 -30 8l-10 12q-7 6 -17.5 7.5t-18.5 -2.5q-13 4 -28.5 4.5t-29.5 -1.5q-25 -11 -50 -20t-47 -27q-26 -25 -49.5 -51t-34.5 -58q-7 -28 -12 -59zM121 52q0 6 1 10l1 33q8 10 10.5 21t4.5 22q17 91 63 165q6 8 12.5 14.5t16.5 7.5q-12 -33 -5 -69.5t33 -61.5 q1 -4 4.5 -6t6.5 -4.5t4 -5t-3 -7.5q-17 -38 -47.5 -69t-66.5 -52q-8 -2 -15 -7t-16 0q-4 4 -4 9zM122 449q2 -8 9 -10t13 -3q47 5 87 26.5t74 54.5q6 6 13.5 9.5t14 8t11.5 10.5t5 15q-11 10 -26 8t-28 -7q-11 0 -19.5 5t-19.5 0q-12 -5 -13 -16.5t-5 -21.5 q-24 -29 -54 -48.5t-62 -30.5zM266 271q-2 27 11 49q4 4 7 5q7 -2 12.5 -5t7.5 -11q4 -20 -1.5 -40l-10.5 -38q-11 6 -17.5 17.5t-8.5 22.5z" />
<glyph unicode="&#xf4;" horiz-adv-x="343" d="M12 163q-5 -31 7 -60q11 -11 18 -25.5l13.5 -28t16.5 -25.5t27 -19q13 -8 26 -8t25.5 4t24.5 11l23 13q37 29 70.5 67t50.5 82q17 -2 36 0t35 11q8 5 14.5 12.5t11.5 14.5q2 5 4.5 10t2.5 10q-20 -8 -42 -13.5t-42 -4.5l-6 3q7 14 9.5 29t7.5 30q3 18 3.5 38t-9.5 36 q-12 11 -30 8l-10 12q-7 6 -17.5 7.5t-18.5 -2.5q-13 4 -28.5 4.5t-29.5 -1.5q-25 -11 -50 -20t-47 -27q-26 -25 -49.5 -51t-34.5 -58q-7 -28 -12 -59zM25 443q11 -8 24 -6t24 5q35 10 67 31.5t55 53.5l2 1q10 -14 22 -28t32 -14q21 -21 45 -34.5t53 -12.5q3 1 6.5 2.5 t3.5 4.5q-15 14 -32 25.5t-28 28.5q-7 6 -10.5 13t-6 15t-6 16t-9.5 15q-2 8 -2.5 17t-8.5 15q-12 9 -26.5 3t-25.5 -14h-5q-11 5 -21.5 9t-22.5 1q-11 -5 -16 -16q2 -14 -3.5 -26t-14.5 -23q-20 -24 -44 -45t-52 -34v-3zM121 52q0 6 1 10l1 33q8 10 10.5 21t4.5 22 q17 91 63 165q6 8 12.5 14.5t16.5 7.5q-12 -33 -5 -69.5t33 -61.5q1 -4 4.5 -6t6.5 -4.5t4 -5t-3 -7.5q-17 -38 -47.5 -69t-66.5 -52q-8 -2 -15 -7t-16 0q-4 4 -4 9zM266 271q-2 27 11 49q4 4 7 5q7 -2 12.5 -5t7.5 -11q4 -20 -1.5 -40l-10.5 -38q-11 6 -17.5 17.5 t-8.5 22.5z" />
<glyph unicode="&#xf6;" horiz-adv-x="339" d="M10 155q-5 -22 4 -41t25 -35q7 -17 12.5 -33t21.5 -30l32 -13t34 2q27 17 55 31.5t51 39.5q13 10 21.5 22.5t15 26t12.5 27.5t14 27l3 1q11 -5 24.5 -3.5t25.5 3.5q18 6 34 21t21 35q-12 0 -23.5 -4.5l-22.5 -9t-22 -6.5t-24 3q9 20 13 42t9 44q2 14 0 30t-16 25 q-14 5 -27 -1l-8 16q-5 2 -10.5 4t-12.5 0l-12 -4q-17 8 -37 5t-36 -12q-32 -5 -60 -22.5t-52 -43.5q-32 -30 -45 -67.5t-20 -79.5zM112 73q0 9 4 17t8.5 15.5t7.5 15.5t2 19q6 54 22.5 102.5t55.5 86.5q4 2 7.5 4.5t7.5 3.5l-2 -5q-3 -18 -5.5 -38t1.5 -40l21 -35.5 t30 -32.5q-12 -26 -28 -51.5t-37 -47.5q-21 -11 -40.5 -24.5t-41.5 -21.5q-12 1 -11.5 12t-1.5 20zM140 479q2 -7 6 -13t11 -9q7 -2 14.5 -5t15.5 3q11 6 23.5 9t20.5 17q8 17 17.5 35t5.5 39q-9 14 -26 12.5t-30 -4.5q-18 -5 -28 -20.5t-23 -27.5q-3 -8 -5.5 -17t-1.5 -19z M261 280q1 12 4 23.5t10 22.5q6 5 13.5 3t10.5 -10q7 -17 3 -37t-6 -37l-5 -18q-12 10 -21.5 23t-8.5 30zM293 487q3 -9 11 -14.5l16 -10.5q11 -3 19.5 1t16.5 7q8 4 13 11t9 15t8.5 15.5t12.5 13.5q5 9 4 21t-6 20t-12.5 11t-14.5 -2q-14 5 -25 -2t-22 -15q-1 -6 -6.5 -8 t-10.5 -7q-16 -26 -13 -56z" />
<glyph unicode="&#xf9;" horiz-adv-x="429" d="M12 95q11 -23 17.5 -47t22.5 -44q8 -8 17 -10.5t19 -4.5q4 1 8.5 3t6.5 6q14 5 26.5 14t27.5 13q22 13 43.5 28.5t38.5 36.5q2 -8 5.5 -14t6.5 -13q1 -14 8 -23t17.5 -16t22.5 -12t22 -10q11 -3 20 2t16 13q16 20 33.5 39t31.5 40q23 28 37 59.5t14 69.5 q-26 -44 -60.5 -86t-72.5 -79l-6 -2q-7 -1 -13 5q-5 14 3.5 23t12.5 19q13 54 34.5 103t38.5 101q14 12 20 28.5t1 34.5l-5 6q-11 6 -22.5 5t-21.5 -6q-8 -3 -15.5 -1.5l-15.5 3t-15 1t-13 -7.5q-17 -20 -27.5 -44t-19.5 -47q-6 -23 -15 -43.5t-15 -42.5q-4 -9 -6 -19 t-4.5 -20t-7 -19t-13.5 -16q-18 -24 -42 -41t-52 -24q-5 -2 -11.5 -2.5t-11.5 2.5q-5 5 -4.5 10t3 9.5t5.5 9t4 9.5q11 37 19.5 74t20.5 72q3 13 9.5 24t15 21l17.5 20.5t15 21.5q4 12 -3 25q-6 13 -15 15t-20 -0.5t-22.5 -6.5t-21.5 -2q-5 -2 -8.5 0.5t-7 4.5t-7 3.5 t-8.5 -1.5q-18 -11 -18 -34q-14 -25 -23 -50.5t-17 -52.5q-8 -32 -17 -64.5t-3 -68.5zM169 579.5q4 -7.5 11 -15.5q20 -21 42 -42t45 -36q11 -5 22.5 -11.5t23 -11t24 -7t25.5 -0.5l1 3q-13 11 -27.5 21.5t-28 21.5t-25.5 24t-20 28q-3 10 0.5 21t-8.5 18q-22 8 -43 0 q-10 2 -20.5 7t-21.5 -3q-4 -10 0 -17.5z" />
<glyph unicode="&#xfa;" horiz-adv-x="429" d="M12 95q11 -23 17.5 -47t22.5 -44q8 -8 17 -10.5t19 -4.5q4 1 8.5 3t6.5 6q14 5 26.5 14t27.5 13q22 13 43.5 28.5t38.5 36.5q2 -8 5.5 -14t6.5 -13q1 -14 8 -23t17.5 -16t22.5 -12t22 -10q11 -3 20 2t16 13q16 20 33.5 39t31.5 40q23 28 37 59.5t14 69.5 q-26 -44 -60.5 -86t-72.5 -79l-6 -2q-7 -1 -13 5q-5 14 3.5 23t12.5 19q13 54 34.5 103t38.5 101q14 12 20 28.5t1 34.5l-5 6q-11 6 -22.5 5t-21.5 -6q-8 -3 -15.5 -1.5l-15.5 3t-15 1t-13 -7.5q-17 -20 -27.5 -44t-19.5 -47q-6 -23 -15 -43.5t-15 -42.5q-4 -9 -6 -19 t-4.5 -20t-7 -19t-13.5 -16q-18 -24 -42 -41t-52 -24q-5 -2 -11.5 -2.5t-11.5 2.5q-5 5 -4.5 10t3 9.5t5.5 9t4 9.5q11 37 19.5 74t20.5 72q3 13 9.5 24t15 21l17.5 20.5t15 21.5q4 12 -3 25q-6 13 -15 15t-20 -0.5t-22.5 -6.5t-21.5 -2q-5 -2 -8.5 0.5t-7 4.5t-7 3.5 t-8.5 -1.5q-18 -11 -18 -34q-14 -25 -23 -50.5t-17 -52.5q-8 -32 -17 -64.5t-3 -68.5zM193 449q2 -8 9 -10t13 -3q47 5 87 26.5t74 54.5q6 6 13 9.5t13.5 8t11.5 10.5t5 15q-11 10 -25.5 8t-27.5 -7q-11 0 -19.5 5t-19.5 0q-13 -5 -13.5 -16.5t-5.5 -21.5q-23 -29 -53 -48.5 t-62 -30.5z" />
<glyph unicode="&#xfb;" horiz-adv-x="429" d="M12 95q11 -23 17.5 -47t22.5 -44q8 -8 17 -10.5t19 -4.5q4 1 8.5 3t6.5 6q14 5 26.5 14t27.5 13q22 13 43.5 28.5t38.5 36.5q2 -8 5.5 -14t6.5 -13q1 -14 8 -23t17.5 -16t22.5 -12t22 -10q11 -3 20 2t16 13q16 20 33.5 39t31.5 40q23 28 37 59.5t14 69.5 q-26 -44 -60.5 -86t-72.5 -79l-6 -2q-7 -1 -13 5q-5 14 3.5 23t12.5 19q13 54 34.5 103t38.5 101q14 12 20 28.5t1 34.5l-5 6q-11 6 -22.5 5t-21.5 -6q-8 -3 -15.5 -1.5l-15.5 3t-15 1t-13 -7.5q-17 -20 -27.5 -44t-19.5 -47q-6 -23 -15 -43.5t-15 -42.5q-4 -9 -6 -19 t-4.5 -20t-7 -19t-13.5 -16q-18 -24 -42 -41t-52 -24q-5 -2 -11.5 -2.5t-11.5 2.5q-5 5 -4.5 10t3 9.5t5.5 9t4 9.5q11 37 19.5 74t20.5 72q3 13 9.5 24t15 21l17.5 20.5t15 21.5q4 12 -3 25q-6 13 -15 15t-20 -0.5t-22.5 -6.5t-21.5 -2q-5 -2 -8.5 0.5t-7 4.5t-7 3.5 t-8.5 -1.5q-18 -11 -18 -34q-14 -25 -23 -50.5t-17 -52.5q-8 -32 -17 -64.5t-3 -68.5zM96 446q11 -7 24 -5t24 4q35 11 67 32t55 54l1 1l23 -28.5t32 -14.5q20 -21 44.5 -34t53.5 -12q3 1 6.5 2t3.5 5q-15 14 -32 25t-28 28q-7 6 -10.5 13.5t-6 15.5t-6 16t-9.5 15 q-2 8 -3 17t-8 15q-13 9 -27 3t-25 -15h-5q-11 5 -22 9t-22 2q-12 -5 -16 -16q2 -14 -3.5 -26.5t-14.5 -23.5q-20 -23 -44.5 -44t-51.5 -34v-4z" />
<glyph unicode="&#xfc;" horiz-adv-x="477" d="M12 92q7 -17 10 -35t8 -37q5 -8 13 -15.5t17 -10.5t16 -1.5t13.5 6t12 10.5t11.5 11q23 4 42.5 14.5t36.5 27.5q22 15 35.5 35.5t33.5 37.5l1 -1q-2 -23 5.5 -43.5t6.5 -43.5q5 -8 7.5 -15.5t8.5 -14.5q10 -7 20.5 -11.5t22.5 -4.5l28 10.5t29 8.5l37 27q12 9 21 20 l18 23l18 23t21 20q17 19 24.5 42.5t11.5 48.5l-2 5q-23 -9 -34 -30.5t-24 -39.5q-19 -15 -33 -34.5l-28 -37.5q-14 -15 -32.5 -26t-38.5 -2v21q0 11 2 21q21 75 48 150q8 16 17.5 31.5t12.5 33.5q9 13 16 25.5t8 26.5q-3 8 -10 10q-30 -7 -62 -10q-9 -3 -18.5 -4t-20.5 -2 q-11 -3 -11.5 -12.5t-3.5 -17.5l-12 -21t-11 -21q-8 -20 -14 -40l-12 -41q-17 -14 -29.5 -31.5t-26.5 -33.5q-16 -23 -36.5 -38l-40.5 -30q-6 -5 -12.5 -6.5t-14.5 3.5q-8 2 -6.5 8.5l2.5 10.5q3 10 1.5 22t10.5 18q8 48 22.5 91.5t38.5 85.5q4 9 10.5 17t12 16t8 17.5 t-1.5 20.5q-22 0 -43 -3q-6 0 -11.5 -3t-11.5 -5.5t-11.5 -2t-10.5 6.5q-11 3 -19.5 -2.5t-17.5 -8.5q-20 -35 -32 -72.5t-20 -76.5q-3 -15 -8.5 -29.5t-10 -29t-7.5 -30t-1 -32.5zM187 473q8 -13 20 -15.5t23 -4.5q19 4 35 16t21 31q4 11 1 20.5t5 17.5q2 10 -1.5 18.5 t-9.5 16.5q-5 6 -12.5 7.5t-14.5 -1.5q-15 -12 -32.5 -22.5t-22.5 -30.5q-3 -14 -10 -26t-2 -27zM343 496q-3 -10 1 -15.5t10.5 -9t14 -6t12.5 -6.5q32 -5 49 19q8 19 17.5 37.5t11.5 39.5q-10 16 -26 22q-12 5 -23.5 -0.5t-22.5 -13.5q-22 -8 -30.5 -28t-13.5 -39z" />
<glyph unicode="&#xfd;" horiz-adv-x="513" d="M498 456q2 -8 9 -10t14 -3q46 5 86 26.5t74 54.5q6 6 13.5 9.5t14 8t11.5 10.5t5 15q-11 10 -26 8t-27 -7q-11 0 -19.5 5t-19.5 0q-13 -5 -13.5 -16.5t-5.5 -21.5q-24 -29 -54 -48.5t-62 -30.5zM-48 -197q-1 -11 3.5 -19.5t12 -16t16.5 -14l17 -12.5q23 -11 48 -5.5 t45 14.5q33 14 61.5 37t53.5 49l1 3q12 5 22.5 13.5t20.5 17.5q12 17 22 35t24 34l32.5 15t29.5 17q25 7 46 21.5t40 32.5t36.5 38t36.5 38q20 20 32 45.5t18 52.5q0 8 1.5 14.5t0.5 12.5q-5 -2 -6.5 -6.5t-6.5 -8.5q-7 -15 -18 -28t-20 -29l-48 -50t-46 -50 q-9 -13 -21.5 -20t-25.5 -13l-26 -12.5t-24 -17.5l-4 1l33.5 69t24.5 74q13 35 27 68.5l28 67.5q5 11 8 24t13 23q2 7 7 13t9.5 12.5t7.5 14t1 16.5l-5.5 5.5t-6.5 3.5q-9 -1 -17 -4.5l-16 -7t-16 -6t-17 -0.5q-14 2 -28 3.5t-24 -12.5q-22 -51 -37.5 -104t-33.5 -106 q-11 -23 -29 -42t-38 -37l-30.5 -24.5t-35.5 -14.5q-5 2 -9 3t-6 6q-7 17 -6 35t3 36q16 32 39 62.5l44 60.5q15 20 18 45.5t-7 47.5q4 11 5 22t-6 21q-7 7 -18 7q-28 -11 -54.5 -22.5t-50.5 -29.5q-29 -21 -57 -50t-38 -64q0 -7 -2 -14t0 -14q12 5 24 19q19 36 50.5 61 t65.5 44q1 -1 1 -3q-31 -34 -58.5 -68t-42.5 -75q-6 -17 -8 -35t0.5 -36t9.5 -34.5t20 -29.5q5 1 6.5 -2.5t4.5 -3.5l17 -16.5t20 -12.5q17 -3 32 0.5t29.5 10t28 14t27.5 13.5q-13 -20 -23.5 -41.5t-24.5 -41.5q-41 -11 -80.5 -25.5t-77.5 -35.5q-9 -10 -21 -18t-23 -16.5 t-19.5 -19t-11.5 -25.5zM-3 -199q3 10 10.5 16t13.5 13q32 25 67.5 41t73.5 27q-14 -28 -32 -55.5t-45 -46.5q-9 -3 -18.5 -8.5t-19.5 -9.5t-20 -4.5t-20 7.5l-7.5 9.5t-2.5 10.5z" />
<glyph unicode="&#x152;" horiz-adv-x="916" d="M495.5 77q1.5 -17 7 -33t17.5 -28q16 -8 30.5 -17t31.5 -14q21 -9 44.5 -4t41.5 15q23 14 47.5 22.5t46.5 24.5l1 2q7 1 13 7l57 34.5t54 38.5q9 10 20.5 14t19.5 15q11 17 18.5 34.5t9.5 37.5h-2q-13 -9 -22.5 -19.5l-19.5 -21.5l-61.5 -44.5t-63.5 -37.5 q-23 -11 -42.5 -26.5t-43.5 -18.5q-9 -2 -17.5 -6t-17.5 -7t-18 -4.5t-18 0.5q-8 16 -8 35q0 20 3 38q18 43 40.5 82.5l44.5 81.5q18 10 38.5 15t40.5 11q6 8 15 6.5t17 2.5q8 6 16 10.5t15 11.5q7 9 4 19q-7 16 -23 15q-8 -5 -17 -5.5t-18 -0.5q-17 0 -33.5 -1.5t-29.5 9.5 q-2 5 -3 12.5t1 12.5q10 1 17.5 4t15.5 5l54.5 17.5t54 19t50.5 25t45 36.5q19 9 32.5 26.5t23.5 35.5q0 5 2.5 9t5.5 7.5t5 7.5t1 10q0 13 -6.5 24t-18.5 16q-28 11 -60.5 16t-61.5 -2q-23 2 -44 -4t-40 -14q-53 -26 -97 -71t-75 -96q-25 6 -44 28q-6 7 -6.5 15t1.5 16 t5.5 15.5t5.5 14.5q2 9 7 16t5 16q-26 -7 -40.5 -30.5t-22.5 -46.5q-4 -11 3.5 -18.5t9.5 -17.5q8 -18 24 -31t32 -24l3 -4q-4 -11 -3 -23t6 -22q7 -19 24 -28.5t34 -15.5v-2q-20 -11 -41 -19t-41 -21q-38 -24 -64.5 -61t-32.5 -80q-3 -16 -5 -33.5t-0.5 -34.5zM755 444 q7 17 19.5 32t23.5 31q23 29 49.5 55.5t58.5 43.5l39.5 6t37.5 -7l4 -6q5 -9 2 -18t-8 -18q-4 -7 -11 -10.5t-13 -10.5q-18 -20 -39 -34t-43.5 -24.5t-46 -18.5t-46.5 -17q-6 -2 -13 -2.5t-14 -1.5zM26.5 283q0.5 -27 3.5 -53q7 -75 45 -138q16 -27 38.5 -55.5t54.5 -37.5 q16 1 29.5 -5.5t30.5 -1.5q25 7 48 19.5t44.5 28.5t42 34l41.5 36q8 8 15.5 16.5t12.5 18.5q35 47 57 98t37 106q5 31 9.5 62.5t1.5 63.5q2 5 4 6q15 10 32.5 19.5t33 21.5t26 27.5t10.5 36.5q0 2 -2.5 3.5t-4.5 -0.5q-22 -23 -47.5 -37l-50.5 -29l-4 -1q-2 13 -8.5 23 t-12.5 21q-15 16 -31 31t-34 24.5t-38.5 13t-43.5 -2.5q-8 5 -19 5q-56 -17 -103 -46q-6 -6 -13.5 -8l-15.5 -4l-43.5 -30.5t-41.5 -34.5q-31 -24 -50 -55.5t-34 -63.5q-6 -14 -7 -29.5t-3 -30.5q-10 -25 -9.5 -52zM103 148q-2 17 0 35q-4 10 0 19.5t5 20.5q1 8 5.5 14.5 l9 13t8.5 13.5t5 15q8 19 18.5 37t12.5 40q5 5 6 13t3 14q-4 8 1 15.5l9 13.5q18 17 29 35.5t28 35.5q14 20 33 29t37 23q4 11 15 15t21 9l29 17q-2 -11 -6 -22.5t-6.5 -23t-1 -23t10.5 -21.5q8 -10 18 -18t23 -7q21 -1 42 0t41 4q4 -84 -23.5 -157t-75.5 -137l-4 -10 q-28 -32 -60.5 -62t-67.5 -53q-15 -13 -36 -13.5t-38 9.5q-27 8 -47 30t-32 45q-10 14 -12 31zM408 510q2 13 6 25l8 23q5 7 14 11q13 2 21 -6t16 -15q15 -18 23 -43q-17 -6 -37.5 -7t-40.5 2q-3 1 -5.5 4t-4.5 6z" />
<glyph unicode="&#x153;" horiz-adv-x="681" d="M362 173.5q4 -27.5 4 -56.5q9 -12 15 -24.5l12.5 -25.5t15 -24.5t22.5 -20.5q1 -5 4 -8.5t7 -6.5q17 -9 35 -14t38 0q21 11 41.5 26.5t37.5 33.5q12 7 23.5 15.5t20.5 20.5q10 15 22.5 30t23.5 30.5t19 32.5t9 37q0 5 -5 3q-28 -38 -59.5 -69.5l-64.5 -67.5l-12 -6 q-19 -16 -39 -29.5t-44 -18.5q-10 2 -15.5 11.5t-9.5 19.5q-5 13 -4 26t4.5 25t7.5 24t6 24q17 16 38 24.5t44 6.5q23 -4 42.5 5t34.5 28q23 14 37.5 37t18.5 49q-5 16 -13 30t-23 22q-23 5 -43.5 13t-44.5 3q-26 -11 -52.5 -20t-50.5 -23l-29.5 -22.5t-30 -24.5t-26 -27.5 t-16.5 -32.5q-5 -28 -1 -55.5zM495 219q8 22 18 44t33 33q2 2 2.5 3t3.5 3q0 5 3 10.5t5 10.5q2 10 11 13.5t17 5.5q18 -1 35 -5.5t28 -18.5q2 -11 -1 -21t-9.5 -19t-14.5 -16.5l-15 -14.5q-8 -8 -18 -12t-19 -9q-21 2 -40.5 -0.5t-38.5 -6.5zM12 163q-5 -31 7 -60 q11 -11 18 -25.5l13.5 -28t16.5 -25.5t27 -19q13 -8 26 -8t25.5 4t24.5 11l23 13q37 29 70.5 67t50.5 82q17 -2 36 0t35 11q8 5 14.5 12.5t11.5 14.5q2 5 4.5 10t2.5 10q-20 -8 -42 -13.5t-42 -4.5l-6 3q7 14 9.5 29t7.5 30q3 18 3.5 38t-9.5 36q-12 11 -30 8l-10 12 q-7 6 -17.5 7.5t-18.5 -2.5q-13 4 -28.5 4.5t-29.5 -1.5q-25 -11 -50 -20t-47 -27q-26 -25 -49.5 -51t-34.5 -58q-7 -28 -12 -59zM121 52q0 6 1 10l1 33q8 10 10.5 21t4.5 22q17 91 63 165q6 8 12.5 14.5t16.5 7.5q-12 -33 -5 -69.5t33 -61.5q1 -4 4.5 -6t6.5 -4.5t4 -5 t-3 -7.5q-17 -38 -47.5 -69t-66.5 -52q-8 -2 -15 -7t-16 0q-4 4 -4 9zM266 271q-2 27 11 49q4 4 7 5q7 -2 12.5 -5t7.5 -11q4 -20 -1.5 -40l-10.5 -38q-11 6 -17.5 17.5t-8.5 22.5z" />
<glyph unicode="&#x2c6;" horiz-adv-x="377" d="M26 432q11 -8 24 -6t24 5q35 10 67 31.5t55 53.5l2 1q10 -14 22 -28.5t32 -14.5q21 -21 45 -34t53 -12q3 1 6.5 2.5t3.5 4.5q-15 14 -32 25t-28 28q-7 6 -10.5 13.5t-6 15.5t-6 16t-9.5 15q-2 8 -2.5 17t-8.5 15q-13 9 -27 3t-25 -14h-5q-11 5 -22 8.5t-22 1.5 q-5 -2 -9.5 -6.5t-6.5 -9.5q2 -14 -3.5 -26.5t-14.5 -22.5q-20 -24 -44.5 -45t-51.5 -34v-3z" />
<glyph unicode="&#x2000;" horiz-adv-x="457" />
<glyph unicode="&#x2001;" horiz-adv-x="914" />
<glyph unicode="&#x2002;" horiz-adv-x="457" />
<glyph unicode="&#x2003;" horiz-adv-x="914" />
<glyph unicode="&#x2004;" horiz-adv-x="304" />
<glyph unicode="&#x2005;" horiz-adv-x="228" />
<glyph unicode="&#x2006;" horiz-adv-x="152" />
<glyph unicode="&#x2007;" horiz-adv-x="152" />
<glyph unicode="&#x2008;" horiz-adv-x="114" />
<glyph unicode="&#x2009;" horiz-adv-x="182" />
<glyph unicode="&#x200a;" horiz-adv-x="50" />
<glyph unicode="&#x2010;" horiz-adv-x="290" d="M35 220q2 -6 6.5 -7t8.5 -1q19 5 36 12.5t35 13.5q28 5 57 3t56 -6q7 -2 12.5 -8.5t13.5 -3.5q10 6 15.5 17t7.5 22q4 6 9.5 11.5t10.5 11.5t7 13t-2 15q-2 7 -8.5 10t-13.5 1q-8 -8 -17 -12.5t-19 -7.5t-20 -5.5t-19 -6.5l-96 -1q-8 3 -12.5 10t-13.5 8q-5 -1 -9 -2 t-6 -6l-14 -38l-25 -33v-10z" />
<glyph unicode="&#x2011;" horiz-adv-x="290" d="M35 220q2 -6 6.5 -7t8.5 -1q19 5 36 12.5t35 13.5q28 5 57 3t56 -6q7 -2 12.5 -8.5t13.5 -3.5q10 6 15.5 17t7.5 22q4 6 9.5 11.5t10.5 11.5t7 13t-2 15q-2 7 -8.5 10t-13.5 1q-8 -8 -17 -12.5t-19 -7.5t-20 -5.5t-19 -6.5l-96 -1q-8 3 -12.5 10t-13.5 8q-5 -1 -9 -2 t-6 -6l-14 -38l-25 -33v-10z" />
<glyph unicode="&#x2012;" horiz-adv-x="290" d="M35 220q2 -6 6.5 -7t8.5 -1q19 5 36 12.5t35 13.5q28 5 57 3t56 -6q7 -2 12.5 -8.5t13.5 -3.5q10 6 15.5 17t7.5 22q4 6 9.5 11.5t10.5 11.5t7 13t-2 15q-2 7 -8.5 10t-13.5 1q-8 -8 -17 -12.5t-19 -7.5t-20 -5.5t-19 -6.5l-96 -1q-8 3 -12.5 10t-13.5 8q-5 -1 -9 -2 t-6 -6l-14 -38l-25 -33v-10z" />
<glyph unicode="&#x2013;" horiz-adv-x="466" d="M42.5 246.5q-3.5 -6.5 1.5 -11.5q12 -7 23 -1t22 10q43 8 89 10.5t92 3.5q19 4 37.5 7t37.5 -4q7 0 15 -3.5t16.5 -6t16 -1t13.5 11.5q3 5 0.5 9.5t-0.5 9.5q6 11 16 20t7 23q-2 5 -5 6t-6 1l-54 -14q-32 -8 -66.5 -10.5t-69.5 -3.5q-22 4 -43 7l-44 6q-7 -1 -12 2 t-9 7.5t-9 7.5t-12 2q-8 -3 -12 -9l-15.5 -36t-23.5 -32q-2 -5 -5.5 -11.5z" />
<glyph unicode="&#x2014;" horiz-adv-x="1000" d="M35 212v113h986v-113h-986z" />
<glyph unicode="&#x2018;" horiz-adv-x="209" d="M32 507q3 -11 4 -22.5t11 -18.5l15 -9t16.5 -7t17 -1t15.5 9q7 12 18.5 23.5t21 23.5t14 25t-0.5 29q-8 16 -24 21q-18 2 -34 -3.5t-27 -20.5l-2 1l5 22q10 22 24 42.5t36 34.5q8 4 17.5 6t14.5 11q7 12 4 25q-6 8 -16.5 5.5l-18.5 -4.5q-11 -3 -20 -9.5t-17 -15 t-15.5 -17.5t-16.5 -16q-20 -30 -34 -63t-8 -71z" />
<glyph unicode="&#x2019;" horiz-adv-x="212" d="M36 460.5q-1 -7.5 8 -11.5q8 -2 14 -0.5t12 5.5q8 12 19 22.5l21.5 20.5t20.5 20.5t17 23.5q16 29 27 60.5t3 63.5q-5 17 -19 28t-30 13q-19 -1 -32.5 -14.5t-21.5 -28.5q-11 -10 -21.5 -21t-9.5 -28q1 -9 5 -18t14 -14q9 -5 17 -5q9 0 17 3t15.5 7.5l14.5 8.5 q-6 -25 -18.5 -45.5t-30.5 -39.5q-10 -9 -23.5 -15t-18.5 -20q1 -8 0 -15.5z" />
<glyph unicode="&#x201c;" horiz-adv-x="451" d="M91 507q4 -11 4.5 -22.5t10.5 -18.5l15.5 -9t17 -7t17 -1t15.5 9q7 12 18.5 23.5t21 23.5t14 25t-0.5 29q-8 16 -25 21q-17 2 -33 -3.5t-27 -20.5l-2 1l5 22q10 22 23.5 42.5t35.5 34.5q8 4 17.5 6t15.5 11q7 12 4 25q-7 8 -17.5 5.5l-18.5 -4.5q-11 -3 -20 -9.5 t-16.5 -15l-15.5 -17.5t-17 -16q-20 -30 -33.5 -63t-8.5 -71zM294 494q5 -16 18.5 -27t30.5 -13q18 2 31.5 15t21.5 29q11 9 21.5 20.5t10.5 26.5q-2 9 -6 18.5t-14 14.5q-17 10 -33.5 2t-29.5 -15q5 23 17.5 44t30.5 41q10 9 23.5 14.5t18.5 19.5q-2 7 0 15t-8 11 q-7 3 -13.5 1t-11.5 -6q-9 -12 -19.5 -22l-21.5 -20l-21.5 -20.5t-17.5 -23.5q-14 -28 -25.5 -60t-2.5 -65z" />
<glyph unicode="&#x201d;" horiz-adv-x="406" d="M36 460.5q-1 -7.5 8 -11.5q8 -2 14 -0.5t12 5.5q8 12 19 22.5l21.5 20.5t20.5 20.5t17 23.5q16 29 27 60.5t3 63.5q-5 17 -19 28t-30 13q-19 -1 -32.5 -14.5t-21.5 -28.5q-11 -10 -21.5 -21t-9.5 -28q1 -9 5 -18t14 -14q9 -5 17 -5q9 0 17 3t15.5 7.5l14.5 8.5 q-6 -25 -18.5 -45.5t-30.5 -39.5q-10 -9 -23.5 -15t-18.5 -20q1 -8 0 -15.5zM233.5 475q-1.5 -6 0.5 -13q6 -8 16.5 -5.5t18.5 3.5q23 8 37 26t32 33q20 30 34 63t8 71q-3 11 -4 22.5t-11 18.5l-15 9t-16.5 7t-17.5 1t-16 -9q-7 -12 -18 -23.5t-20.5 -23.5t-14 -25.5 t0.5 -29.5q4 -7 10 -12t14 -7q17 -2 33.5 3t27.5 19l2 -1l-5 -20q-10 -23 -24 -43.5t-36 -35.5q-8 -2 -18 -4t-15 -13q-2 -5 -3.5 -11z" />
<glyph unicode="&#x201e;" horiz-adv-x="425" d="M39 15q5 -11 15 -13t18 -7q11 -5 22.5 -1.5t21.5 5.5q2 -2 1 -3t-2 -3h1q-3 -20 -13.5 -38t-24.5 -35l-18.5 -10.5t-11.5 -16.5q3 -8 11.5 -11.5t17.5 -3.5q14 2 26.5 10t20.5 21q6 17 15.5 31.5t17.5 30.5q10 21 13 45.5t15 45.5q5 11 2 22t-8 20q-11 20 -33.5 22 t-39.5 -9q-6 -9 -14 -14.5t-15.5 -10l-15.5 -9.5t-14 -13q-17 -25 -8 -55zM244 -101q2 -5 4.5 -9t6.5 -6q30 -1 51 14q29 31 51.5 65t33.5 72q5 12 4 23t-4 22t-7.5 21.5t-6.5 21.5q-2 5 -8 9.5t-11 7.5q-10 4 -20.5 2t-18.5 -10q-6 -10 -14 -17.5t-17 -14t-17.5 -14 t-14.5 -17.5q-4 -11 -6 -24.5t6 -22.5q12 -11 26 -18t29 -1q8 1 14.5 5t11.5 8q-1 -5 -2 -9t-4 -9q-8 -10 -15 -21.5l-14 -22t-16 -20t-22 -14.5q-7 -5 -12.5 -9.5t-7.5 -11.5z" />
<glyph unicode="&#x2022;" horiz-adv-x="286" d="M70.5 221.5q-4.5 -30.5 13.5 -56.5q14 -11 28 -17.5t31 -2.5q17 3 30 15t21 25q5 8 6.5 17.5t12.5 13.5q12 20 18.5 44.5t-4.5 47.5q-14 19 -34 27q-33 5 -59.5 -13.5t-44.5 -43.5q-14 -26 -18.5 -56.5z" />
<glyph unicode="&#x2026;" horiz-adv-x="525" d="M379 46q6 -8 5.5 -17t-0.5 -17q4 -7 11 -12t16 -5q22 0 40 21q11 2 18.5 11.5t15.5 18.5q10 14 15 34.5t-6 37.5l-8 11q-16 7 -33.5 3t-30.5 -16q-17 -14 -30.5 -31t-12.5 -39zM204 46q6 -8 5.5 -17t-0.5 -17q4 -7 11 -12t16 -5q22 0 40 21q11 2 18.5 11.5t15.5 18.5 q10 14 15 34.5t-6 37.5l-8 11q-16 7 -33.5 3t-30.5 -16q-17 -14 -30.5 -31t-12.5 -39zM29 46q6 -8 5.5 -17t-0.5 -17q4 -7 11 -12t16 -5q22 0 40 21q11 2 18.5 11.5t15.5 18.5q10 14 15 34.5t-6 37.5l-8 11q-16 7 -33.5 3t-30.5 -16q-17 -14 -30.5 -31t-12.5 -39z" />
<glyph unicode="&#x202f;" horiz-adv-x="182" />
<glyph unicode="&#x2039;" horiz-adv-x="287" d="M32 187q6 -10 14.5 -15.5t18 -10t18.5 -10t16 -15.5q23 -21 47 -36.5l50 -31.5q8 -5 14.5 -15t18.5 -8q8 5 8.5 12.5t0.5 15.5q2 8 3.5 17.5t-1.5 19.5q-1 7 -8 7t-12 -1l-37 19q-15 1 -28 7.5t-25 14t-23.5 16t-24.5 14.5l-1 2q34 21 69 37t66 42l26 8q12 7 11 19 q-4 12 -3 25t1 24q-1 5 -5 5h-8q-13 -7 -22 -19t-22 -20q-29 -9 -52.5 -30.5t-48.5 -41.5q-14 -9 -26.5 -19.5t-29.5 -12.5q-2 -4 -4.5 -8t-0.5 -11z" />
<glyph unicode="&#x203a;" horiz-adv-x="268" d="M34 48q2 -7 7 -9q5 0 10 -0.5t9 4.5q6 10 14 17.5t17.5 13l19 10.5t18.5 12q25 19 49.5 40.5l49.5 41.5q12 10 12 26q-4 6 -11 8.5t-15 1.5q-34 26 -66 57l-64 60l-10 14t-13 9q-3 1 -7.5 1.5t-5.5 -3.5q-2 -5 -1.5 -10.5t1.5 -10.5q2 -8 1 -16t-2.5 -15.5t-1 -15 t5.5 -14.5q5 -4 11 -4t13 -1q16 -6 30.5 -16l29 -20.5l29 -20.5t30.5 -17q-29 -23 -59.5 -42t-62.5 -33q-7 0 -15 4t-14 -4q-8 -4 -6 -14q6 -15 2 -28t-5 -26z" />
<glyph unicode="&#x205f;" horiz-adv-x="228" />
<glyph unicode="&#x2122;" horiz-adv-x="1466" d="M444 138q-6 -44 11 -85.5t55 -61.5q29 -14 63 -10.5t62 19.5q22 22 42.5 46.5t29.5 52.5q18 21 31.5 44.5t33.5 41.5q9 7 14.5 16t10 18l9 17.5t12.5 16.5q26 26 46.5 55l41.5 58q17 19 35 37t35 37q5 2 9 6.5t7 9.5q10 2 17 10.5t15 13.5l-12 -29.5t-11 -29.5 q-23 -59 -38 -120.5t-24 -125.5l-20 -51.5t-19 -51.5q-2 -10 -7.5 -18.5l-11.5 -17t-10 -17.5t-3 -20q2 -5 5.5 -7.5t8.5 -4.5q11 -2 21.5 3.5t18.5 15.5q22 11 43 25.5t37 37.5q16 26 39.5 47t44.5 43q32 28 56 62q13 20 31 35t34 34q27 40 58 81t71 74l5 1l-34.5 -75.5 t-28.5 -77.5l-45 -80t-34 -84q-8 -25 -2 -49.5t22 -42.5q2 -7 4.5 -13.5t9.5 -12.5q30 -22 65 -8q56 26 108 63.5t89 92.5q6 16 13.5 31t5.5 33q-1 4 -5 2q-34 -58 -87 -99.5t-107 -75.5l-20.5 -10t-22.5 -1q-6 2 -8 7.5t-3 11.5q3 15 15 27t23 25q21 36 38 73t44 70 q22 42 41.5 84.5l38.5 85.5l39 85t45 83q7 9 18 12.5t14 16.5q0 7 -1 13.5t-6 11.5q-6 6 -16 6q-11 -2 -17 -11q-72 -33 -135.5 -88t-122.5 -112q-23 -27 -47.5 -51.5t-41.5 -53.5q-10 -17 -23.5 -32t-27.5 -29t-27 -29t-23 -33q-11 -14 -24 -23t-25 -22q4 14 12 28t11 31 q14 49 29 96.5t34 95.5q6 17 14.5 32.5t13.5 33.5q8 29 16.5 56t19.5 55q4 7 10 14l11.5 14t7.5 14.5t-1 16.5l-10 14q-8 2 -13 -2t-11 -7l-1 1l-21.5 -18t-22.5 -21q-47 -26 -87.5 -62.5t-78.5 -74.5q-5 -8 -12.5 -11.5t-10.5 -11.5q-23 -15 -41 -35t-34.5 -41.5t-31.5 -44 t-31 -43.5q-22 -14 -33 -34l-22 -40q-20 -20 -35 -42l-30 -44q-11 -15 -22.5 -32.5t-25 -33.5t-29 -29.5t-34.5 -20.5q-11 -2 -22 1t-22 7q-23 5 -33.5 25t-17.5 40q-3 15 0.5 28.5t9.5 26l12 25t7 26.5l-3 6q-5 4 -9.5 0.5t-9.5 -5.5q-16 -12 -30 -27.5t-19 -35.5zM29 91 q0 -6 2 -12q6 -5 7.5 -11t0.5 -13t-1.5 -14t1.5 -13q7 -14 20 -23t27 -13q11 -11 27 -11q17 0 31 1q25 2 45 13.5t37 28.5q27 10 49.5 33.5t37.5 48.5q8 7 15 14t11 15q23 47 40 93.5t37 94.5q17 34 31.5 69t37.5 67l22.5 14t24.5 12q14 4 28 10.5t31 1.5q17 3 32.5 9 t34.5 5l21 16q6 5 14 7t15.5 4.5t13.5 6.5t8 13q0 7 1 13t-4 11l-6.5 4.5t-8.5 1.5q-15 -4 -28 -15t-27 -20q-19 -1 -35.5 -6.5l-32.5 -10.5q-11 8 -25.5 5.5t-28.5 -0.5l-34 14q-21 13 -45 25.5t-49 18.5t-50.5 3.5t-48.5 -18.5h-15l-55 -21.5t-50 -33.5q-9 -18 -15 -37.5 t-13 -39.5q-3 -17 9 -27q2 -5 6.5 -6t9.5 0q11 5 14 16q-1 26 9 47.5t26 40.5q7 4 14.5 5.5t15 2.5t14.5 3t13 7h21l20 -19q23 -13 48 -18.5t46 -21.5q-35 -26 -64 -61t-49 -72l-33 -73.5t-18 -79.5q-11 -27 -20 -54.5t-17 -56.5q-9 -15 -22.5 -29t-28.5 -22h-6 q-16 -9 -36 -9.5t-35 9.5q-9 4 -11 11t-2 15t0.5 16t-3.5 15q-6 8 -14 16.5t-19 8.5q-5 -2 -9 -5t-6 -8q-4 -5 -4 -12z" />
<glyph unicode="&#xe000;" horiz-adv-x="390" d="M0 390h390v-390h-390v390z" />
<glyph unicode="&#xfb01;" horiz-adv-x="533" d="M296 133.5q2 -20.5 5 -41.5q2 -10 6 -20.5t16 -12.5q7 -11 14 -23.5t15.5 -23.5t19.5 -18.5t26 -7.5l20.5 5.5t17.5 9.5l63 65.5t55 70.5q8 20 14.5 39.5t8.5 42.5q-1 2 -1.5 1t-1.5 -1q-30 -44 -62.5 -86t-71.5 -80q-7 -7 -14.5 -13.5t-17.5 -8.5q-9 0 -15 7t-10 13 q-6 9 -6.5 18.5t1.5 19.5t6 19.5t6 18.5q17 18 26.5 39.5t16 44.5t12 46t14.5 45q3 9 10 15l14 12t12 12.5t5 17.5q-4 6 -5.5 14t-10.5 8q-12 -4 -23.5 -8.5t-23.5 -7.5q-12 -2 -23 0.5t-23 1.5q-26 -20 -36.5 -46.5t-23.5 -52.5q-3 -25 -10 -48.5l-14 -47.5 q-13 -18 -11 -38.5zM428 492.5q2 -12.5 1 -25.5q4 -9 12 -14.5t16 -7.5t14.5 0.5t12 8t10.5 11.5t11 10q10 6 19 13.5t11 20.5q2 14 -4 25t-10 22q-5 7 -13 8t-16 3q-7 -2 -12.5 -7.5t-11.5 -10.5q-4 -12 -15 -18t-19 -15q-8 -11 -6 -23.5zM-135 -202q2 -6 7.5 -7.5 t10.5 -3.5q14 -5 26.5 2t25.5 12q8 -1 16.5 0t16.5 1q11 6 24 14.5t17 22.5q11 41 23 81t32 77q3 7 4.5 15t2.5 16.5t3 16t8 13.5l12 -3q11 -15 26 -20t31 -2q26 3 47 20.5t42 32.5q27 26 47 55t27 64q4 11 1 19q-18 -21 -35 -44.5t-38 -42.5l-37.5 -35.5t-42.5 -26.5 q-12 -2 -22 2t-18 12q-3 8 -8.5 15t-7.5 15q8 17 14.5 34t8.5 36q11 19 19.5 38.5l16.5 39.5q7 11 16 18l18 14q23 12 43.5 29.5t43.5 31.5l46 46t33 53q24 22 28 50q11 11 14.5 24t5.5 28q0 10 -1 21t-4.5 21t-9.5 18t-17 11l-28 3q-22 7 -42 -1.5t-37 -20.5 q-5 -2 -10 -7.5t-11 -7.5q-39 -23 -64 -59l-51 -71q-24 -38 -42 -77.5t-32 -81.5q-2 -20 -12 -36t-17 -33q-7 -15 -11.5 -30l-9 -30t-10 -30t-14.5 -29q-14 -26 -24 -55t-25 -56q-9 -35 -24 -67.5t-25 -67.5q-3 -21 -14 -38.5t-13 -38.5zM190 336q20 39 35.5 79.5t38.5 78.5 q11 25 25 48.5t33 45.5q11 7 23 7.5t24 -1.5l8 -5q5 -11 3 -23.5t-7 -21.5q-6 -8 -10.5 -16.5t-6.5 -19.5q-29 -34 -43 -72q-26 -31 -58.5 -55.5t-64.5 -44.5z" />
<glyph unicode="&#xfb02;" horiz-adv-x="541" d="M293 158.5q-2 -24.5 6 -46.5q1 -23 7 -43t10 -41q5 -10 13 -17t19 -8q76 10 133 64q19 6 34 20.5t26 31.5q51 45 57 111l-9 -6l-54 -61.5t-57 -56.5q-14 -7 -28 -13t-27 -16l-1 1q-10 -10 -26 -12.5t-30 2.5q-3 3 -7 5.5t-3 7.5l10.5 14.5t9.5 15.5l38.5 94.5l35.5 95.5 q5 22 17.5 41.5t29 36t35 31.5l36.5 29l31 34q13 10 24.5 23t16.5 29q10 11 17.5 23t9.5 27q0 10 2.5 20t4 20.5t1 20.5t-6.5 19q-5 12 -15.5 14.5t-19.5 7.5q-29 5 -55 -5t-46 -30q-32 -22 -56.5 -50.5t-44 -60t-37 -64.5l-35.5 -64l-19 -59q-7 -36 -17.5 -70.5 t-19.5 -70.5q-8 -20 -10 -44.5zM471 401q8 22 22.5 39t22.5 39l31 69q16 20 30 40t27 41q4 3 12 7q5 0 9.5 -2.5l9.5 -5.5q5 -11 3 -22t-3 -22q-9 -16 -17 -32l-17 -33q-17 -14 -31.5 -27.5t-27.5 -31.5q-20 -12 -36.5 -28t-34.5 -31zM-135 -202q2 -6 7.5 -7.5t10.5 -3.5 q14 -5 26.5 2t25.5 12q8 -1 16.5 0t16.5 1q11 6 24 14.5t17 22.5q11 41 23 81t32 77q3 7 4.5 15t2.5 16.5t3 16t8 13.5l12 -3q11 -15 26 -20t31 -2q26 3 47 20.5t42 32.5q27 26 47 55t27 64q4 11 1 19q-18 -21 -35 -44.5t-38 -42.5l-37.5 -35.5t-42.5 -26.5q-12 -2 -22 2 t-18 12q-3 8 -8.5 15t-7.5 15q8 17 14.5 34t8.5 36q11 19 19.5 38.5l16.5 39.5q7 11 16 18l18 14q23 12 43.5 29.5t43.5 31.5l46 46t33 53q24 22 28 50q11 11 14.5 24t5.5 28q0 10 -1 21t-4.5 21t-9.5 18t-17 11l-28 3q-22 7 -42 -1.5t-37 -20.5q-5 -2 -10 -7.5t-11 -7.5 q-39 -23 -64 -59l-51 -71q-24 -38 -42 -77.5t-32 -81.5q-2 -20 -12 -36t-17 -33q-7 -15 -11.5 -30l-9 -30t-10 -30t-14.5 -29q-14 -26 -24 -55t-25 -56q-9 -35 -24 -67.5t-25 -67.5q-3 -21 -14 -38.5t-13 -38.5zM190 336q20 39 35.5 79.5t38.5 78.5q11 25 25 48.5t33 45.5 q11 7 23 7.5t24 -1.5l8 -5q5 -11 3 -23.5t-7 -21.5q-6 -8 -10.5 -16.5t-6.5 -19.5q-29 -34 -43 -72q-26 -31 -58.5 -55.5t-64.5 -44.5z" />
<glyph unicode="&#xfb03;" horiz-adv-x="813" d="M576 133.5q2 -20.5 5 -41.5q2 -10 6 -20.5t16 -12.5q7 -11 14 -23.5t15.5 -23.5t19.5 -18.5t26 -7.5l20.5 5.5t17.5 9.5l63 65.5t55 70.5q8 20 14.5 39.5t8.5 42.5q-1 2 -1.5 1t-1.5 -1q-30 -44 -62.5 -86t-71.5 -80q-7 -7 -14.5 -13.5t-17.5 -8.5q-9 0 -15 7t-10 13 q-6 9 -6.5 18.5t1.5 19.5t6 19.5t6 18.5q17 18 26.5 39.5t16 44.5t12 46t14.5 45q3 9 10 15l14 12t12 12.5t5 17.5q-4 6 -5.5 14t-10.5 8q-12 -4 -23.5 -8.5t-23.5 -7.5q-12 -2 -23 0.5t-23 1.5q-26 -20 -36.5 -46.5t-23.5 -52.5q-3 -25 -10 -48.5l-14 -47.5 q-13 -18 -11 -38.5zM708 492.5q2 -12.5 1 -25.5q4 -9 12 -14.5t16 -7.5t14.5 0.5t12 8t10.5 11.5t11 10q10 6 19 13.5t11 20.5q2 14 -4 25t-10 22q-5 7 -13 8t-16 3q-7 -2 -12.5 -7.5t-11.5 -10.5q-4 -12 -15 -18t-19 -15q-8 -11 -6 -23.5zM145 -202q2 -6 7.5 -7.5 t10.5 -3.5q14 -5 26.5 2t25.5 12q8 -1 16.5 0t16.5 1q11 6 24 14.5t17 22.5q11 41 23 81t32 77q3 7 4.5 15t2.5 16.5t3 16t8 13.5l12 -3q11 -15 26 -20t31 -2q26 3 47 20.5t42 32.5q27 26 47 55t27 64q4 11 1 19q-18 -21 -35 -44.5t-38 -42.5l-37.5 -35.5t-42.5 -26.5 q-12 -2 -22 2t-18 12q-3 8 -8.5 15t-7.5 15q8 17 14.5 34t8.5 36q11 19 19.5 38.5l16.5 39.5q7 11 16 18l18 14q23 12 43.5 29.5t43.5 31.5l46 46t33 53q24 22 28 50q11 11 14.5 24t5.5 28q0 10 -1 21t-4.5 21t-9.5 18t-17 11l-28 3q-22 7 -42 -1.5t-37 -20.5 q-5 -2 -10 -7.5t-11 -7.5q-39 -23 -64 -59l-51 -71q-24 -38 -42 -77.5t-32 -81.5q-2 -20 -12 -36t-17 -33q-7 -15 -11.5 -30l-9 -30t-10 -30t-14.5 -29q-14 -26 -24 -55t-25 -56q-9 -35 -24 -67.5t-25 -67.5q-3 -21 -14 -38.5t-13 -38.5zM470 336q20 39 35.5 79.5t38.5 78.5 q11 25 25 48.5t33 45.5q11 7 23 7.5t24 -1.5l8 -5q5 -11 3 -23.5t-7 -21.5q-6 -8 -10.5 -16.5t-6.5 -19.5q-29 -34 -43 -72q-26 -31 -58.5 -55.5t-64.5 -44.5zM-135 -202q2 -6 7.5 -7.5t10.5 -3.5q14 -5 26.5 2t25.5 12q8 -1 16.5 0t16.5 1q11 6 24 14.5t17 22.5 q11 41 23 81t32 77q3 7 4.5 15t2.5 16.5t3 16t8 13.5l12 -3q11 -15 26 -20t31 -2q26 3 47 20.5t42 32.5q27 26 47 55t27 64q4 11 1 19q-18 -21 -35 -44.5t-38 -42.5l-37.5 -35.5t-42.5 -26.5q-12 -2 -22 2t-18 12q-3 8 -8.5 15t-7.5 15q8 17 14.5 34t8.5 36q11 19 19.5 38.5 l16.5 39.5q7 11 16 18l18 14q23 12 43.5 29.5t43.5 31.5l46 46t33 53q24 22 28 50q11 11 14.5 24t5.5 28q0 10 -1 21t-4.5 21t-9.5 18t-17 11l-28 3q-22 7 -42 -1.5t-37 -20.5q-5 -2 -10 -7.5t-11 -7.5q-39 -23 -64 -59l-51 -71q-24 -38 -42 -77.5t-32 -81.5q-2 -20 -12 -36 t-17 -33q-7 -15 -11.5 -30l-9 -30t-10 -30t-14.5 -29q-14 -26 -24 -55t-25 -56q-9 -35 -24 -67.5t-25 -67.5q-3 -21 -14 -38.5t-13 -38.5zM190 336q20 39 35.5 79.5t38.5 78.5q11 25 25 48.5t33 45.5q11 7 23 7.5t24 -1.5l8 -5q5 -11 3 -23.5t-7 -21.5q-6 -8 -10.5 -16.5 t-6.5 -19.5q-29 -34 -43 -72q-26 -31 -58.5 -55.5t-64.5 -44.5z" />
<glyph unicode="&#xfb04;" horiz-adv-x="821" d="M573 158.5q-2 -24.5 6 -46.5q1 -23 7 -43t10 -41q5 -10 13 -17t19 -8q76 10 133 64q19 6 34 20.5t26 31.5q51 45 57 111l-9 -6l-54 -61.5t-57 -56.5q-14 -7 -28 -13t-27 -16l-1 1q-10 -10 -26 -12.5t-30 2.5q-3 3 -7 5.5t-3 7.5l10.5 14.5t9.5 15.5l38.5 94.5l35.5 95.5 q5 22 17.5 41.5t29 36t35 31.5l36.5 29l31 34q13 10 24.5 23t16.5 29q10 11 17.5 23t9.5 27q0 10 2.5 20t4 20.5t1 20.5t-6.5 19q-5 12 -15.5 14.5t-19.5 7.5q-29 5 -55 -5t-46 -30q-32 -22 -56.5 -50.5t-44 -60t-37 -64.5l-35.5 -64l-19 -59q-7 -36 -17.5 -70.5 t-19.5 -70.5q-8 -20 -10 -44.5zM751 401q8 22 22.5 39t22.5 39l31 69q16 20 30 40t27 41q4 3 12 7q5 0 9.5 -2.5l9.5 -5.5q5 -11 3 -22t-3 -22q-9 -16 -17 -32l-17 -33q-17 -14 -31.5 -27.5t-27.5 -31.5q-20 -12 -36.5 -28t-34.5 -31zM145 -202q2 -6 7.5 -7.5t10.5 -3.5 q14 -5 26.5 2t25.5 12q8 -1 16.5 0t16.5 1q11 6 24 14.5t17 22.5q11 41 23 81t32 77q3 7 4.5 15t2.5 16.5t3 16t8 13.5l12 -3q11 -15 26 -20t31 -2q26 3 47 20.5t42 32.5q27 26 47 55t27 64q4 11 1 19q-18 -21 -35 -44.5t-38 -42.5l-37.5 -35.5t-42.5 -26.5q-12 -2 -22 2 t-18 12q-3 8 -8.5 15t-7.5 15q8 17 14.5 34t8.5 36q11 19 19.5 38.5l16.5 39.5q7 11 16 18l18 14q23 12 43.5 29.5t43.5 31.5l46 46t33 53q24 22 28 50q11 11 14.5 24t5.5 28q0 10 -1 21t-4.5 21t-9.5 18t-17 11l-28 3q-22 7 -42 -1.5t-37 -20.5q-5 -2 -10 -7.5t-11 -7.5 q-39 -23 -64 -59l-51 -71q-24 -38 -42 -77.5t-32 -81.5q-2 -20 -12 -36t-17 -33q-7 -15 -11.5 -30l-9 -30t-10 -30t-14.5 -29q-14 -26 -24 -55t-25 -56q-9 -35 -24 -67.5t-25 -67.5q-3 -21 -14 -38.5t-13 -38.5zM470 336q20 39 35.5 79.5t38.5 78.5q11 25 25 48.5t33 45.5 q11 7 23 7.5t24 -1.5l8 -5q5 -11 3 -23.5t-7 -21.5q-6 -8 -10.5 -16.5t-6.5 -19.5q-29 -34 -43 -72q-26 -31 -58.5 -55.5t-64.5 -44.5zM-135 -202q2 -6 7.5 -7.5t10.5 -3.5q14 -5 26.5 2t25.5 12q8 -1 16.5 0t16.5 1q11 6 24 14.5t17 22.5q11 41 23 81t32 77q3 7 4.5 15 t2.5 16.5t3 16t8 13.5l12 -3q11 -15 26 -20t31 -2q26 3 47 20.5t42 32.5q27 26 47 55t27 64q4 11 1 19q-18 -21 -35 -44.5t-38 -42.5l-37.5 -35.5t-42.5 -26.5q-12 -2 -22 2t-18 12q-3 8 -8.5 15t-7.5 15q8 17 14.5 34t8.5 36q11 19 19.5 38.5l16.5 39.5q7 11 16 18l18 14 q23 12 43.5 29.5t43.5 31.5l46 46t33 53q24 22 28 50q11 11 14.5 24t5.5 28q0 10 -1 21t-4.5 21t-9.5 18t-17 11l-28 3q-22 7 -42 -1.5t-37 -20.5q-5 -2 -10 -7.5t-11 -7.5q-39 -23 -64 -59l-51 -71q-24 -38 -42 -77.5t-32 -81.5q-2 -20 -12 -36t-17 -33q-7 -15 -11.5 -30 l-9 -30t-10 -30t-14.5 -29q-14 -26 -24 -55t-25 -56q-9 -35 -24 -67.5t-25 -67.5q-3 -21 -14 -38.5t-13 -38.5zM190 336q20 39 35.5 79.5t38.5 78.5q11 25 25 48.5t33 45.5q11 7 23 7.5t24 -1.5l8 -5q5 -11 3 -23.5t-7 -21.5q-6 -8 -10.5 -16.5t-6.5 -19.5q-29 -34 -43 -72 q-26 -31 -58.5 -55.5t-64.5 -44.5z" />
</font>
</defs>
</svg>
