<?xml version="1.0" standalone="no"?>
<!DOCTYPE svg PUBLIC "-//W3C//DTD SVG 20010904//EN"
 "http://www.w3.org/TR/2001/REC-SVG-20010904/DTD/svg10.dtd">
<svg version="1.0" xmlns="http://www.w3.org/2000/svg"
 width="260.000000pt" height="260.000000pt" viewBox="0 0 260.000000 260.000000"
 preserveAspectRatio="xMidYMid meet">
<metadata>
Created by potrace 1.11, written by Peter Selinger 2001-2013
</metadata>
<g transform="translate(0.000000,260.000000) scale(0.100000,-0.100000)"
fill="#000000" stroke="none">
<path d="M1525 2243 c-53 -13 -92 -88 -40 -79 35 7 60 -24 73 -87 14 -73 8
-256 -14 -412 -17 -117 -21 -140 -48 -257 -13 -57 -38 -161 -55 -233 -16 -71
-48 -212 -70 -313 -23 -100 -48 -193 -56 -206 -14 -22 -14 -25 0 -40 9 -9 20
-16 25 -16 5 0 21 -11 37 -24 30 -25 79 -36 101 -23 6 5 16 6 21 2 15 -8 27
20 49 115 75 316 288 761 522 1091 74 106 180 219 204 219 62 0 29 -210 -109
-680 -51 -175 -108 -385 -119 -440 -4 -22 -10 -50 -30 -145 -2 -11 -7 -40 -11
-65 -3 -25 -9 -57 -11 -72 -11 -73 -12 -151 -1 -189 l12 -41 24 42 c17 31 26
39 32 29 7 -12 9 -12 9 -1 0 8 6 12 13 9 28 -9 87 105 102 198 3 22 35 148 71
280 36 132 97 364 136 515 67 257 71 282 72 385 1 123 -10 170 -54 237 -57 86
-163 101 -261 36 -49 -34 -145 -126 -207 -201 -46 -56 -151 -214 -191 -287
-22 -41 -41 -72 -41 -68 0 4 6 37 14 75 34 163 42 350 19 457 -28 135 -117
212 -218 189z"/>
<path d="M730 2159 c-25 -4 -70 -9 -100 -13 -87 -11 -175 -32 -317 -78 l-133
-43 0 -50 c0 -99 38 -125 119 -82 48 27 144 67 172 72 13 3 15 -2 12 -18 -11
-47 -65 -211 -130 -397 -38 -107 -82 -241 -98 -296 -26 -97 -29 -102 -64 -117
-20 -9 -42 -26 -49 -38 -22 -35 -17 -95 11 -138 24 -36 26 -47 25 -153 0 -62
2 -120 4 -128 17 -64 49 -129 81 -162 l38 -39 29 18 c25 15 30 24 30 58 2 131
15 255 27 255 4 0 34 -13 67 -29 84 -41 295 -124 408 -162 104 -34 279 -51
314 -31 15 9 16 12 4 13 -8 1 -1 4 15 8 24 5 31 12 33 34 5 43 -13 60 -47 43
-48 -24 -149 -2 -362 80 -141 54 -372 164 -398 188 -27 28 -4 52 77 81 476
166 890 493 906 715 11 155 -99 290 -297 365 -114 42 -264 60 -377 44z m245
-149 c171 -25 295 -105 295 -191 0 -130 -346 -401 -718 -564 -46 -20 -85 -35
-87 -33 -6 6 51 196 123 413 39 116 77 243 86 283 8 41 17 77 21 80 8 8 154
29 180 26 11 -2 56 -8 100 -14z"/>
</g>
</svg>
