<?xml version="1.0" standalone="no"?>
<!DOCTYPE svg PUBLIC "-//W3C//DTD SVG 20010904//EN"
 "http://www.w3.org/TR/2001/REC-SVG-20010904/DTD/svg10.dtd">
<svg version="1.0" xmlns="http://www.w3.org/2000/svg"
 width="300.000000pt" height="300.000000pt" viewBox="0 0 300.000000 300.000000"
 preserveAspectRatio="xMidYMid meet">
<metadata>
Created by potrace 1.11, written by Peter Selinger 2001-2013
</metadata>
<g transform="translate(0.000000,300.000000) scale(0.100000,-0.100000)"
fill="#000000" stroke="none">
<path d="M474 2199 l1 -564 118 0 117 0 1 25 c0 14 1 110 2 214 l2 190 58 1
c58 2 68 -3 92 -46 33 -60 231 -372 240 -377 17 -11 264 -8 257 3 -3 5 -74
112 -159 237 -84 125 -153 232 -153 237 0 6 17 19 38 30 49 25 108 91 135 150
33 70 31 197 -4 272 -15 31 -39 68 -55 83 -35 33 -106 71 -154 82 -19 4 -42 9
-50 12 -8 2 -121 6 -251 9 l-237 5 2 -563z m373 357 c61 -5 116 -29 136 -60
20 -30 27 -92 15 -130 -25 -72 -77 -98 -210 -102 l-78 -2 3 146 2 146 25 6
c14 4 32 5 40 4 8 -2 38 -5 67 -8z"/>
<path d="M2021 2744 c-206 -36 -352 -187 -388 -404 -15 -85 -7 -310 12 -375
52 -176 148 -281 306 -336 82 -28 266 -35 359 -13 245 57 379 255 378 562 0
311 -130 508 -372 562 -75 16 -213 19 -295 4z m272 -221 c59 -33 87 -68 117
-148 19 -51 23 -80 23 -190 1 -134 -6 -173 -46 -253 -22 -46 -75 -94 -123
-113 -16 -6 -58 -12 -93 -13 -194 -9 -289 106 -296 357 -5 228 69 359 218 386
71 13 146 3 200 -26z"/>
<path d="M860 1399 c-171 -28 -273 -129 -287 -284 -10 -115 38 -219 134 -289
26 -19 98 -60 161 -91 135 -68 168 -94 181 -143 14 -49 -11 -100 -59 -124 -67
-34 -214 -16 -351 41 -40 17 -75 29 -77 26 -4 -3 -6 -160 -3 -206 1 -17 72
-45 165 -65 61 -13 243 -13 301 0 63 14 154 67 195 113 53 60 74 132 68 227
-10 146 -74 215 -302 327 -140 69 -176 101 -176 158 0 23 7 52 15 65 41 62
166 65 314 10 35 -13 68 -21 72 -17 4 5 22 46 40 92 38 97 42 90 -75 128 -108
35 -225 47 -316 32z"/>
<path d="M1839 1368 c-1 -17 -1 -1056 0 -1088 l1 -25 318 1 c174 1 319 2 322
3 8 2 7 185 -2 191 -4 3 -93 5 -198 5 -109 0 -194 3 -197 9 -3 5 -6 68 -6 140
l0 131 191 3 190 2 -1 98 -2 97 -184 1 c-115 1 -186 5 -190 12 -7 12 -5 221 3
229 3 3 95 6 203 6 l198 0 0 98 0 99 -322 0 c-251 0 -323 -3 -324 -12z"/>
</g>
</svg>
